{"glyphs":{"0":{"ha":849,"x_min":0,"x_max":0,"o":"m 425 -19 b 99 303 218 -19 99 104 l 99 683 b 425 1006 99 881 218 1006 b 751 683 632 1006 751 881 l 751 303 b 425 -19 751 104 632 -19 m 425 75 b 649 303 569 75 649 160 l 649 683 b 425 911 649 826 569 911 b 200 683 279 911 200 826 l 200 303 b 425 75 200 160 279 75 "},"1":{"ha":547,"x_min":0,"x_max":0,"o":"m 333 0 b 306 28 313 0 306 7 l 306 863 l 114 756 b 75 764 93 746 85 746 l 54 801 b 67 838 44 818 50 828 l 301 975 b 342 986 317 983 324 986 l 379 986 b 407 958 400 986 407 979 l 407 28 b 379 0 407 7 400 0 l 333 0 "},"2":{"ha":799,"x_min":0,"x_max":0,"o":"m 114 0 b 88 28 94 0 88 8 l 88 143 b 349 460 88 331 217 403 b 607 707 478 515 607 542 b 415 911 607 833 531 911 b 185 750 296 911 229 860 b 153 733 178 731 171 726 l 107 749 b 92 783 89 756 85 764 b 419 1006 147 926 242 1006 b 713 710 604 1006 713 878 b 415 383 713 506 583 456 b 197 157 297 333 197 283 l 197 94 l 683 94 b 710 68 703 94 710 88 l 710 28 b 683 0 710 7 703 0 l 114 0 "},"3":{"ha":813,"x_min":0,"x_max":0,"o":"m 417 -19 b 85 222 219 -19 128 67 b 100 258 78 243 82 253 l 146 272 b 179 256 164 279 174 275 b 414 75 210 136 271 75 b 625 274 560 75 625 151 b 451 458 625 383 565 458 l 281 458 b 254 486 261 458 254 465 l 254 524 b 281 551 254 544 261 551 l 444 551 b 600 722 553 551 600 628 b 411 911 600 842 538 911 b 183 736 275 911 217 857 b 149 719 176 717 168 713 l 108 732 b 92 768 89 739 85 749 b 414 1006 135 921 224 1006 b 701 729 600 1006 701 903 b 585 514 701 635 665 551 b 728 272 681 474 728 382 b 417 -19 728 96 631 -19 "},"4":{"ha":826,"x_min":0,"x_max":0,"o":"m 558 0 b 532 28 539 0 532 7 l 532 268 l 78 268 b 53 296 58 268 53 275 l 53 325 b 64 361 53 343 56 350 l 513 976 b 551 997 525 993 532 997 l 600 997 b 628 968 621 997 628 990 l 628 358 l 743 358 b 769 331 763 358 769 351 l 769 296 b 743 268 769 275 763 268 l 628 268 l 628 28 b 601 0 628 7 621 0 l 558 0 m 532 358 l 532 857 l 168 358 "},"5":{"ha":790,"x_min":0,"x_max":0,"o":"m 404 -19 b 76 201 221 -19 125 60 b 90 236 69 221 74 231 l 135 251 b 169 233 153 257 163 254 b 403 75 203 129 275 75 b 613 293 531 75 613 165 b 403 501 613 417 539 501 l 138 501 b 110 536 114 501 107 511 l 147 943 b 192 986 150 976 160 986 l 656 986 b 682 958 675 986 682 979 l 682 918 b 656 892 682 899 675 892 l 242 892 l 214 596 l 413 596 b 715 294 625 596 715 460 b 404 -19 715 121 607 -19 "},"6":{"ha":843,"x_min":0,"x_max":0,"o":"m 428 -19 b 97 331 210 -19 97 114 l 97 660 b 428 1006 97 886 211 1006 b 743 796 597 1006 694 932 b 728 761 750 776 746 768 l 686 746 b 653 764 668 740 661 743 b 428 911 617 863 549 911 b 199 665 276 911 197 833 l 199 535 b 439 579 232 547 321 579 b 758 282 658 579 758 482 b 428 -19 758 93 635 -19 m 428 75 b 657 282 578 75 657 149 b 433 488 657 418 592 488 b 199 439 313 488 225 451 l 199 331 b 428 75 199 169 275 75 "},"7":{"ha":701,"x_min":0,"x_max":0,"o":"m 206 0 b 190 28 188 0 183 11 l 553 892 l 81 892 b 54 918 61 892 54 899 l 54 958 b 81 986 54 979 61 986 l 640 986 b 665 958 660 986 665 979 l 665 931 b 658 892 665 914 665 907 l 299 25 b 257 0 289 3 285 0 l 206 0 "},"8":{"ha":835,"x_min":0,"x_max":0,"o":"m 417 -19 b 85 235 176 -19 85 86 b 286 504 85 406 217 478 b 111 747 190 547 111 608 b 419 1006 111 914 229 1006 b 725 754 618 1006 725 918 b 553 508 725 596 615 533 b 751 250 660 465 751 406 b 417 -19 751 93 657 -19 m 450 540 b 625 746 486 553 625 592 b 417 917 625 858 553 917 b 214 746 292 917 214 858 b 424 549 214 615 315 583 l 450 540 m 417 69 b 646 249 581 69 646 142 b 382 464 646 399 526 422 b 186 244 346 453 186 411 b 417 69 186 138 253 69 "},"9":{"ha":843,"x_min":0,"x_max":0,"o":"m 415 -19 b 100 190 246 -19 149 54 b 115 225 93 210 96 218 l 156 240 b 190 222 175 246 183 243 b 414 75 225 125 294 75 b 644 319 565 75 644 150 l 644 451 b 403 407 611 439 522 407 b 83 704 185 407 83 504 b 415 1006 83 893 208 1006 b 746 656 632 1006 746 872 l 746 324 b 415 -19 746 99 631 -19 m 408 499 b 644 547 531 499 617 535 l 644 656 b 415 911 644 819 568 911 b 186 704 265 911 186 838 b 408 499 186 565 251 499 "}," ":{"ha":326,"x_min":0,"x_max":0,"o":""},"!":{"ha":324,"x_min":0,"x_max":0,"o":"m 149 235 b 124 260 131 235 125 240 l 113 1003 b 138 1028 111 1021 118 1028 l 186 1028 b 211 1003 206 1028 213 1021 l 200 260 b 174 235 199 240 193 235 l 149 235 m 158 -10 b 100 47 115 -10 100 3 l 100 57 b 158 114 100 100 115 114 l 165 114 b 222 57 208 114 222 100 l 222 47 b 165 -10 222 4 208 -10 l 158 -10 "},"\"":{"ha":446,"x_min":0,"x_max":0,"o":"m 128 658 b 104 679 110 658 104 661 l 104 964 b 128 986 104 982 110 986 l 168 986 b 192 964 188 986 193 982 l 178 679 b 154 658 178 661 172 658 l 128 658 m 285 658 b 261 679 265 658 261 661 l 261 964 b 285 986 261 982 265 986 l 325 986 b 349 964 344 986 350 982 l 335 679 b 310 658 333 661 329 658 l 285 658 "},"#":{"ha":946,"x_min":0,"x_max":0,"o":"m 168 0 b 151 24 151 0 147 7 l 219 267 l 82 267 b 65 290 65 267 61 274 l 78 328 b 108 350 85 344 90 350 l 243 350 l 311 582 l 174 582 b 157 606 157 582 151 589 l 169 643 b 200 665 175 660 182 665 l 335 665 l 396 883 b 424 907 400 901 407 907 l 469 907 b 486 883 486 907 490 901 l 425 665 l 633 665 l 694 883 b 721 907 699 901 704 907 l 767 907 b 783 883 783 907 789 901 l 724 665 l 863 665 b 879 642 881 665 885 658 l 867 604 b 839 582 863 588 854 582 l 699 582 l 632 350 l 772 350 b 789 326 789 350 794 343 l 775 289 b 746 267 769 272 764 267 l 608 267 l 540 24 b 513 0 536 7 529 0 l 465 0 b 450 24 450 0 446 7 l 517 267 l 308 267 l 242 24 b 214 0 238 7 231 0 l 168 0 m 542 350 l 610 582 l 401 582 l 333 350 "},"$":{"ha":831,"x_min":0,"x_max":0,"o":"m 385 -101 b 363 -76 368 -101 363 -94 l 363 13 b 75 244 206 26 125 114 b 92 282 68 265 72 275 l 138 299 b 172 281 157 304 164 301 b 413 106 218 169 276 106 b 647 283 571 106 647 163 b 413 451 647 421 536 438 b 90 703 263 467 90 496 b 363 975 90 863 181 963 l 363 1063 b 385 1088 363 1081 368 1088 l 438 1088 b 461 1063 454 1088 461 1081 l 461 975 b 738 763 608 961 678 888 b 724 725 746 743 742 732 l 679 706 b 646 721 663 699 656 700 b 403 881 594 825 536 881 b 193 703 258 881 193 821 b 429 542 193 572 306 554 b 750 286 578 526 750 499 b 461 14 750 125 653 28 l 461 -76 b 438 -101 461 -94 454 -101 l 385 -101 "},"%":{"ha":1132,"x_min":0,"x_max":0,"o":"m 279 499 b 68 701 144 499 68 575 l 68 803 b 279 1007 68 929 144 1007 b 490 803 415 1007 490 929 l 490 701 b 279 499 490 575 415 499 m 203 0 b 189 28 183 0 179 14 l 844 963 b 892 986 858 983 864 986 l 932 986 b 944 958 951 986 956 974 l 290 25 b 240 0 275 3 271 0 l 203 0 m 279 575 b 411 706 365 575 411 624 l 411 799 b 279 929 411 881 365 929 b 147 799 193 929 147 881 l 147 706 b 279 575 147 624 193 575 m 853 -21 b 642 182 718 -21 642 56 l 642 283 b 853 488 642 410 718 488 b 1065 283 989 488 1065 410 l 1065 182 b 853 -21 1065 56 989 -21 m 854 56 b 986 186 939 56 986 104 l 986 279 b 854 410 986 361 939 410 b 721 279 767 410 721 361 l 721 186 b 854 56 721 104 767 56 "},"&":{"ha":931,"x_min":0,"x_max":0,"o":"m 340 -19 b 74 247 190 -19 74 90 b 282 535 74 400 169 478 b 163 767 219 599 163 671 b 407 1006 163 892 251 1006 b 644 774 547 1006 644 900 b 435 515 644 643 572 581 l 421 508 l 657 265 l 747 357 b 779 357 758 368 768 367 l 813 326 b 811 296 822 318 822 308 l 717 199 l 883 25 b 872 0 897 8 893 0 l 810 0 b 772 17 792 0 783 3 l 654 135 b 340 -19 517 6 438 -19 m 390 589 b 557 772 488 636 557 668 b 406 922 557 851 496 922 b 250 767 308 922 250 847 b 363 571 250 688 300 632 m 343 69 b 597 201 418 69 474 88 l 340 467 b 169 250 236 418 169 361 b 343 69 169 147 247 69 "},"'":{"ha":292,"x_min":0,"x_max":0,"o":"m 131 658 b 107 679 111 658 107 661 l 107 964 b 131 986 107 982 111 986 l 171 986 b 193 964 189 986 194 982 l 181 679 b 156 658 179 661 175 658 l 131 658 "},"(":{"ha":385,"x_min":0,"x_max":0,"o":"m 283 -335 b 101 -18 171 -267 101 -193 l 101 703 b 283 1017 101 876 171 949 b 315 1003 299 1025 304 1018 l 336 972 b 324 938 346 957 339 949 b 193 703 247 886 193 829 l 193 -21 b 324 -256 193 -147 244 -204 b 333 -287 339 -265 343 -272 l 315 -321 b 283 -335 306 -336 299 -343 "},")":{"ha":381,"x_min":0,"x_max":0,"o":"m 97 -333 b 67 -321 82 -342 75 -336 l 47 -287 b 58 -254 39 -272 42 -265 b 188 -19 142 -212 188 -146 l 188 704 b 57 939 188 831 140 896 b 46 972 43 950 35 957 l 67 1004 b 97 1018 76 1019 82 1026 b 281 703 215 960 281 878 l 281 -18 b 97 -333 281 -193 215 -276 "},"*":{"ha":544,"x_min":0,"x_max":0,"o":"m 154 600 b 151 624 143 608 143 614 l 236 736 l 110 769 b 96 790 96 772 92 779 l 106 819 b 128 828 108 832 117 835 l 250 778 l 243 918 b 258 935 242 931 246 935 l 286 935 b 301 918 300 935 301 931 l 296 778 l 418 828 b 442 818 431 833 438 831 l 450 790 b 438 769 454 778 450 772 l 307 735 l 394 624 b 392 600 401 615 403 608 l 369 582 b 346 589 358 574 353 576 l 272 703 l 200 589 b 176 582 193 576 186 574 "},"+":{"ha":797,"x_min":0,"x_max":0,"o":"m 379 126 b 354 154 360 126 354 133 l 354 410 l 110 410 b 83 438 90 410 83 417 l 83 471 b 110 499 83 492 90 499 l 354 499 l 354 754 b 379 782 354 775 360 782 l 417 782 b 443 754 436 782 443 775 l 443 499 l 689 499 b 714 471 708 499 714 492 l 714 438 b 689 410 714 417 708 410 l 443 410 l 443 154 b 417 126 443 133 436 126 l 379 126 "},",":{"ha":289,"x_min":0,"x_max":0,"o":"m 68 -168 b 50 -149 51 -168 49 -164 l 97 82 b 133 113 101 107 110 113 l 171 113 b 197 82 197 113 206 103 l 118 -143 b 88 -168 113 -161 106 -168 l 68 -168 "},"-":{"ha":603,"x_min":0,"x_max":0,"o":"m 129 322 b 103 350 110 322 103 329 l 103 386 b 129 414 103 407 110 414 l 474 414 b 499 386 493 414 499 407 l 499 350 b 474 322 499 329 493 322 l 129 322 "},".":{"ha":294,"x_min":0,"x_max":0,"o":"m 143 -10 b 86 47 101 -10 86 3 l 86 57 b 143 114 86 100 100 114 l 151 114 b 208 57 194 114 208 100 l 208 47 b 151 -10 208 4 194 -10 l 143 -10 "},"/":{"ha":603,"x_min":0,"x_max":0,"o":"m 81 -83 b 63 -60 61 -83 57 -75 l 443 964 b 478 986 450 982 457 986 l 524 986 b 540 964 542 986 546 979 l 160 -60 b 126 -83 154 -78 146 -83 l 81 -83 "},":":{"ha":326,"x_min":0,"x_max":0,"o":"m 161 554 b 104 611 119 554 104 567 l 104 621 b 161 678 104 664 118 678 l 169 678 b 226 621 213 678 226 664 l 226 611 b 169 554 226 568 213 554 l 161 554 m 161 -10 b 104 47 119 -10 104 3 l 104 57 b 161 114 104 100 118 114 l 169 114 b 226 57 213 114 226 100 l 226 47 b 169 -10 226 4 213 -10 l 161 -10 "},";":{"ha":365,"x_min":0,"x_max":0,"o":"m 192 554 b 135 611 150 554 135 567 l 135 621 b 192 678 135 664 150 678 l 200 678 b 257 621 243 678 257 664 l 257 611 b 200 554 257 568 243 554 l 192 554 m 108 -168 b 90 -149 92 -168 89 -164 l 138 82 b 174 113 142 107 150 113 l 211 113 b 239 82 239 113 246 103 l 160 -143 b 128 -168 153 -161 147 -168 l 108 -168 "},"<":{"ha":694,"x_min":0,"x_max":0,"o":"m 89 404 b 67 440 72 414 67 421 l 67 467 b 89 503 67 486 72 492 l 564 774 b 592 753 585 786 592 778 l 592 714 b 567 667 592 682 586 678 l 188 454 l 188 450 l 568 236 b 592 189 586 225 592 219 l 592 153 b 564 132 592 129 585 121 "},"=":{"ha":828,"x_min":0,"x_max":0,"o":"m 132 544 b 104 572 111 544 104 551 l 104 610 b 132 638 104 631 111 638 l 696 638 b 722 610 717 638 722 631 l 722 572 b 696 544 722 551 717 544 l 132 544 m 132 271 b 104 299 111 271 104 278 l 104 335 b 132 363 104 356 111 363 l 696 363 b 722 335 717 363 722 356 l 722 299 b 696 271 722 278 717 271 l 132 271 "},">":{"ha":694,"x_min":0,"x_max":0,"o":"m 131 132 b 103 153 110 121 103 129 l 103 189 b 126 236 103 219 107 225 l 507 450 l 507 454 l 128 667 b 103 714 108 678 103 682 l 103 753 b 131 774 103 778 110 786 l 606 503 b 628 467 622 492 628 486 l 628 440 b 606 404 628 421 622 414 l 131 132 "},"?":{"ha":786,"x_min":0,"x_max":0,"o":"m 339 217 b 314 243 321 217 314 222 b 458 492 314 383 383 439 b 617 738 535 546 617 596 b 400 938 617 851 540 938 b 154 767 267 938 194 868 b 121 749 146 747 139 743 l 78 764 b 63 799 60 769 56 778 b 400 1028 113 932 213 1028 b 722 742 607 1028 722 899 b 519 428 722 563 615 497 b 406 243 460 386 406 338 b 381 217 406 222 399 217 l 339 217 m 357 -10 b 300 47 314 -10 300 3 l 300 57 b 357 114 300 100 314 114 l 364 114 b 422 57 407 114 422 100 l 422 47 b 364 -10 422 4 407 -10 l 357 -10 "},"@":{"ha":1254,"x_min":0,"x_max":0,"o":"m 628 -183 b 85 356 282 -183 85 14 l 85 456 b 628 1006 85 792 282 1006 b 1165 456 978 1006 1165 785 l 1165 356 b 931 63 1165 160 1054 63 b 835 119 876 63 853 81 b 592 69 792 101 713 69 b 357 299 432 69 357 156 l 357 511 b 592 740 357 654 432 740 b 829 699 697 740 783 718 b 875 633 865 685 875 671 l 875 189 b 931 133 875 147 900 133 b 1090 354 1010 133 1090 196 l 1090 457 b 628 938 1090 749 928 938 b 161 457 332 938 161 756 l 161 354 b 628 -115 161 51 332 -115 b 913 -78 738 -115 857 -92 b 929 -86 925 -75 929 -76 l 929 -125 b 913 -146 929 -139 925 -143 b 628 -183 863 -161 760 -183 m 601 144 b 794 188 711 144 775 176 l 794 607 b 771 640 794 626 790 633 b 601 667 738 653 671 667 b 438 510 488 667 438 611 l 438 300 b 601 144 438 200 488 144 "},"A":{"ha":871,"x_min":0,"x_max":0,"o":"m 53 0 b 33 26 32 0 28 10 l 376 967 b 410 990 382 986 390 990 l 461 990 b 494 968 479 990 488 986 l 836 26 b 817 0 842 10 838 0 l 769 0 b 725 25 740 0 731 6 l 633 286 l 233 286 l 142 25 b 97 0 135 6 126 0 l 53 0 m 603 374 l 456 796 b 436 889 446 831 438 868 l 431 889 b 411 796 428 867 421 831 l 264 374 "},"B":{"ha":874,"x_min":0,"x_max":0,"o":"m 151 0 b 126 28 132 0 126 7 l 126 958 b 151 986 126 979 132 986 l 500 986 b 761 731 657 986 761 894 b 639 511 761 619 718 547 l 639 508 b 793 265 736 478 793 397 b 521 0 793 94 686 0 l 151 0 m 499 546 b 661 721 600 546 661 603 b 496 892 661 835 597 892 l 228 892 l 228 546 m 517 94 b 692 276 622 94 692 157 b 521 458 692 396 625 458 l 228 458 l 228 94 "},"C":{"ha":864,"x_min":0,"x_max":0,"o":"m 450 -19 b 96 329 222 -19 96 114 l 96 657 b 450 1006 96 872 219 1006 b 792 768 646 1006 746 922 b 776 732 799 747 794 738 l 731 718 b 697 736 713 713 704 715 b 450 911 664 856 594 911 b 199 658 282 911 199 817 l 199 328 b 450 76 199 171 283 76 b 697 256 594 75 663 139 b 731 274 704 276 713 281 l 778 258 b 794 224 796 253 801 243 b 450 -19 746 68 649 -19 "},"D":{"ha":888,"x_min":0,"x_max":0,"o":"m 151 0 b 126 28 132 0 126 7 l 126 958 b 151 986 126 979 132 986 l 424 986 b 794 619 663 986 794 846 l 794 367 b 424 0 794 140 663 0 l 151 0 m 425 94 b 693 367 599 94 693 194 l 693 619 b 425 892 693 792 600 892 l 228 892 l 228 94 "},"E":{"ha":776,"x_min":0,"x_max":0,"o":"m 151 0 b 126 28 132 0 126 7 l 126 958 b 151 986 126 979 132 986 l 664 986 b 690 958 683 986 690 979 l 690 918 b 664 892 690 899 683 892 l 228 892 l 228 547 l 607 547 b 632 519 626 547 632 540 l 632 479 b 607 453 632 460 626 453 l 228 453 l 228 94 l 681 94 b 706 68 700 94 706 88 l 706 28 b 681 0 706 7 700 0 l 151 0 "},"F":{"ha":744,"x_min":0,"x_max":0,"o":"m 151 0 b 126 28 132 0 126 7 l 126 958 b 151 986 126 979 132 986 l 656 986 b 682 958 675 986 682 979 l 682 918 b 656 892 682 899 675 892 l 228 892 l 228 533 l 594 533 b 621 506 614 533 621 526 l 621 465 b 594 438 621 444 614 438 l 228 438 l 228 28 b 201 0 228 7 221 0 l 151 0 "},"G":{"ha":889,"x_min":0,"x_max":0,"o":"m 451 -19 b 96 331 221 -19 96 114 l 96 657 b 450 1006 96 872 219 1006 b 790 767 646 1006 747 922 b 774 732 797 747 792 738 l 728 717 b 694 735 710 711 701 714 b 450 911 661 854 592 911 b 199 658 281 911 199 817 l 199 331 b 451 75 199 169 283 75 b 706 308 617 75 706 163 l 706 421 l 464 421 b 438 449 444 421 438 428 l 438 488 b 464 515 438 508 444 515 l 776 515 b 803 486 797 515 803 508 l 803 313 b 451 -19 803 114 679 -19 "},"H":{"ha":926,"x_min":0,"x_max":0,"o":"m 151 0 b 126 28 132 0 126 7 l 126 958 b 151 986 126 979 132 986 l 201 986 b 228 958 221 986 228 979 l 228 547 l 699 547 l 699 958 b 725 986 699 979 706 986 l 775 986 b 800 958 794 986 800 979 l 800 28 b 775 0 800 7 794 0 l 725 0 b 699 28 706 0 699 7 l 699 453 l 228 453 l 228 28 b 201 0 228 7 221 0 l 151 0 "},"I":{"ha":353,"x_min":0,"x_max":0,"o":"m 150 0 b 126 25 136 0 126 4 l 126 961 b 150 986 126 982 136 986 l 206 986 b 228 961 219 986 228 982 l 228 25 b 203 0 228 4 217 0 l 150 0 "},"J":{"ha":772,"x_min":0,"x_max":0,"o":"m 344 -19 b 46 239 174 -19 81 76 b 61 275 39 258 43 269 l 107 290 b 140 271 125 297 135 290 b 346 76 165 144 228 76 b 551 310 482 76 551 163 l 551 960 b 576 986 551 979 557 986 l 628 986 b 654 960 647 986 654 979 l 654 310 b 344 -19 654 107 546 -19 "},"K":{"ha":826,"x_min":0,"x_max":0,"o":"m 151 0 b 126 28 132 0 126 7 l 126 958 b 151 986 126 979 132 986 l 201 986 b 228 958 221 986 228 979 l 228 547 l 358 547 b 385 546 367 547 376 547 l 651 963 b 697 986 664 983 671 986 l 753 986 b 768 958 772 986 776 974 l 482 526 b 622 372 546 504 585 453 l 781 28 b 765 0 789 13 786 0 l 713 0 b 671 25 685 0 681 4 l 532 335 b 367 453 493 419 457 453 l 228 453 l 228 28 b 201 0 228 7 221 0 l 151 0 "},"L":{"ha":704,"x_min":0,"x_max":0,"o":"m 151 0 b 126 28 132 0 126 7 l 126 958 b 151 986 126 979 132 986 l 201 986 b 228 958 221 986 228 979 l 228 94 l 643 94 b 668 68 663 94 668 88 l 668 28 b 643 0 668 7 663 0 l 151 0 "},"M":{"ha":1092,"x_min":0,"x_max":0,"o":"m 153 0 b 126 28 132 0 126 7 l 126 958 b 153 986 126 979 132 986 l 194 986 b 233 964 217 986 225 981 l 546 346 l 857 963 b 893 986 865 982 871 986 l 940 986 b 967 958 960 986 967 979 l 967 28 b 940 0 967 7 960 0 l 894 0 b 868 28 875 0 868 7 l 868 592 b 883 839 868 667 871 746 l 878 839 b 782 622 846 756 818 692 l 593 254 b 563 232 586 238 578 232 l 531 232 b 499 254 514 232 507 236 l 306 626 b 214 840 269 694 243 757 l 208 840 b 222 592 219 746 222 671 l 222 28 b 196 0 222 7 215 0 l 153 0 "},"N":{"ha":939,"x_min":0,"x_max":0,"o":"m 151 0 b 126 28 132 0 126 7 l 126 958 b 151 986 126 979 132 986 l 210 986 b 236 972 224 986 231 981 l 617 351 b 726 138 663 275 692 207 l 732 138 b 715 400 722 221 715 301 l 715 960 b 742 986 715 979 722 986 l 788 986 b 814 958 807 986 814 979 l 814 28 b 788 0 814 7 807 0 l 732 0 b 704 15 718 0 711 3 l 315 649 b 217 849 275 718 244 789 l 211 849 b 225 603 217 776 225 692 l 225 28 b 199 0 225 7 218 0 l 151 0 "},"O":{"ha":901,"x_min":0,"x_max":0,"o":"m 451 -19 b 96 329 221 -19 96 114 l 96 657 b 451 1006 96 872 221 1006 b 804 657 681 1006 804 872 l 804 329 b 451 -19 804 114 681 -19 m 451 75 b 703 329 615 75 703 169 l 703 657 b 451 911 703 817 615 911 b 199 657 286 911 199 817 l 199 329 b 451 75 199 169 286 75 "},"P":{"ha":844,"x_min":0,"x_max":0,"o":"m 151 0 b 126 28 132 0 126 7 l 126 958 b 151 986 126 979 132 986 l 492 986 b 783 676 669 986 783 871 b 492 369 783 485 671 369 l 228 369 l 228 28 b 201 0 228 7 221 0 l 151 0 m 488 465 b 682 676 607 465 682 543 b 488 892 682 811 607 892 l 228 892 l 228 465 "},"Q":{"ha":949,"x_min":0,"x_max":0,"o":"m 682 33 b 483 -19 631 -1 564 -19 b 128 329 251 -19 128 114 l 128 657 b 483 1006 128 872 251 1006 b 836 657 711 1006 836 872 l 836 329 b 761 90 836 232 811 150 l 863 -24 b 860 -64 875 -40 875 -51 l 825 -90 b 788 -86 810 -101 800 -101 m 483 75 b 735 329 646 75 735 169 l 735 657 b 483 911 735 817 646 911 b 229 657 317 911 229 817 l 229 329 b 483 75 229 169 317 75 "},"R":{"ha":875,"x_min":0,"x_max":0,"o":"m 151 0 b 126 28 132 0 126 7 l 126 958 b 151 986 126 979 132 986 l 508 986 b 786 699 676 986 786 881 b 578 435 786 544 707 454 b 668 332 621 413 647 378 l 808 28 b 793 0 817 13 813 0 l 743 0 b 694 25 711 0 704 4 l 574 293 b 406 417 533 382 497 417 l 228 417 l 228 28 b 201 0 228 7 221 0 l 151 0 m 504 507 b 683 699 613 507 683 575 b 504 892 683 822 615 892 l 228 892 l 228 507 "},"S":{"ha":850,"x_min":0,"x_max":0,"o":"m 424 -19 b 75 217 242 -19 132 56 b 90 253 68 236 72 246 l 138 268 b 172 251 157 275 164 272 b 424 76 218 129 300 76 b 669 269 586 76 669 139 b 426 449 669 411 553 432 b 88 724 271 467 88 501 b 421 1006 88 894 210 1006 b 757 794 597 1006 692 936 b 743 757 765 775 763 764 l 699 739 b 665 753 681 732 674 735 b 421 908 617 860 543 908 b 192 726 272 908 192 843 b 451 543 192 583 315 560 b 774 267 604 525 774 485 b 424 -19 774 85 651 -19 "},"T":{"ha":736,"x_min":0,"x_max":0,"o":"m 343 0 b 317 26 324 0 317 6 l 317 892 l 61 892 b 36 918 42 892 36 899 l 36 958 b 61 986 36 979 42 986 l 675 986 b 701 958 694 986 701 979 l 701 918 b 675 892 701 899 694 892 l 419 892 l 419 26 b 393 0 419 6 413 0 l 343 0 "},"U":{"ha":928,"x_min":0,"x_max":0,"o":"m 464 -19 b 118 336 233 -19 118 119 l 118 960 b 144 986 118 981 124 986 l 194 986 b 219 960 214 986 219 981 l 219 336 b 464 75 219 175 299 75 b 707 336 629 75 707 175 l 707 960 b 733 986 707 981 714 986 l 783 986 b 810 960 803 986 810 981 l 810 336 b 464 -19 810 119 694 -19 "},"V":{"ha":844,"x_min":0,"x_max":0,"o":"m 394 0 b 361 24 376 0 367 6 l 35 960 b 53 986 29 976 33 986 l 106 986 b 143 961 132 986 138 981 l 392 235 b 421 122 403 197 414 153 l 426 122 b 456 233 433 153 444 196 l 700 961 b 742 986 706 981 711 986 l 793 986 b 810 960 811 986 815 976 l 483 24 b 450 0 478 6 469 0 l 394 0 "},"W":{"ha":1221,"x_min":0,"x_max":0,"o":"m 322 0 b 288 24 303 0 293 4 l 50 960 b 69 986 44 978 50 986 l 126 986 b 160 961 150 986 156 982 l 322 293 b 346 143 332 250 339 194 l 351 143 b 382 292 358 199 371 247 l 557 946 b 592 971 561 967 572 971 l 635 971 b 671 946 656 971 667 967 l 842 290 b 871 143 854 243 863 192 l 876 143 b 901 290 883 192 892 244 l 1064 961 b 1099 986 1068 982 1075 986 l 1150 986 b 1171 960 1169 986 1175 978 l 933 24 b 900 0 929 4 918 0 l 846 0 b 811 24 826 0 817 4 l 639 693 b 613 829 629 735 619 785 l 608 829 b 581 693 601 785 592 736 l 406 24 b 372 0 403 4 390 0 l 322 0 "},"X":{"ha":833,"x_min":0,"x_max":0,"o":"m 56 0 b 43 31 35 0 32 14 l 350 503 l 51 960 b 65 986 43 974 47 986 l 122 986 b 171 963 151 986 160 985 l 417 582 l 661 963 b 707 986 672 983 678 986 l 768 986 b 782 960 786 986 790 974 l 481 504 l 792 31 b 779 0 801 14 799 0 l 718 0 b 672 25 688 0 685 3 l 414 426 l 161 25 b 118 0 150 3 143 0 l 56 0 "},"Y":{"ha":851,"x_min":0,"x_max":0,"o":"m 400 0 b 374 28 381 0 374 7 l 374 401 l 39 958 b 54 986 32 974 35 986 l 111 986 b 157 961 142 986 147 982 l 426 499 l 697 961 b 743 986 707 982 713 986 l 799 986 b 813 958 817 986 821 974 l 475 400 l 475 28 b 449 0 475 7 468 0 l 400 0 "},"Z":{"ha":767,"x_min":0,"x_max":0,"o":"m 89 0 b 64 28 69 0 64 7 l 64 67 b 74 99 64 79 65 89 l 574 892 l 94 892 b 69 919 76 892 69 899 l 69 958 b 94 986 69 979 76 986 l 669 986 b 694 958 688 986 694 979 l 694 921 b 686 889 694 907 692 899 l 185 96 l 682 96 b 707 68 701 96 707 89 l 707 28 b 682 0 707 7 701 0 l 89 0 "},"[":{"ha":401,"x_min":0,"x_max":0,"o":"m 136 -354 b 111 -329 115 -354 111 -350 l 111 1013 b 136 1038 111 1033 115 1038 l 338 1038 b 361 1014 358 1038 361 1033 l 361 978 b 338 953 361 957 358 953 l 203 953 l 203 -268 l 338 -268 b 361 -293 358 -268 361 -272 l 361 -329 b 338 -354 361 -350 358 -354 l 136 -354 "},"\\":{"ha":565,"x_min":0,"x_max":0,"o":"m 433 -83 b 407 -61 418 -83 413 -79 l 61 964 b 74 986 56 979 60 986 l 131 986 b 158 964 147 986 154 982 l 504 -61 b 490 -83 510 -76 506 -83 l 433 -83 "},"]":{"ha":401,"x_min":0,"x_max":0,"o":"m 65 -354 b 40 -329 44 -354 40 -350 l 40 -293 b 65 -268 40 -272 44 -268 l 200 -268 l 200 953 l 65 953 b 40 978 44 953 40 957 l 40 1014 b 65 1038 40 1033 44 1038 l 265 1038 b 290 1013 286 1038 290 1033 l 290 -329 b 265 -354 290 -350 286 -354 l 65 -354 "},"^":{"ha":846,"x_min":0,"x_max":0,"o":"m 107 722 b 93 753 83 722 78 733 l 369 1097 b 406 1119 381 1113 389 1119 l 436 1119 b 472 1097 456 1119 460 1113 l 751 753 b 739 722 767 733 763 722 l 692 722 b 643 744 663 722 657 725 l 422 1024 l 418 1024 l 200 744 b 150 722 185 724 179 722 l 107 722 "},"_":{"ha":725,"x_min":0,"x_max":0,"o":"m 82 -92 b 54 -64 61 -92 54 -85 l 54 -28 b 82 0 54 -7 61 0 l 643 0 b 671 -28 664 0 671 -7 l 671 -64 b 643 -92 671 -85 664 -92 l 82 -92 "},"`":{"ha":393,"x_min":0,"x_max":0,"o":"m 69 951 b 67 981 53 958 54 965 l 88 1006 b 135 1007 101 1022 118 1018 l 326 869 b 329 840 340 863 340 854 l 317 825 b 283 824 310 815 300 817 "},"a":{"ha":692,"x_min":0,"x_max":0,"o":"m 342 -19 b 69 197 151 -19 69 49 b 344 410 69 344 153 410 b 501 397 411 410 481 400 l 501 475 b 342 651 501 600 453 651 b 171 550 256 651 203 613 b 138 538 163 533 154 529 l 108 551 b 96 588 90 558 86 568 b 342 735 138 678 217 735 b 594 471 525 735 594 642 l 594 96 b 550 17 594 47 585 33 b 342 -19 504 -6 436 -19 m 336 58 b 478 82 399 58 446 67 b 501 121 497 90 501 96 l 501 322 b 339 333 476 325 406 333 b 164 197 218 333 164 290 b 336 58 164 103 217 58 "},"b":{"ha":731,"x_min":0,"x_max":0,"o":"m 367 -19 b 156 22 274 -19 200 0 b 107 99 115 42 107 53 l 107 1003 b 131 1028 107 1021 113 1028 l 178 1028 b 201 1003 196 1028 201 1021 l 201 692 b 383 735 231 706 299 735 b 643 463 557 735 643 638 l 643 265 b 367 -19 643 81 556 -19 m 364 67 b 549 267 492 67 550 133 l 549 460 b 372 647 549 583 490 647 b 201 604 292 647 226 618 l 201 129 b 224 93 201 108 204 103 b 364 67 254 79 307 67 "},"c":{"ha":696,"x_min":0,"x_max":0,"o":"m 356 -19 b 85 251 175 -19 85 81 l 85 463 b 363 735 85 632 176 735 b 624 547 515 735 592 661 b 608 511 631 526 625 517 l 572 499 b 539 517 553 493 544 497 b 360 650 513 607 464 650 b 179 464 239 650 179 581 l 179 251 b 358 64 179 135 240 64 b 538 203 460 64 508 110 b 571 219 544 222 551 225 l 611 208 b 626 172 629 203 635 192 b 356 -19 583 44 507 -19 "},"d":{"ha":731,"x_min":0,"x_max":0,"o":"m 363 -19 b 86 265 175 -19 86 81 l 86 463 b 347 735 86 638 174 735 b 529 692 432 735 499 706 l 529 1003 b 553 1028 529 1021 535 1028 l 600 1028 b 624 1003 618 1028 624 1021 l 624 99 b 575 22 624 53 615 42 b 363 -19 531 0 456 -19 m 365 67 b 506 93 422 67 475 79 b 529 129 526 103 529 108 l 529 604 b 358 647 503 618 439 647 b 181 460 240 647 181 583 l 181 267 b 365 67 181 133 238 67 "},"e":{"ha":711,"x_min":0,"x_max":0,"o":"m 356 -19 b 83 263 168 -19 83 94 l 83 442 b 361 735 83 625 179 735 b 636 447 547 735 636 614 l 636 371 b 597 331 636 347 625 331 l 176 331 l 176 251 b 357 63 176 135 236 63 b 543 176 458 63 510 107 b 579 188 553 194 561 197 l 610 169 b 619 131 625 161 631 147 b 356 -19 576 43 496 -19 m 543 406 l 543 453 b 361 654 543 576 485 654 b 176 453 238 654 176 576 l 176 406 "},"f":{"ha":453,"x_min":0,"x_max":0,"o":"m 174 0 b 150 25 156 0 150 7 l 150 626 l 51 626 b 28 653 33 626 28 633 l 28 689 b 51 714 28 708 33 714 l 150 714 l 150 749 b 386 1028 150 947 219 1026 l 399 1028 b 422 1001 417 1028 422 1021 l 422 965 b 399 939 422 946 417 939 b 244 749 276 939 244 897 l 244 714 l 399 714 b 422 689 417 714 422 708 l 422 653 b 399 626 422 633 417 626 l 244 626 l 244 25 b 221 0 244 7 239 0 l 174 0 "},"g":{"ha":728,"x_min":0,"x_max":0,"o":"m 354 -343 b 106 -194 221 -343 149 -282 b 114 -154 94 -175 97 -164 l 149 -136 b 186 -147 167 -126 176 -131 b 353 -257 217 -214 264 -257 b 526 -50 478 -257 526 -182 l 526 38 b 338 -3 485 17 422 -3 b 86 265 163 -3 86 96 l 86 450 b 361 735 86 635 172 735 b 574 694 454 735 529 715 b 621 614 614 675 621 660 l 621 -46 b 354 -343 621 -228 547 -343 m 349 85 b 526 122 439 85 490 104 l 526 586 b 503 622 526 607 524 611 b 364 649 474 635 425 649 b 181 447 236 649 181 586 l 181 271 b 349 85 181 147 229 85 "},"h":{"ha":746,"x_min":0,"x_max":0,"o":"m 133 0 b 111 25 117 0 111 7 l 111 1003 b 133 1028 111 1021 117 1028 l 182 1028 b 206 1003 199 1028 206 1021 l 206 696 b 393 735 243 715 308 735 b 643 465 565 735 643 638 l 643 25 b 619 0 643 7 636 0 l 571 0 b 549 25 554 0 549 7 l 549 460 b 381 649 549 585 497 649 b 206 610 306 649 244 631 l 206 25 b 182 0 206 7 199 0 l 133 0 "},"i":{"ha":314,"x_min":0,"x_max":0,"o":"m 140 872 b 99 921 108 872 99 882 l 99 935 b 140 983 99 971 110 983 l 172 983 b 214 935 204 983 214 971 l 214 921 b 172 872 214 882 204 872 l 140 872 m 135 0 b 110 25 117 0 110 7 l 110 689 b 135 714 110 708 117 714 l 179 714 b 204 689 199 714 204 708 l 204 25 b 179 0 204 7 199 0 l 135 0 "},"j":{"ha":310,"x_min":0,"x_max":0,"o":"m 143 872 b 101 921 111 872 101 882 l 101 935 b 143 983 101 971 111 983 l 175 983 b 217 935 206 983 217 971 l 217 921 b 175 872 217 882 206 872 l 143 872 m -33 -319 b -57 -293 -51 -319 -57 -312 l -57 -257 b -33 -231 -57 -237 -51 -231 b 108 -12 106 -231 108 -151 l 108 689 b 131 714 108 708 114 714 l 181 714 b 203 689 197 714 203 708 l 203 -14 b -33 -319 203 -208 179 -319 "},"k":{"ha":683,"x_min":0,"x_max":0,"o":"m 133 0 b 111 26 117 0 111 7 l 111 1001 b 133 1028 111 1021 117 1028 l 182 1028 b 206 1001 199 1028 206 1021 l 206 410 l 328 410 l 339 410 l 521 694 b 565 714 532 714 539 714 l 604 714 b 622 685 629 714 633 703 l 426 392 b 525 281 474 375 500 338 l 633 29 b 617 0 643 8 639 0 l 578 0 b 535 22 550 0 543 4 l 443 239 b 335 322 418 297 390 322 l 206 322 l 206 26 b 182 0 206 7 199 0 l 133 0 "},"l":{"ha":324,"x_min":0,"x_max":0,"o":"m 133 0 b 115 25 119 0 115 7 l 115 1003 b 133 1028 115 1021 119 1028 l 190 1028 b 210 1003 204 1028 210 1021 l 210 25 b 190 0 210 7 204 0 l 133 0 "},"m":{"ha":1131,"x_min":0,"x_max":0,"o":"m 132 0 b 107 25 114 0 107 7 l 107 611 b 157 690 107 654 118 672 b 374 735 203 713 269 735 b 550 672 454 735 513 714 b 779 735 596 700 658 735 b 1026 468 951 735 1026 639 l 1026 25 b 1003 0 1026 7 1021 0 l 957 0 b 932 25 939 0 932 7 l 932 465 b 768 649 932 588 885 649 b 599 597 681 649 635 621 b 617 478 611 565 617 525 l 617 25 b 593 0 617 7 611 0 l 547 0 b 524 25 528 0 524 7 l 524 475 b 363 649 524 597 474 649 b 222 621 299 649 260 638 b 201 582 204 610 201 599 l 201 25 b 176 0 201 7 194 0 l 132 0 "},"n":{"ha":742,"x_min":0,"x_max":0,"o":"m 131 0 b 107 25 114 0 107 7 l 107 611 b 154 689 107 654 117 671 b 389 735 203 710 275 735 b 639 463 563 735 639 633 l 639 25 b 615 0 639 7 633 0 l 568 0 b 544 25 550 0 544 7 l 544 460 b 376 649 544 583 489 649 b 222 617 313 649 254 633 b 201 583 204 608 201 599 l 201 25 b 178 0 201 7 196 0 l 131 0 "},"o":{"ha":729,"x_min":0,"x_max":0,"o":"m 364 -19 b 88 235 192 -19 88 76 l 88 479 b 364 735 88 638 192 735 b 643 479 539 735 643 638 l 643 235 b 364 -19 643 76 539 -19 m 364 65 b 549 235 476 65 549 129 l 549 479 b 364 649 549 585 476 649 b 182 479 254 649 182 585 l 182 235 b 364 65 182 129 254 65 "},"p":{"ha":729,"x_min":0,"x_max":0,"o":"m 131 -306 b 107 -281 113 -306 107 -299 l 107 617 b 156 693 107 661 115 674 b 367 735 200 714 274 735 b 642 451 556 735 642 636 l 642 251 b 390 -19 642 81 565 -19 b 201 25 306 -19 233 10 l 201 -281 b 178 -306 201 -299 196 -306 l 131 -306 m 379 67 b 547 254 497 67 547 133 l 547 449 b 364 649 547 582 492 649 b 224 621 307 649 254 635 b 201 586 204 611 201 606 l 201 113 b 379 67 232 97 300 67 "},"q":{"ha":729,"x_min":0,"x_max":0,"o":"m 550 -306 b 528 -281 533 -306 528 -299 l 528 25 b 338 -19 496 10 422 -19 b 86 251 163 -19 86 81 l 86 451 b 361 735 86 636 174 735 b 574 693 454 735 528 714 b 622 617 614 674 622 661 l 622 -281 b 599 -306 622 -299 617 -306 l 550 -306 m 349 67 b 528 113 429 67 497 97 l 528 586 b 504 621 528 606 524 611 b 364 649 475 635 421 649 b 181 449 236 649 181 582 l 181 254 b 349 67 181 133 232 67 "},"r":{"ha":485,"x_min":0,"x_max":0,"o":"m 129 0 b 107 25 114 0 107 7 l 107 597 b 151 675 107 640 115 660 b 372 714 199 696 267 714 l 431 714 b 453 692 447 714 453 708 l 453 653 b 431 628 453 635 447 628 l 368 628 b 222 600 304 628 253 614 b 201 563 204 590 201 578 l 201 25 b 179 0 201 7 196 0 l 129 0 "},"s":{"ha":671,"x_min":0,"x_max":0,"o":"m 340 -19 b 69 151 203 -19 113 28 b 83 186 64 169 67 181 l 128 199 b 160 183 146 204 151 201 b 340 64 189 96 251 64 b 507 189 454 64 507 111 b 335 317 507 286 443 306 b 82 528 203 331 82 356 b 333 733 82 654 172 733 b 586 585 478 733 550 676 b 575 547 594 565 592 554 l 539 533 b 506 546 519 526 515 529 b 333 650 481 610 435 650 b 175 528 229 650 175 606 b 356 399 175 419 247 410 b 601 190 493 383 601 344 b 340 -19 601 63 514 -19 "},"t":{"ha":472,"x_min":0,"x_max":0,"o":"m 414 0 b 158 265 229 -4 158 40 l 158 626 l 50 626 b 26 653 32 626 26 633 l 26 689 b 50 714 26 708 32 714 l 158 714 l 158 856 b 182 881 158 875 164 881 l 229 881 b 253 856 247 881 253 875 l 253 714 l 415 714 b 439 689 433 714 439 708 l 439 653 b 415 626 439 633 433 626 l 253 626 l 253 269 b 414 90 253 111 292 89 b 438 68 432 90 438 85 l 438 26 b 414 0 438 7 432 0 "},"u":{"ha":742,"x_min":0,"x_max":0,"o":"m 353 -19 b 104 251 181 -19 104 81 l 104 689 b 126 714 104 708 110 714 l 175 714 b 199 689 192 714 199 708 l 199 256 b 365 67 199 131 247 67 b 519 96 433 67 486 79 b 542 135 539 106 542 117 l 542 689 b 564 714 542 708 547 714 l 613 714 b 636 689 629 714 636 708 l 636 103 b 588 25 636 60 626 43 b 353 -19 540 4 471 -19 "},"v":{"ha":679,"x_min":0,"x_max":0,"o":"m 315 -4 b 282 19 297 -4 289 1 l 42 683 b 60 714 33 707 36 714 l 99 714 b 139 689 125 714 132 710 l 303 232 b 339 104 315 192 329 140 l 343 104 b 379 232 353 140 365 192 l 542 689 b 579 714 547 710 551 714 l 619 714 b 638 683 642 714 646 707 l 394 19 b 363 -4 388 1 381 -4 l 315 -4 "},"w":{"ha":996,"x_min":0,"x_max":0,"o":"m 269 -4 b 236 19 251 -4 242 0 l 50 685 b 71 714 44 707 47 714 l 110 714 b 151 689 139 714 147 710 l 265 260 b 292 113 276 217 285 158 l 297 113 b 328 261 304 157 317 217 l 446 674 b 485 699 450 694 456 699 l 513 699 b 551 674 540 699 546 694 l 668 267 b 701 113 682 218 693 157 l 706 113 b 733 264 713 156 722 213 l 849 689 b 889 714 853 711 860 714 l 924 714 b 946 685 947 714 951 707 l 758 19 b 725 -4 753 1 743 -4 l 683 -4 b 649 19 664 -4 654 1 l 524 471 l 497 589 l 494 589 l 468 471 l 342 19 b 310 -4 338 0 329 -4 l 269 -4 "},"x":{"ha":656,"x_min":0,"x_max":0,"o":"m 61 0 b 46 29 36 0 33 10 l 265 367 l 56 686 b 74 714 46 703 47 714 l 119 714 b 160 693 143 714 151 711 l 329 433 l 496 693 b 533 714 506 711 510 714 l 583 714 b 599 686 606 714 610 704 l 393 368 l 613 29 b 596 0 622 10 619 0 l 546 0 b 507 21 522 0 517 3 l 329 301 l 150 21 b 110 0 140 3 133 0 l 61 0 "},"y":{"ha":746,"x_min":0,"x_max":0,"o":"m 367 -343 b 118 -194 233 -343 161 -285 b 128 -154 108 -176 110 -164 l 161 -137 b 197 -149 179 -128 188 -132 b 365 -258 228 -215 278 -258 b 542 -50 490 -258 542 -182 l 542 35 b 353 -1 503 21 446 -1 b 104 271 181 -1 104 100 l 104 689 b 126 714 104 708 110 714 l 175 714 b 199 689 192 714 199 708 l 199 274 b 365 85 199 150 247 85 b 542 122 449 85 507 107 l 542 689 b 564 714 542 708 547 714 l 613 714 b 636 689 629 714 636 708 l 636 -42 b 367 -343 636 -224 560 -343 "},"z":{"ha":610,"x_min":0,"x_max":0,"o":"m 83 0 b 60 25 65 0 60 7 l 60 61 b 69 88 60 74 63 76 l 426 629 l 89 629 b 67 654 72 629 67 635 l 67 689 b 89 714 67 708 72 714 l 519 714 b 542 689 536 714 542 708 l 542 654 b 531 624 542 640 538 635 l 172 86 l 526 86 b 550 61 544 86 550 79 l 550 25 b 526 0 550 7 544 0 l 83 0 "},"{":{"ha":463,"x_min":0,"x_max":0,"o":"m 347 -356 b 169 -176 215 -356 169 -299 l 169 158 b 61 292 169 240 147 292 l 47 292 b 26 317 32 292 26 299 l 26 363 b 47 388 26 379 31 388 l 61 388 b 169 521 147 388 169 440 l 169 858 b 347 1038 169 981 215 1038 l 400 1038 b 425 1013 418 1038 425 1032 l 425 976 b 400 951 425 958 418 951 l 350 951 b 260 854 285 951 260 918 l 260 508 b 165 340 260 422 225 367 b 260 171 233 315 260 258 l 260 -172 b 350 -269 260 -235 285 -269 l 400 -269 b 425 -294 418 -269 425 -275 l 425 -331 b 400 -356 425 -349 418 -356 l 347 -356 "},"|":{"ha":313,"x_min":0,"x_max":0,"o":"m 136 -204 b 111 -179 118 -204 111 -197 l 111 1164 b 136 1189 111 1182 118 1189 l 176 1189 b 201 1164 194 1189 201 1182 l 201 -179 b 176 -204 201 -197 194 -204 l 136 -204 "},"}":{"ha":463,"x_min":0,"x_max":0,"o":"m 63 -356 b 38 -331 44 -356 38 -349 l 38 -294 b 63 -269 38 -275 44 -269 l 113 -269 b 203 -172 178 -269 203 -235 l 203 171 b 297 340 203 258 229 315 b 203 508 236 367 203 422 l 203 854 b 113 951 203 918 178 951 l 63 951 b 38 976 44 951 38 958 l 38 1013 b 63 1038 38 1032 44 1038 l 115 1038 b 293 858 246 1038 293 981 l 293 521 b 401 388 293 440 319 388 l 415 388 b 436 363 431 388 436 379 l 436 317 b 414 292 436 299 431 292 l 401 292 b 293 158 319 292 293 240 l 293 -176 b 114 -356 293 -299 247 -356 l 63 -356 "},"~":{"ha":789,"x_min":0,"x_max":0,"o":"m 522 378 b 290 435 419 378 374 435 b 176 388 244 435 208 417 b 143 388 163 374 156 375 l 115 414 b 114 451 101 428 101 438 b 268 519 158 494 204 519 b 501 464 371 519 417 464 b 617 511 547 464 586 483 b 650 511 631 524 636 524 l 676 483 b 678 446 689 471 692 460 b 522 378 633 403 586 378 "}," ":{"ha":326,"x_min":0,"x_max":0,"o":""},"¡":{"ha":308,"x_min":0,"x_max":0,"o":"m 158 721 b 215 664 201 721 215 707 l 215 654 b 158 597 215 611 201 597 l 150 597 b 93 654 107 597 93 611 l 93 664 b 150 721 93 708 108 721 m 167 476 b 192 451 186 476 192 471 l 204 -292 b 179 -317 206 -310 199 -317 l 131 -317 b 106 -292 111 -317 104 -310 l 117 451 b 142 476 117 471 124 476 "},"¢":{"ha":753,"x_min":0,"x_max":0,"o":"m 358 -117 b 335 -92 340 -117 335 -110 l 335 -17 b 93 251 175 -4 93 94 l 93 465 b 335 731 93 619 172 715 l 335 822 b 358 847 335 840 340 847 l 407 847 b 429 822 424 847 429 840 l 429 731 b 663 547 565 719 632 651 b 647 511 668 526 663 517 l 610 499 b 576 517 592 492 583 497 b 382 650 549 607 492 650 b 188 464 251 650 188 581 l 188 251 b 381 64 188 135 253 64 b 575 204 486 64 547 110 b 607 222 582 224 589 226 l 651 210 b 665 175 668 204 674 196 b 429 -15 631 61 558 -4 l 429 -92 b 407 -117 429 -110 424 -117 l 358 -117 "},"£":{"ha":893,"x_min":0,"x_max":0,"o":"m 97 0 b 72 28 78 0 72 7 l 72 68 b 88 92 72 82 75 92 l 110 92 b 204 238 182 92 204 169 l 204 425 l 110 425 b 83 453 90 425 83 432 l 83 486 b 110 514 83 507 90 514 l 204 514 l 204 740 b 500 1006 204 885 299 1006 b 800 792 657 1006 749 942 b 783 757 807 772 801 764 l 742 740 b 707 760 722 733 717 740 b 503 911 665 874 606 911 b 311 736 367 911 311 833 l 311 514 l 649 514 b 674 486 668 514 674 507 l 674 453 b 649 425 674 432 668 425 l 310 425 l 310 239 b 246 90 310 175 289 124 l 246 86 b 413 94 283 89 342 94 l 776 94 b 801 68 796 94 801 88 l 801 28 b 776 0 801 7 796 0 l 97 0 "},"¤":{"ha":846,"x_min":0,"x_max":0,"o":"m 122 172 b 121 207 108 183 110 193 l 194 282 b 139 467 160 332 139 396 b 193 651 139 539 158 601 l 119 726 b 121 761 107 740 107 750 l 157 794 b 189 793 169 806 178 807 l 258 722 b 424 779 303 758 360 779 b 586 725 486 779 540 758 l 654 794 b 686 796 665 808 674 807 l 722 763 b 724 728 736 751 736 742 l 650 654 b 707 467 686 603 707 539 b 653 283 707 397 686 333 l 726 208 b 725 174 738 196 739 186 l 689 140 b 656 142 675 129 668 129 l 588 213 b 424 156 543 176 488 156 b 260 211 361 156 304 176 l 190 140 b 158 139 179 126 171 128 m 422 239 b 619 468 538 239 619 335 b 422 696 619 601 538 696 b 225 468 307 696 225 601 b 422 239 225 335 307 239 "},"¥":{"ha":897,"x_min":0,"x_max":0,"o":"m 424 0 b 397 28 404 0 397 7 l 397 210 l 194 210 b 172 235 178 210 172 217 l 172 260 b 194 285 172 278 178 285 l 399 285 l 399 411 l 194 411 b 172 436 178 411 172 418 l 172 461 b 194 486 172 479 178 486 l 367 486 l 61 958 b 75 986 53 974 57 986 l 135 986 b 181 961 164 986 169 985 l 451 519 l 721 961 b 768 986 732 985 738 986 l 822 986 b 838 958 842 986 844 974 l 533 486 l 701 486 b 724 461 718 486 724 479 l 724 436 b 701 411 724 418 718 411 l 499 411 l 499 285 l 701 285 b 724 260 718 285 724 278 l 724 235 b 701 210 724 217 718 210 l 500 210 l 500 28 b 474 0 500 7 493 0 l 424 0 "},"¦":{"ha":325,"x_min":0,"x_max":0,"o":"m 143 599 b 118 624 124 599 118 606 l 118 1164 b 143 1189 118 1182 124 1189 l 182 1189 b 207 1164 201 1189 207 1182 l 207 624 b 182 599 207 606 201 599 l 143 599 m 143 -203 b 118 -178 124 -203 118 -196 l 118 363 b 143 388 118 381 124 388 l 182 388 b 207 363 201 388 207 381 l 207 -178 b 182 -203 207 -196 201 -203 l 143 -203 "},"§":{"ha":808,"x_min":0,"x_max":0,"o":"m 407 -308 b 86 -78 247 -308 136 -231 b 104 -42 81 -58 86 -47 l 149 -26 b 183 -44 168 -19 176 -24 b 406 -212 219 -160 294 -212 b 615 -53 551 -212 615 -151 b 401 101 615 75 514 88 b 92 340 261 117 92 142 b 222 550 92 457 165 519 b 101 756 151 582 101 639 b 401 1013 101 904 193 1013 b 708 790 556 1013 653 938 b 693 751 717 771 713 760 l 654 735 b 618 749 636 726 628 729 b 400 915 579 860 507 915 b 206 756 261 915 206 853 b 418 599 206 629 307 613 b 711 357 553 581 711 547 b 599 154 711 250 647 188 b 719 -53 668 124 719 67 b 407 -308 719 -201 618 -308 m 506 181 b 610 349 531 197 610 244 b 394 506 608 468 504 490 b 313 519 367 510 339 513 b 194 353 283 506 194 467 b 417 194 194 224 301 207 b 506 181 446 190 476 188 "},"¨":{"ha":639,"x_min":0,"x_max":0,"o":"m 186 853 b 142 899 151 853 142 864 l 142 910 b 186 954 142 943 151 954 l 196 954 b 242 910 232 954 242 943 l 242 899 b 196 853 242 864 232 853 l 186 853 m 435 853 b 389 899 399 853 389 864 l 389 910 b 435 954 389 943 399 954 l 443 954 b 489 910 478 954 489 943 l 489 899 b 443 853 489 864 478 853 l 435 853 "},"©":{"ha":1132,"x_min":0,"x_max":0,"o":"m 568 -11 b 81 488 261 -11 81 174 b 568 986 81 801 261 986 b 1051 488 871 986 1051 801 b 568 -11 1051 174 871 -11 m 568 49 b 992 488 835 49 992 211 b 568 926 992 764 835 926 b 140 488 299 926 140 764 b 568 49 140 211 299 49 m 563 206 b 351 403 426 206 351 282 l 351 563 b 563 760 351 685 425 760 b 768 624 682 760 740 710 b 757 597 774 608 771 601 l 731 589 b 706 601 715 583 711 586 b 563 696 685 668 649 696 b 419 563 465 696 419 647 l 419 403 b 563 269 419 319 467 269 b 707 369 644 269 686 301 b 733 382 713 385 718 388 l 757 375 b 771 347 772 368 776 363 b 563 206 742 257 679 206 "},"ª":{"ha":504,"x_min":0,"x_max":0,"o":"m 247 493 b 92 615 128 493 92 540 b 250 744 92 696 131 744 b 331 738 289 744 318 740 l 331 764 b 249 867 331 831 308 867 b 157 815 204 867 181 850 b 133 811 150 807 143 806 l 111 822 b 106 853 99 831 96 839 b 253 931 138 906 190 931 b 404 758 368 931 404 861 l 404 585 b 365 514 404 542 396 529 b 247 493 339 500 300 493 m 244 551 b 313 564 278 551 299 557 b 331 597 326 571 331 576 l 331 682 b 247 688 317 685 288 688 b 163 618 181 688 163 661 b 244 551 163 575 186 551 "},"«":{"ha":796,"x_min":0,"x_max":0,"o":"m 72 349 b 72 381 61 361 61 368 l 342 657 b 371 658 353 668 361 669 l 397 632 b 399 600 408 619 410 613 l 175 367 l 397 136 b 397 104 407 124 408 114 l 368 78 b 339 78 357 67 350 65 m 378 349 b 378 381 367 360 367 368 l 647 657 b 678 657 658 668 667 668 l 704 632 b 704 600 717 621 715 613 l 478 367 l 703 136 b 703 104 713 125 714 115 l 674 78 b 644 78 663 67 656 65 "},"¬":{"ha":804,"x_min":0,"x_max":0,"o":"m 626 194 b 601 219 608 194 601 200 l 601 451 l 129 451 b 104 476 111 451 104 458 l 104 515 b 129 540 104 535 111 540 l 671 540 b 696 515 690 540 696 535 l 696 219 b 671 194 696 200 690 194 l 626 194 "},"®":{"ha":685,"x_min":0,"x_max":0,"o":"m 344 447 b 92 717 186 447 92 547 b 344 986 92 886 186 986 b 594 717 500 986 594 886 b 344 447 594 547 500 447 m 346 486 b 554 717 478 486 554 572 b 346 946 554 861 478 946 b 133 717 211 946 133 861 b 346 486 133 572 211 486 m 258 576 b 247 586 250 576 247 579 l 247 843 b 263 857 247 854 250 857 l 361 857 b 456 765 419 857 456 824 b 396 681 456 719 433 690 l 446 593 b 436 576 453 582 451 576 l 422 576 b 404 586 410 576 408 579 l 356 676 l 289 676 l 289 586 b 278 576 289 579 286 576 l 258 576 m 361 715 b 414 765 394 715 414 732 b 361 817 414 797 394 817 l 289 817 l 289 715 "},"¯":{"ha":525,"x_min":0,"x_max":0,"o":"m 106 869 b 82 894 86 869 82 875 l 82 915 b 106 940 82 935 89 940 l 417 940 b 442 915 436 940 442 935 l 442 894 b 417 869 442 875 436 869 l 106 869 "},"°":{"ha":561,"x_min":0,"x_max":0,"o":"m 282 560 b 85 771 161 560 85 646 b 282 981 85 896 161 981 b 476 771 400 981 476 896 b 282 560 476 647 400 560 m 282 631 b 404 771 356 631 403 692 b 282 910 403 851 356 910 b 158 771 206 910 158 851 b 282 631 158 690 206 631 "},"±":{"ha":858,"x_min":0,"x_max":0,"o":"m 414 325 b 386 353 393 325 386 332 l 386 508 l 147 508 b 119 536 126 508 119 515 l 119 563 b 147 590 119 583 126 590 l 386 590 l 386 751 b 414 779 386 772 393 779 l 444 779 b 472 751 465 779 472 772 l 472 590 l 711 590 b 738 563 732 590 738 583 l 738 536 b 711 508 738 515 732 508 l 472 508 l 472 353 b 444 325 472 332 465 325 l 414 325 m 147 158 b 119 186 126 158 119 165 l 119 213 b 147 240 119 233 126 240 l 711 240 b 738 213 732 240 738 233 l 738 186 b 711 158 738 165 732 158 l 147 158 "},"´":{"ha":361,"x_min":0,"x_max":0,"o":"m 100 824 b 68 825 85 817 75 815 l 56 840 b 58 869 44 854 44 863 l 250 1007 b 297 1006 267 1018 283 1022 l 318 981 b 314 951 331 965 331 958 l 100 824 "},"µ":{"ha":772,"x_min":0,"x_max":0,"o":"m 128 -306 b 106 -281 111 -306 106 -299 l 106 689 b 129 714 106 708 111 714 l 176 714 b 200 689 194 714 200 708 l 200 254 b 382 65 200 131 254 65 b 550 96 458 65 514 81 b 574 133 571 106 574 117 l 574 689 b 597 714 574 708 579 714 l 644 714 b 668 689 663 714 668 708 l 668 103 b 621 25 668 60 658 43 b 397 -21 568 1 493 -21 b 199 74 297 -21 235 11 l 200 -281 b 176 -306 200 -299 194 -306 l 128 -306 "},"¶":{"ha":617,"x_min":0,"x_max":0,"o":"m 269 -124 b 246 -99 253 -124 246 -117 l 246 604 b 79 794 147 607 79 683 b 251 986 79 910 149 986 l 474 986 b 497 961 492 986 497 979 l 497 -99 b 474 -124 497 -117 492 -124 l 426 -124 b 404 -99 410 -124 404 -117 l 404 890 l 339 890 l 339 -99 b 317 -124 339 -117 333 -124 l 269 -124 "},"·":{"ha":331,"x_min":0,"x_max":0,"o":"m 161 317 b 104 375 119 317 104 329 l 104 383 b 161 440 104 426 118 440 l 169 440 b 226 383 213 440 226 426 l 226 375 b 169 317 226 332 213 317 l 161 317 "},"¸":{"ha":357,"x_min":0,"x_max":0,"o":"m 167 -339 b 69 -314 131 -339 92 -326 b 54 -286 57 -307 54 -301 l 54 -260 b 68 -250 54 -250 57 -243 b 154 -282 88 -267 110 -282 b 240 -206 211 -282 240 -257 b 167 -146 240 -167 213 -146 b 128 -151 153 -146 139 -149 b 113 -129 113 -153 107 -144 l 157 0 l 215 0 l 185 -100 b 213 -96 193 -99 201 -96 b 322 -211 278 -96 326 -144 b 167 -339 317 -306 250 -339 "},"º":{"ha":510,"x_min":0,"x_max":0,"o":"m 254 494 b 90 660 147 494 90 557 l 90 764 b 254 931 90 867 147 931 b 418 764 363 931 418 867 l 418 660 b 254 494 418 557 363 494 m 254 563 b 344 657 314 563 344 599 l 344 768 b 254 863 344 825 314 863 b 165 768 196 863 165 825 l 165 657 b 254 563 165 599 196 563 "},"»":{"ha":796,"x_min":0,"x_max":0,"o":"m 93 104 b 92 136 81 115 81 125 l 319 367 l 90 600 b 90 632 79 611 79 621 l 118 658 b 147 658 129 669 138 669 l 417 381 b 417 349 426 368 428 361 l 150 78 b 121 78 139 65 132 65 m 399 104 b 399 136 386 114 388 125 l 625 367 l 397 600 b 397 632 385 611 385 619 l 424 658 b 453 658 435 669 442 669 l 722 381 b 722 349 733 368 733 361 l 457 78 b 426 78 444 65 438 67 "},"¼":{"ha":1046,"x_min":0,"x_max":0,"o":"m 244 442 b 217 469 224 442 217 449 l 217 888 l 115 829 b 75 840 97 819 85 824 l 64 858 b 76 896 53 876 61 886 l 221 982 b 254 990 232 988 240 990 l 271 990 b 299 963 292 990 299 983 l 299 469 b 271 442 299 449 292 442 l 244 442 m 215 0 b 203 28 196 0 192 13 l 774 963 b 818 986 788 983 790 986 l 850 986 b 863 958 868 986 872 974 l 293 25 b 247 0 279 3 274 0 l 215 0 m 857 0 b 838 24 842 0 838 6 l 838 142 l 603 142 b 581 165 586 142 581 146 l 581 186 b 589 214 581 200 582 204 l 821 533 b 857 549 832 549 839 549 l 889 549 b 913 522 908 549 913 543 l 913 210 l 960 210 b 982 188 978 210 982 206 l 982 164 b 960 142 982 146 978 142 l 913 142 l 913 24 b 893 0 913 6 908 0 l 857 0 m 838 210 l 838 447 l 667 210 "},"½":{"ha":1114,"x_min":0,"x_max":0,"o":"m 244 444 b 217 472 224 444 217 451 l 217 892 l 115 833 b 75 843 97 822 85 826 l 64 861 b 76 899 53 879 61 889 l 221 985 b 254 993 232 992 240 993 l 271 993 b 297 965 290 993 297 986 l 297 472 b 271 444 297 451 290 444 l 244 444 m 201 0 b 188 28 181 0 178 13 l 760 963 b 804 986 772 983 776 986 l 835 986 b 847 958 854 986 857 974 l 278 25 b 232 0 264 3 258 0 l 201 0 m 710 0 b 686 26 692 0 686 7 l 686 81 b 786 256 686 168 713 222 l 858 286 b 957 390 911 310 957 321 b 865 483 957 447 926 483 b 761 394 801 483 771 436 b 731 378 754 376 749 372 l 703 386 b 689 419 686 392 682 400 b 871 560 706 490 760 560 b 1038 394 981 560 1038 493 b 900 226 1038 293 979 260 l 832 197 b 774 110 794 181 774 157 l 774 74 l 1011 74 b 1035 50 1029 74 1035 67 l 1035 24 b 1013 0 1035 7 1029 0 l 710 0 "},"¾":{"ha":1100,"x_min":0,"x_max":0,"o":"m 265 435 b 74 578 157 435 97 483 b 86 613 68 600 72 607 l 113 621 b 142 604 131 626 135 625 b 264 508 158 538 194 508 b 363 600 329 508 363 546 b 288 690 363 650 333 690 l 215 690 b 196 714 200 690 196 694 l 196 736 b 217 763 196 760 199 763 l 283 763 b 351 843 329 763 351 800 b 261 933 351 899 318 933 b 143 844 197 933 163 913 b 110 826 135 822 131 819 l 89 835 b 76 867 76 839 71 846 b 265 1006 104 967 161 1006 b 428 851 367 1006 428 942 b 365 732 428 799 411 757 b 442 594 417 704 442 654 b 265 435 442 499 383 435 m 271 0 b 258 28 251 0 247 13 l 829 963 b 874 986 843 983 846 986 l 906 986 b 918 958 924 986 928 974 l 349 25 b 303 0 335 3 329 0 l 271 0 m 914 0 b 893 24 897 0 893 6 l 893 142 l 660 142 b 638 165 642 142 638 146 l 638 186 b 644 214 638 200 638 204 l 878 533 b 913 549 888 549 894 549 l 944 549 b 969 522 965 549 969 543 l 969 210 l 1017 210 b 1038 188 1035 210 1038 206 l 1038 164 b 1017 142 1038 146 1035 142 l 969 142 l 969 24 b 949 0 969 6 964 0 l 914 0 m 893 210 l 894 447 l 722 210 "},"¿":{"ha":804,"x_min":0,"x_max":0,"o":"m 447 721 b 504 664 490 721 504 708 l 504 654 b 447 597 504 613 490 597 l 439 597 b 382 654 397 597 382 613 l 382 664 b 439 721 382 707 397 721 l 447 721 m 465 496 b 490 469 483 496 490 490 b 346 221 490 329 419 272 b 188 -25 269 167 188 115 b 404 -225 188 -140 264 -225 b 650 -56 538 -225 610 -157 b 683 -37 658 -36 664 -31 l 726 -51 b 742 -86 744 -58 749 -67 b 404 -317 692 -221 592 -317 b 82 -29 197 -317 82 -187 b 285 283 82 150 189 214 b 399 469 344 325 399 375 b 424 496 399 490 406 496 l 465 496 "},"À":{"ha":871,"x_min":0,"x_max":0,"o":"m 307 1186 b 304 1215 290 1193 290 1200 l 325 1240 b 372 1242 339 1257 356 1253 l 564 1104 b 567 1075 578 1097 578 1089 l 554 1060 b 521 1058 547 1050 538 1051 m 53 0 b 33 26 32 0 28 10 l 376 967 b 410 990 382 986 390 990 l 461 990 b 494 968 479 990 488 986 l 836 26 b 817 0 842 10 838 0 l 769 0 b 725 25 740 0 731 6 l 633 286 l 233 286 l 142 25 b 97 0 135 6 126 0 l 53 0 m 603 374 l 456 796 b 436 889 446 831 438 868 l 431 889 b 411 796 428 867 421 831 l 264 374 "},"Á":{"ha":871,"x_min":0,"x_max":0,"o":"m 350 1060 b 317 1060 335 1051 325 1051 l 306 1075 b 308 1106 293 1089 294 1097 l 500 1243 b 546 1242 515 1253 532 1257 l 568 1217 b 564 1186 581 1201 581 1193 l 350 1060 m 53 0 b 33 26 32 0 28 10 l 376 967 b 410 990 382 986 390 990 l 461 990 b 494 968 479 990 488 986 l 836 26 b 817 0 842 10 838 0 l 769 0 b 725 25 740 0 731 6 l 633 286 l 233 286 l 142 25 b 97 0 135 6 126 0 l 53 0 m 603 374 l 456 796 b 436 889 446 831 438 868 l 431 889 b 411 796 428 867 421 831 l 264 374 "},"Â":{"ha":871,"x_min":0,"x_max":0,"o":"m 242 1054 b 229 1075 219 1054 218 1064 l 381 1225 b 432 1247 403 1246 407 1247 l 442 1247 b 489 1225 461 1247 468 1247 l 640 1075 b 628 1054 651 1064 650 1054 l 590 1054 b 549 1069 569 1054 561 1056 l 435 1183 l 317 1069 b 278 1054 304 1056 299 1054 l 242 1054 m 53 0 b 33 26 32 0 28 10 l 376 967 b 410 990 382 986 390 990 l 461 990 b 494 968 479 990 488 986 l 836 26 b 817 0 842 10 838 0 l 769 0 b 725 25 740 0 731 6 l 633 286 l 233 286 l 142 25 b 97 0 135 6 126 0 l 53 0 m 603 374 l 456 796 b 436 889 446 831 438 868 l 431 889 b 411 796 428 867 421 831 l 264 374 "},"Ã":{"ha":871,"x_min":0,"x_max":0,"o":"m 250 1071 b 235 1088 239 1071 235 1076 b 336 1226 235 1182 272 1226 b 518 1133 428 1226 453 1133 b 568 1210 551 1133 568 1164 b 583 1226 568 1222 571 1226 l 611 1226 b 628 1210 624 1226 628 1222 b 525 1071 628 1117 594 1071 b 344 1164 438 1071 413 1164 b 294 1088 314 1164 294 1135 b 279 1071 294 1076 290 1071 l 250 1071 m 53 0 b 33 26 32 0 28 10 l 376 967 b 410 990 382 986 390 990 l 461 990 b 494 968 479 990 488 986 l 836 26 b 817 0 842 10 838 0 l 769 0 b 725 25 740 0 731 6 l 633 286 l 233 286 l 142 25 b 97 0 135 6 126 0 l 53 0 m 603 374 l 456 796 b 436 889 446 831 438 868 l 431 889 b 411 796 428 867 421 831 l 264 374 "},"Ä":{"ha":871,"x_min":0,"x_max":0,"o":"m 303 1100 b 258 1144 268 1100 258 1110 l 258 1156 b 303 1201 258 1189 268 1201 l 313 1201 b 358 1156 349 1201 358 1189 l 358 1144 b 313 1100 358 1110 349 1100 l 303 1100 m 558 1100 b 511 1144 522 1100 511 1110 l 511 1156 b 558 1201 511 1189 522 1201 l 567 1201 b 613 1156 600 1201 613 1189 l 613 1144 b 567 1100 613 1110 600 1100 l 558 1100 m 53 0 b 33 26 32 0 28 10 l 376 967 b 410 990 382 986 390 990 l 461 990 b 494 968 479 990 488 986 l 836 26 b 817 0 842 10 838 0 l 769 0 b 725 25 740 0 731 6 l 633 286 l 233 286 l 142 25 b 97 0 135 6 126 0 l 53 0 m 603 374 l 456 796 b 436 889 446 831 438 868 l 431 889 b 411 796 428 867 421 831 l 264 374 "},"Å":{"ha":871,"x_min":0,"x_max":0,"o":"m 53 0 b 33 26 32 0 28 10 l 371 951 b 290 1076 321 969 290 1015 b 436 1224 290 1164 350 1224 b 576 1076 519 1224 576 1164 b 500 953 576 1015 547 971 l 836 26 b 817 0 842 10 838 0 l 769 0 b 725 25 740 0 731 6 l 633 286 l 233 286 l 142 25 b 97 0 135 6 126 0 l 53 0 m 436 989 b 518 1076 483 989 518 1025 b 436 1165 518 1131 483 1165 b 349 1076 383 1165 349 1131 b 436 989 349 1025 383 989 m 603 374 l 456 796 b 436 889 446 831 438 868 l 431 889 b 411 796 428 867 421 831 l 264 374 "},"Æ":{"ha":1135,"x_min":0,"x_max":0,"o":"m 32 0 b 15 26 13 0 7 10 l 560 963 b 593 986 571 981 575 986 l 1022 986 b 1049 958 1042 986 1049 979 l 1049 918 b 1022 892 1049 899 1042 892 l 676 892 l 676 546 l 961 546 b 989 519 982 546 989 539 l 989 479 b 961 451 989 458 982 451 l 676 451 l 676 94 l 1038 94 b 1065 68 1058 94 1065 88 l 1065 28 b 1038 0 1065 7 1058 0 l 603 0 b 576 28 582 0 576 7 l 576 242 l 250 242 l 129 25 b 81 0 119 7 114 0 l 32 0 m 576 326 l 579 826 l 301 326 "},"Ç":{"ha":864,"x_min":0,"x_max":0,"o":"m 444 -342 b 349 -315 410 -342 369 -328 b 333 -287 336 -308 333 -303 l 332 -261 b 346 -251 332 -253 336 -246 b 433 -283 367 -268 389 -283 b 518 -208 489 -283 518 -258 b 447 -147 518 -168 492 -147 b 407 -153 432 -147 418 -150 b 392 -131 392 -156 388 -146 l 428 -19 b 96 329 214 -11 96 121 l 96 657 b 450 1006 96 872 219 1006 b 792 768 646 1006 746 922 b 776 732 799 747 794 738 l 731 718 b 697 736 713 713 704 715 b 450 911 664 856 594 911 b 199 658 282 911 199 817 l 199 328 b 450 76 199 171 283 76 b 697 256 594 75 663 139 b 731 274 704 276 713 281 l 778 258 b 794 224 796 253 801 243 b 488 -19 750 78 663 -8 l 464 -101 b 490 -99 471 -100 481 -99 b 601 -212 556 -99 606 -146 b 444 -342 596 -307 528 -342 "},"È":{"ha":776,"x_min":0,"x_max":0,"o":"m 281 1186 b 278 1215 264 1193 264 1200 l 299 1240 b 346 1242 313 1257 329 1253 l 538 1104 b 540 1075 551 1097 551 1089 l 528 1060 b 494 1058 521 1050 511 1051 m 151 0 b 126 28 132 0 126 7 l 126 958 b 151 986 126 979 132 986 l 664 986 b 690 958 683 986 690 979 l 690 918 b 664 892 690 899 683 892 l 228 892 l 228 547 l 607 547 b 632 519 626 547 632 540 l 632 479 b 607 453 632 460 626 453 l 228 453 l 228 94 l 681 94 b 706 68 700 94 706 88 l 706 28 b 681 0 706 7 700 0 l 151 0 "},"É":{"ha":776,"x_min":0,"x_max":0,"o":"m 324 1060 b 290 1060 308 1051 299 1051 l 279 1075 b 282 1106 267 1089 268 1097 l 474 1243 b 519 1242 489 1253 506 1257 l 542 1217 b 538 1186 554 1201 554 1193 l 324 1060 m 151 0 b 126 28 132 0 126 7 l 126 958 b 151 986 126 979 132 986 l 664 986 b 690 958 683 986 690 979 l 690 918 b 664 892 690 899 683 892 l 228 892 l 228 547 l 607 547 b 632 519 626 547 632 540 l 632 479 b 607 453 632 460 626 453 l 228 453 l 228 94 l 681 94 b 706 68 700 94 706 88 l 706 28 b 681 0 706 7 700 0 l 151 0 "},"Ê":{"ha":776,"x_min":0,"x_max":0,"o":"m 217 1054 b 204 1075 194 1054 193 1064 l 356 1225 b 407 1247 378 1246 382 1247 l 417 1247 b 464 1225 436 1247 443 1247 l 615 1075 b 603 1054 626 1064 625 1054 l 565 1054 b 524 1069 544 1054 536 1056 l 410 1183 l 292 1069 b 253 1054 279 1056 274 1054 l 217 1054 m 151 0 b 126 28 132 0 126 7 l 126 958 b 151 986 126 979 132 986 l 664 986 b 690 958 683 986 690 979 l 690 918 b 664 892 690 899 683 892 l 228 892 l 228 547 l 607 547 b 632 519 626 547 632 540 l 632 479 b 607 453 632 460 626 453 l 228 453 l 228 94 l 681 94 b 706 68 700 94 706 88 l 706 28 b 681 0 706 7 700 0 l 151 0 "},"Ë":{"ha":776,"x_min":0,"x_max":0,"o":"m 276 1100 b 232 1144 242 1100 232 1110 l 232 1156 b 276 1201 232 1189 242 1201 l 286 1201 b 332 1156 322 1201 332 1189 l 332 1144 b 286 1100 332 1110 322 1100 l 276 1100 m 532 1100 b 485 1144 496 1100 485 1110 l 485 1156 b 532 1201 485 1189 496 1201 l 540 1201 b 586 1156 574 1201 586 1189 l 586 1144 b 540 1100 586 1110 574 1100 l 532 1100 m 151 0 b 126 28 132 0 126 7 l 126 958 b 151 986 126 979 132 986 l 664 986 b 690 958 683 986 690 979 l 690 918 b 664 892 690 899 683 892 l 228 892 l 228 547 l 607 547 b 632 519 626 547 632 540 l 632 479 b 607 453 632 460 626 453 l 228 453 l 228 94 l 681 94 b 706 68 700 94 706 88 l 706 28 b 681 0 706 7 700 0 l 151 0 "},"Ì":{"ha":353,"x_min":0,"x_max":0,"o":"m 49 1186 b 46 1215 32 1193 32 1200 l 67 1240 b 114 1242 81 1257 97 1253 l 306 1104 b 308 1075 319 1097 319 1089 l 296 1060 b 263 1058 289 1050 279 1051 m 150 0 b 126 25 136 0 126 4 l 126 961 b 150 986 126 982 136 986 l 206 986 b 228 961 219 986 228 982 l 228 25 b 203 0 228 4 217 0 l 150 0 "},"Í":{"ha":353,"x_min":0,"x_max":0,"o":"m 92 1060 b 58 1060 76 1051 67 1051 l 47 1075 b 50 1106 35 1089 36 1097 l 242 1243 b 288 1242 257 1253 274 1257 l 310 1217 b 306 1186 322 1201 322 1193 l 92 1060 m 150 0 b 126 25 136 0 126 4 l 126 961 b 150 986 126 982 136 986 l 206 986 b 228 961 219 986 228 982 l 228 25 b 203 0 228 4 217 0 l 150 0 "},"Î":{"ha":353,"x_min":0,"x_max":0,"o":"m -15 1054 b -28 1075 -37 1054 -39 1064 l 124 1225 b 175 1247 146 1246 150 1247 l 185 1247 b 232 1225 204 1247 211 1247 l 383 1075 b 371 1054 394 1064 393 1054 l 333 1054 b 292 1069 313 1054 304 1056 l 178 1183 l 60 1069 b 21 1054 47 1056 42 1054 l -15 1054 m 150 0 b 126 25 136 0 126 4 l 126 961 b 150 986 126 982 136 986 l 206 986 b 228 961 219 986 228 982 l 228 25 b 203 0 228 4 217 0 l 150 0 "},"Ï":{"ha":353,"x_min":0,"x_max":0,"o":"m 44 1100 b 0 1144 10 1100 0 1110 l 0 1156 b 44 1201 0 1189 10 1201 l 54 1201 b 100 1156 90 1201 100 1189 l 100 1144 b 54 1100 100 1110 90 1100 l 44 1100 m 300 1100 b 253 1144 264 1100 253 1110 l 253 1156 b 300 1201 253 1189 264 1201 l 308 1201 b 354 1156 342 1201 354 1189 l 354 1144 b 308 1100 354 1110 342 1100 l 300 1100 m 150 0 b 126 25 136 0 126 4 l 126 961 b 150 986 126 982 136 986 l 206 986 b 228 961 219 986 228 982 l 228 25 b 203 0 228 4 217 0 l 150 0 "},"Ð":{"ha":885,"x_min":0,"x_max":0,"o":"m 149 0 b 124 28 129 0 124 7 l 124 461 l 42 461 b 24 479 28 461 24 464 l 24 515 b 42 535 24 531 28 535 l 124 535 l 124 958 b 149 986 124 979 129 986 l 421 986 b 792 619 660 986 792 846 l 792 367 b 421 0 792 140 660 0 l 149 0 m 424 94 b 690 367 597 94 690 194 l 690 619 b 424 892 690 792 597 892 l 225 892 l 225 535 l 426 535 b 444 515 440 535 444 531 l 444 479 b 426 461 444 464 440 461 l 225 461 l 225 94 "},"Ñ":{"ha":939,"x_min":0,"x_max":0,"o":"m 286 1071 b 271 1088 275 1071 271 1076 b 372 1226 271 1182 308 1226 b 554 1133 464 1226 489 1133 b 604 1210 588 1133 604 1164 b 619 1226 604 1222 607 1226 l 647 1226 b 664 1210 660 1226 664 1222 b 561 1071 664 1117 631 1071 b 381 1164 474 1071 449 1164 b 331 1088 350 1164 331 1135 b 315 1071 331 1076 326 1071 l 286 1071 m 151 0 b 126 28 132 0 126 7 l 126 958 b 151 986 126 979 132 986 l 210 986 b 236 972 224 986 231 981 l 617 351 b 726 138 663 275 692 207 l 732 138 b 715 400 722 221 715 301 l 715 960 b 742 986 715 979 722 986 l 788 986 b 814 958 807 986 814 979 l 814 28 b 788 0 814 7 807 0 l 732 0 b 704 15 718 0 711 3 l 315 649 b 217 849 275 718 244 789 l 211 849 b 225 603 217 776 225 692 l 225 28 b 199 0 225 7 218 0 l 151 0 "},"Ò":{"ha":901,"x_min":0,"x_max":0,"o":"m 322 1200 b 319 1229 306 1207 306 1214 l 340 1254 b 388 1256 354 1271 371 1267 l 579 1118 b 582 1089 593 1111 593 1103 l 569 1074 b 536 1072 563 1064 553 1065 m 451 -19 b 96 329 221 -19 96 114 l 96 657 b 451 1006 96 872 221 1006 b 804 657 681 1006 804 872 l 804 329 b 451 -19 804 114 681 -19 m 451 75 b 703 329 615 75 703 169 l 703 657 b 451 911 703 817 615 911 b 199 657 286 911 199 817 l 199 329 b 451 75 199 169 286 75 "},"Ó":{"ha":901,"x_min":0,"x_max":0,"o":"m 365 1074 b 332 1074 350 1065 340 1065 l 321 1089 b 324 1119 308 1103 310 1111 l 515 1257 b 561 1256 531 1267 547 1271 l 583 1231 b 579 1200 596 1215 596 1207 l 365 1074 m 451 -19 b 96 329 221 -19 96 114 l 96 657 b 451 1006 96 872 221 1006 b 804 657 681 1006 804 872 l 804 329 b 451 -19 804 114 681 -19 m 451 75 b 703 329 615 75 703 169 l 703 657 b 451 911 703 817 615 911 b 199 657 286 911 199 817 l 199 329 b 451 75 199 169 286 75 "},"Ô":{"ha":901,"x_min":0,"x_max":0,"o":"m 258 1068 b 246 1089 236 1068 235 1078 l 397 1239 b 449 1261 419 1260 424 1261 l 458 1261 b 506 1239 478 1261 485 1261 l 657 1089 b 644 1068 668 1078 667 1068 l 607 1068 b 565 1083 586 1068 578 1069 l 451 1197 l 333 1083 b 294 1068 321 1069 315 1068 l 258 1068 m 451 -19 b 96 329 221 -19 96 114 l 96 657 b 451 1006 96 872 221 1006 b 804 657 681 1006 804 872 l 804 329 b 451 -19 804 114 681 -19 m 451 75 b 703 329 615 75 703 169 l 703 657 b 451 911 703 817 615 911 b 199 657 286 911 199 817 l 199 329 b 451 75 199 169 286 75 "},"Õ":{"ha":901,"x_min":0,"x_max":0,"o":"m 267 1085 b 251 1101 256 1085 251 1090 b 353 1240 251 1196 289 1240 b 535 1147 444 1240 469 1147 b 585 1224 568 1147 585 1178 b 600 1240 585 1236 588 1240 l 628 1240 b 644 1224 640 1240 644 1236 b 542 1085 644 1131 611 1085 b 361 1178 454 1085 429 1178 b 311 1101 331 1178 311 1149 b 296 1085 311 1090 307 1085 l 267 1085 m 451 -19 b 96 329 221 -19 96 114 l 96 657 b 451 1006 96 872 221 1006 b 804 657 681 1006 804 872 l 804 329 b 451 -19 804 114 681 -19 m 451 75 b 703 329 615 75 703 169 l 703 657 b 451 911 703 817 615 911 b 199 657 286 911 199 817 l 199 329 b 451 75 199 169 286 75 "},"Ö":{"ha":901,"x_min":0,"x_max":0,"o":"m 319 1114 b 275 1158 285 1114 275 1124 l 275 1169 b 319 1215 275 1203 285 1215 l 329 1215 b 375 1169 365 1215 375 1203 l 375 1158 b 329 1114 375 1124 365 1114 l 319 1114 m 575 1114 b 528 1158 539 1114 528 1124 l 528 1169 b 575 1215 528 1203 539 1215 l 583 1215 b 629 1169 617 1215 629 1203 l 629 1158 b 583 1114 629 1124 617 1114 l 575 1114 m 451 -19 b 96 329 221 -19 96 114 l 96 657 b 451 1006 96 872 221 1006 b 804 657 681 1006 804 872 l 804 329 b 451 -19 804 114 681 -19 m 451 75 b 703 329 615 75 703 169 l 703 657 b 451 911 703 817 615 911 b 199 657 286 911 199 817 l 199 329 b 451 75 199 169 286 75 "},"×":{"ha":721,"x_min":0,"x_max":0,"o":"m 360 390 l 165 190 b 131 190 153 175 144 176 l 107 213 b 107 250 93 225 93 236 l 304 450 l 108 651 b 108 690 94 667 94 676 l 131 713 b 165 713 144 726 153 726 l 360 511 l 554 713 b 590 713 568 728 576 726 l 613 689 b 613 651 626 675 626 665 l 415 450 l 613 250 b 613 211 626 235 628 225 l 590 189 b 554 189 576 175 568 175 "},"Ø":{"ha":901,"x_min":0,"x_max":0,"o":"m 103 -58 b 97 -47 94 -58 94 -54 l 175 86 b 96 329 124 147 96 229 l 96 657 b 451 1006 96 872 221 1006 b 674 942 543 1006 618 983 l 728 1033 b 746 1043 732 1042 736 1043 l 800 1043 b 807 1033 808 1043 810 1039 l 728 897 b 804 657 778 838 804 757 l 804 329 b 451 -19 804 114 681 -19 b 229 42 360 -19 285 3 l 178 -47 b 157 -58 172 -57 171 -58 l 103 -58 m 624 856 b 451 911 582 892 525 911 b 199 657 286 911 199 817 l 199 340 b 240 199 199 282 213 235 m 451 75 b 703 329 615 75 703 169 l 703 657 b 665 789 703 710 690 756 l 279 128 b 451 75 321 93 379 75 "},"Ù":{"ha":928,"x_min":0,"x_max":0,"o":"m 335 1186 b 332 1215 318 1193 318 1200 l 353 1240 b 400 1242 367 1257 383 1253 l 592 1104 b 594 1075 606 1097 606 1089 l 582 1060 b 549 1058 575 1050 565 1051 m 464 -19 b 118 336 233 -19 118 119 l 118 960 b 144 986 118 981 124 986 l 194 986 b 219 960 214 986 219 981 l 219 336 b 464 75 219 175 299 75 b 707 336 629 75 707 175 l 707 960 b 733 986 707 981 714 986 l 783 986 b 810 960 803 986 810 981 l 810 336 b 464 -19 810 119 694 -19 "},"Ú":{"ha":928,"x_min":0,"x_max":0,"o":"m 378 1060 b 344 1060 363 1051 353 1051 l 333 1075 b 336 1106 321 1089 322 1097 l 528 1243 b 574 1242 543 1253 560 1257 l 596 1217 b 592 1186 608 1201 608 1193 l 378 1060 m 464 -19 b 118 336 233 -19 118 119 l 118 960 b 144 986 118 981 124 986 l 194 986 b 219 960 214 986 219 981 l 219 336 b 464 75 219 175 299 75 b 707 336 629 75 707 175 l 707 960 b 733 986 707 981 714 986 l 783 986 b 810 960 803 986 810 981 l 810 336 b 464 -19 810 119 694 -19 "},"Û":{"ha":928,"x_min":0,"x_max":0,"o":"m 271 1054 b 258 1075 249 1054 247 1064 l 410 1225 b 461 1247 432 1246 436 1247 l 471 1247 b 518 1225 490 1247 497 1247 l 669 1075 b 657 1054 681 1064 679 1054 l 619 1054 b 578 1069 599 1054 590 1056 l 464 1183 l 346 1069 b 307 1054 333 1056 328 1054 l 271 1054 m 464 -19 b 118 336 233 -19 118 119 l 118 960 b 144 986 118 981 124 986 l 194 986 b 219 960 214 986 219 981 l 219 336 b 464 75 219 175 299 75 b 707 336 629 75 707 175 l 707 960 b 733 986 707 981 714 986 l 783 986 b 810 960 803 986 810 981 l 810 336 b 464 -19 810 119 694 -19 "},"Ü":{"ha":928,"x_min":0,"x_max":0,"o":"m 332 1100 b 288 1144 297 1100 288 1110 l 288 1156 b 332 1201 288 1189 297 1201 l 342 1201 b 388 1156 378 1201 388 1189 l 388 1144 b 342 1100 388 1110 378 1100 l 332 1100 m 588 1100 b 540 1144 551 1100 540 1110 l 540 1156 b 588 1201 540 1189 551 1201 l 596 1201 b 642 1156 629 1201 642 1189 l 642 1144 b 596 1100 642 1110 629 1100 l 588 1100 m 464 -19 b 118 336 233 -19 118 119 l 118 960 b 144 986 118 981 124 986 l 194 986 b 219 960 214 986 219 981 l 219 336 b 464 75 219 175 299 75 b 707 336 629 75 707 175 l 707 960 b 733 986 707 981 714 986 l 783 986 b 810 960 803 986 810 981 l 810 336 b 464 -19 810 119 694 -19 "},"Ý":{"ha":851,"x_min":0,"x_max":0,"o":"m 343 1060 b 310 1060 328 1051 318 1051 l 299 1075 b 301 1106 286 1089 288 1097 l 493 1243 b 539 1242 508 1253 525 1257 l 561 1217 b 557 1186 574 1201 574 1193 l 343 1060 m 400 0 b 374 28 381 0 374 7 l 374 401 l 39 958 b 54 986 32 974 35 986 l 111 986 b 157 961 142 986 147 982 l 426 499 l 697 961 b 743 986 707 982 713 986 l 799 986 b 813 958 817 986 821 974 l 475 400 l 475 28 b 449 0 475 7 468 0 l 400 0 "},"Þ":{"ha":833,"x_min":0,"x_max":0,"o":"m 151 0 b 126 28 132 0 126 7 l 126 958 b 151 986 126 979 132 986 l 201 986 b 228 958 221 986 228 979 l 228 818 l 479 818 b 775 499 654 818 775 699 b 479 179 775 299 654 179 l 228 179 l 228 28 b 201 0 228 7 221 0 l 151 0 m 468 272 b 674 499 593 272 674 361 b 468 726 674 638 593 726 l 228 726 l 228 272 "},"ß":{"ha":743,"x_min":0,"x_max":0,"o":"m 135 0 b 111 28 117 0 111 7 l 111 744 b 375 1042 111 943 201 1042 b 636 763 554 1042 636 939 b 521 542 636 676 603 582 l 521 538 b 669 285 610 507 669 425 b 407 0 669 97 568 0 l 317 0 b 292 28 297 0 292 7 l 292 67 b 317 94 292 88 297 94 l 394 94 b 575 294 507 94 575 163 b 406 486 575 411 515 486 l 319 486 b 294 514 301 486 294 493 l 294 550 b 317 578 294 571 300 578 l 400 578 b 546 753 503 578 546 671 b 375 950 546 879 493 950 b 206 746 264 950 206 882 l 206 28 b 181 0 206 7 199 0 l 135 0 "},"à":{"ha":692,"x_min":0,"x_max":0,"o":"m 211 965 b 208 994 194 972 196 979 l 229 1019 b 276 1021 243 1036 260 1032 l 468 883 b 471 854 482 876 482 868 l 458 839 b 425 838 451 829 442 831 m 342 -19 b 69 197 151 -19 69 49 b 344 410 69 344 153 410 b 501 397 411 410 481 400 l 501 475 b 342 651 501 600 453 651 b 171 550 256 651 203 613 b 138 538 163 533 154 529 l 108 551 b 96 588 90 558 86 568 b 342 735 138 678 217 735 b 594 471 525 735 594 642 l 594 96 b 550 17 594 47 585 33 b 342 -19 504 -6 436 -19 m 336 58 b 478 82 399 58 446 67 b 501 121 497 90 501 96 l 501 322 b 339 333 476 325 406 333 b 164 197 218 333 164 290 b 336 58 164 103 217 58 "},"á":{"ha":692,"x_min":0,"x_max":0,"o":"m 253 839 b 221 839 238 831 228 831 l 208 854 b 211 885 197 869 197 876 l 403 1022 b 450 1021 419 1032 436 1038 l 471 996 b 467 965 483 981 483 972 l 253 839 m 342 -19 b 69 197 151 -19 69 49 b 344 410 69 344 153 410 b 501 397 411 410 481 400 l 501 475 b 342 651 501 600 453 651 b 171 550 256 651 203 613 b 138 538 163 533 154 529 l 108 551 b 96 588 90 558 86 568 b 342 735 138 678 217 735 b 594 471 525 735 594 642 l 594 96 b 550 17 594 47 585 33 b 342 -19 504 -6 436 -19 m 336 58 b 478 82 399 58 446 67 b 501 121 497 90 501 96 l 501 322 b 339 333 476 325 406 333 b 164 197 218 333 164 290 b 336 58 164 103 217 58 "},"â":{"ha":692,"x_min":0,"x_max":0,"o":"m 146 829 b 133 850 124 829 124 839 l 286 999 b 338 1022 308 1021 313 1022 l 347 1022 b 394 999 367 1022 372 1021 l 546 850 b 533 829 557 839 556 829 l 496 829 b 454 843 474 829 467 831 l 340 958 l 222 843 b 182 829 210 831 203 829 l 146 829 m 342 -19 b 69 197 151 -19 69 49 b 344 410 69 344 153 410 b 501 397 411 410 481 400 l 501 475 b 342 651 501 600 453 651 b 171 550 256 651 203 613 b 138 538 163 533 154 529 l 108 551 b 96 588 90 558 86 568 b 342 735 138 678 217 735 b 594 471 525 735 594 642 l 594 96 b 550 17 594 47 585 33 b 342 -19 504 -6 436 -19 m 336 58 b 478 82 399 58 446 67 b 501 121 497 90 501 96 l 501 322 b 339 333 476 325 406 333 b 164 197 218 333 164 290 b 336 58 164 103 217 58 "},"ã":{"ha":692,"x_min":0,"x_max":0,"o":"m 154 849 b 138 865 143 849 138 853 b 240 1004 138 960 176 1004 b 422 911 332 1004 357 911 b 472 988 456 911 472 940 b 488 1004 472 999 475 1004 l 515 1004 b 532 988 528 1004 532 999 b 429 849 532 894 499 849 b 249 942 342 849 317 942 b 199 865 218 942 199 913 b 182 849 199 853 194 849 l 154 849 m 342 -19 b 69 197 151 -19 69 49 b 344 410 69 344 153 410 b 501 397 411 410 481 400 l 501 475 b 342 651 501 600 453 651 b 171 550 256 651 203 613 b 138 538 163 533 154 529 l 108 551 b 96 588 90 558 86 568 b 342 735 138 678 217 735 b 594 471 525 735 594 642 l 594 96 b 550 17 594 47 585 33 b 342 -19 504 -6 436 -19 m 336 58 b 478 82 399 58 446 67 b 501 121 497 90 501 96 l 501 322 b 339 333 476 325 406 333 b 164 197 218 333 164 290 b 336 58 164 103 217 58 "},"ä":{"ha":692,"x_min":0,"x_max":0,"o":"m 207 874 b 158 922 171 874 158 883 l 158 931 b 207 979 158 967 171 979 l 215 979 b 264 931 251 979 264 967 l 264 922 b 215 874 264 886 251 874 l 207 874 m 464 874 b 415 922 428 874 415 883 l 415 931 b 464 979 415 967 426 979 l 471 979 b 519 931 508 979 519 967 l 519 922 b 471 874 519 886 508 874 l 464 874 m 342 -19 b 69 197 151 -19 69 49 b 344 410 69 344 153 410 b 501 397 411 410 481 400 l 501 475 b 342 651 501 600 453 651 b 171 550 256 651 203 613 b 138 538 163 533 154 529 l 108 551 b 96 588 90 558 86 568 b 342 735 138 678 217 735 b 594 471 525 735 594 642 l 594 96 b 550 17 594 47 585 33 b 342 -19 504 -6 436 -19 m 336 58 b 478 82 399 58 446 67 b 501 121 497 90 501 96 l 501 322 b 339 333 476 325 406 333 b 164 197 218 333 164 290 b 336 58 164 103 217 58 "},"å":{"ha":692,"x_min":0,"x_max":0,"o":"m 340 793 b 206 928 261 793 206 849 b 340 1064 206 1008 261 1064 b 471 928 418 1064 471 1008 b 340 793 471 849 418 793 m 340 843 b 421 928 388 843 421 876 b 340 1014 421 979 388 1014 b 257 928 290 1014 257 979 b 340 843 257 876 290 843 m 342 -19 b 69 197 151 -19 69 49 b 344 410 69 344 153 410 b 501 397 411 410 481 400 l 501 475 b 342 651 501 600 453 651 b 171 550 256 651 203 613 b 138 538 163 533 154 529 l 108 551 b 96 588 90 558 86 568 b 342 735 138 678 217 735 b 594 471 525 735 594 642 l 594 96 b 550 17 594 47 585 33 b 342 -19 504 -6 436 -19 m 336 58 b 478 82 399 58 446 67 b 501 121 497 90 501 96 l 501 322 b 339 333 476 325 406 333 b 164 197 218 333 164 290 b 336 58 164 103 217 58 "},"æ":{"ha":1053,"x_min":0,"x_max":0,"o":"m 329 -19 b 69 194 143 -19 69 42 b 335 410 69 347 146 410 b 472 396 392 410 449 400 l 472 472 b 328 650 472 572 451 650 b 167 553 253 650 200 617 b 135 542 158 538 153 533 l 106 553 b 93 589 88 560 82 569 b 331 735 138 681 211 735 b 522 611 444 735 494 683 b 725 735 557 692 624 735 b 979 450 911 735 979 615 l 979 371 b 939 331 979 347 968 331 l 561 331 l 561 250 b 721 63 561 132 607 63 b 890 174 817 63 854 104 b 929 183 903 192 910 194 l 954 169 b 964 131 972 158 974 147 b 721 -19 918 42 863 -19 b 543 63 632 -19 574 11 b 329 -19 508 21 453 -19 m 889 406 l 889 456 b 725 654 889 579 843 654 b 561 456 606 654 561 579 l 561 406 m 324 58 b 481 135 438 58 469 114 b 472 226 475 163 472 193 l 472 318 b 326 331 447 322 382 331 b 163 194 203 331 163 288 b 324 58 163 101 201 58 "},"ç":{"ha":696,"x_min":0,"x_max":0,"o":"m 344 -339 b 247 -314 308 -339 269 -326 b 232 -286 236 -307 232 -301 l 232 -260 b 246 -250 232 -250 236 -243 b 332 -282 267 -267 288 -282 b 429 -208 394 -282 429 -258 b 349 -149 429 -168 403 -149 b 307 -156 332 -149 319 -151 b 292 -132 292 -157 286 -147 l 331 -19 b 85 251 167 -10 85 90 l 85 463 b 363 735 85 632 176 735 b 624 547 515 735 592 661 b 608 511 631 526 625 517 l 572 499 b 539 517 553 493 544 497 b 360 650 513 607 464 650 b 179 464 239 650 179 581 l 179 251 b 358 64 179 135 240 64 b 538 203 460 64 508 110 b 571 219 544 222 551 225 l 611 208 b 626 172 629 203 635 192 b 390 -18 586 54 519 -8 l 364 -103 b 390 -100 372 -100 381 -100 b 507 -212 465 -100 510 -146 b 344 -339 501 -307 428 -339 "},"è":{"ha":711,"x_min":0,"x_max":0,"o":"m 233 967 b 231 996 217 974 218 981 l 251 1021 b 299 1022 265 1038 282 1033 l 490 885 b 493 856 504 878 504 869 l 481 840 b 447 839 474 831 464 832 m 356 -19 b 83 263 168 -19 83 94 l 83 442 b 361 735 83 625 179 735 b 636 447 547 735 636 614 l 636 371 b 597 331 636 347 625 331 l 176 331 l 176 251 b 357 63 176 135 236 63 b 543 176 458 63 510 107 b 579 188 553 194 561 197 l 610 169 b 619 131 625 161 631 147 b 356 -19 576 43 496 -19 m 543 406 l 543 453 b 361 654 543 576 485 654 b 176 453 238 654 176 576 l 176 406 "},"é":{"ha":711,"x_min":0,"x_max":0,"o":"m 275 840 b 243 840 260 832 250 832 l 231 856 b 233 886 219 871 219 878 l 425 1024 b 472 1022 442 1033 458 1039 l 493 997 b 489 967 506 982 506 974 l 275 840 m 356 -19 b 83 263 168 -19 83 94 l 83 442 b 361 735 83 625 179 735 b 636 447 547 735 636 614 l 636 371 b 597 331 636 347 625 331 l 176 331 l 176 251 b 357 63 176 135 236 63 b 543 176 458 63 510 107 b 579 188 553 194 561 197 l 610 169 b 619 131 625 161 631 147 b 356 -19 576 43 496 -19 m 543 406 l 543 453 b 361 654 543 576 485 654 b 176 453 238 654 176 576 l 176 406 "},"ê":{"ha":711,"x_min":0,"x_max":0,"o":"m 168 831 b 156 851 146 831 146 840 l 308 1000 b 360 1024 331 1022 335 1024 l 369 1024 b 417 1000 389 1024 394 1022 l 568 851 b 556 831 579 840 578 831 l 518 831 b 476 844 496 831 489 832 l 363 960 l 244 844 b 204 831 232 832 225 831 l 168 831 m 356 -19 b 83 263 168 -19 83 94 l 83 442 b 361 735 83 625 179 735 b 636 447 547 735 636 614 l 636 371 b 597 331 636 347 625 331 l 176 331 l 176 251 b 357 63 176 135 236 63 b 543 176 458 63 510 107 b 579 188 553 194 561 197 l 610 169 b 619 131 625 161 631 147 b 356 -19 576 43 496 -19 m 543 406 l 543 453 b 361 654 543 576 485 654 b 176 453 238 654 176 576 l 176 406 "},"ë":{"ha":711,"x_min":0,"x_max":0,"o":"m 229 875 b 181 924 193 875 181 885 l 181 932 b 229 981 181 968 193 981 l 238 981 b 286 932 274 981 286 968 l 286 924 b 238 875 286 888 274 875 l 229 875 m 486 875 b 438 924 450 875 438 885 l 438 932 b 486 981 438 968 449 981 l 493 981 b 542 932 531 981 542 968 l 542 924 b 493 875 542 888 531 875 l 486 875 m 356 -19 b 83 263 168 -19 83 94 l 83 442 b 361 735 83 625 179 735 b 636 447 547 735 636 614 l 636 371 b 597 331 636 347 625 331 l 176 331 l 176 251 b 357 63 176 135 236 63 b 543 176 458 63 510 107 b 579 188 553 194 561 197 l 610 169 b 619 131 625 161 631 147 b 356 -19 576 43 496 -19 m 543 406 l 543 453 b 361 654 543 576 485 654 b 176 453 238 654 176 576 l 176 406 "},"ì":{"ha":314,"x_min":0,"x_max":0,"o":"m 29 965 b 26 994 13 972 14 979 l 47 1019 b 94 1021 61 1036 78 1032 l 286 883 b 289 854 300 876 300 868 l 276 839 b 243 838 269 829 260 831 m 135 0 b 110 25 117 0 110 7 l 110 689 b 135 714 110 708 117 714 l 179 714 b 204 689 199 714 204 708 l 204 25 b 179 0 204 7 199 0 l 135 0 "},"í":{"ha":314,"x_min":0,"x_max":0,"o":"m 71 839 b 39 839 56 831 46 831 l 26 854 b 29 885 15 869 15 876 l 221 1022 b 268 1021 238 1032 254 1038 l 289 996 b 285 965 301 981 301 972 l 71 839 m 135 0 b 110 25 117 0 110 7 l 110 689 b 135 714 110 708 117 714 l 179 714 b 204 689 199 714 204 708 l 204 25 b 179 0 204 7 199 0 l 135 0 "},"î":{"ha":314,"x_min":0,"x_max":0,"o":"m 4 828 b -10 847 -17 828 -18 838 l 104 988 b 153 1010 122 1011 129 1010 l 163 1010 b 210 988 183 1010 190 1011 l 321 847 b 308 828 331 838 329 828 l 275 828 b 233 842 253 828 242 828 l 156 949 l 76 842 b 38 828 67 826 57 828 l 4 828 m 135 0 b 110 25 117 0 110 7 l 110 689 b 135 714 110 708 117 714 l 179 714 b 204 689 199 714 204 708 l 204 25 b 179 0 204 7 199 0 l 135 0 "},"ï":{"ha":314,"x_min":0,"x_max":0,"o":"m 54 853 b 8 899 19 853 8 864 l 8 910 b 54 954 8 943 19 954 l 63 954 b 108 910 99 954 108 943 l 108 899 b 63 853 108 864 99 853 l 54 853 m 250 853 b 203 899 214 853 203 864 l 203 910 b 250 954 203 943 214 954 l 258 954 b 304 910 293 954 304 943 l 304 899 b 258 853 304 864 293 853 l 250 853 m 135 0 b 110 25 117 0 110 7 l 110 689 b 135 714 110 708 117 714 l 179 714 b 204 689 199 714 204 708 l 204 25 b 179 0 204 7 199 0 l 135 0 "},"ð":{"ha":740,"x_min":0,"x_max":0,"o":"m 365 -19 b 86 249 181 -19 86 82 l 86 439 b 350 706 86 607 183 706 b 554 601 451 706 521 665 b 469 863 550 721 525 807 l 383 771 b 364 769 375 763 372 763 l 343 788 b 342 808 335 794 335 799 l 421 894 b 206 943 372 926 307 943 b 181 968 186 943 181 949 l 181 1004 b 204 1031 181 1024 186 1031 b 483 967 325 1031 417 1008 l 549 1038 b 568 1038 556 1046 560 1046 l 590 1019 b 592 997 600 1011 599 1007 l 531 932 b 644 558 611 856 644 731 l 644 249 b 365 -19 644 82 549 -19 m 365 67 b 550 250 488 67 550 135 l 550 436 b 365 619 550 553 488 619 b 181 435 242 619 181 551 l 181 250 b 365 67 181 135 242 67 "},"ñ":{"ha":742,"x_min":0,"x_max":0,"o":"m 185 850 b 168 867 174 850 168 854 b 271 1006 168 961 207 1006 b 453 913 363 1006 388 913 b 503 989 486 913 503 942 b 518 1006 503 1000 506 1006 l 546 1006 b 563 989 558 1006 563 1000 b 460 850 563 896 529 850 b 279 943 372 850 347 943 b 229 867 249 943 229 914 b 213 850 229 854 225 850 l 185 850 m 131 0 b 107 25 114 0 107 7 l 107 611 b 154 689 107 654 117 671 b 389 735 203 710 275 735 b 639 463 563 735 639 633 l 639 25 b 615 0 639 7 633 0 l 568 0 b 544 25 550 0 544 7 l 544 460 b 376 649 544 583 489 649 b 222 617 313 649 254 633 b 201 583 204 608 201 599 l 201 25 b 178 0 201 7 196 0 l 131 0 "},"ò":{"ha":729,"x_min":0,"x_max":0,"o":"m 236 965 b 233 994 219 972 221 979 l 254 1019 b 301 1021 268 1036 285 1032 l 493 883 b 496 854 507 876 507 868 l 483 839 b 450 838 476 829 467 831 m 364 -19 b 88 235 192 -19 88 76 l 88 479 b 364 735 88 638 192 735 b 643 479 539 735 643 638 l 643 235 b 364 -19 643 76 539 -19 m 364 65 b 549 235 476 65 549 129 l 549 479 b 364 649 549 585 476 649 b 182 479 254 649 182 585 l 182 235 b 364 65 182 129 254 65 "},"ó":{"ha":729,"x_min":0,"x_max":0,"o":"m 278 839 b 246 839 263 831 253 831 l 233 854 b 236 885 222 869 222 876 l 428 1022 b 475 1021 444 1032 461 1038 l 496 996 b 492 965 508 981 508 972 l 278 839 m 364 -19 b 88 235 192 -19 88 76 l 88 479 b 364 735 88 638 192 735 b 643 479 539 735 643 638 l 643 235 b 364 -19 643 76 539 -19 m 364 65 b 549 235 476 65 549 129 l 549 479 b 364 649 549 585 476 649 b 182 479 254 649 182 585 l 182 235 b 364 65 182 129 254 65 "},"ô":{"ha":729,"x_min":0,"x_max":0,"o":"m 171 829 b 158 850 149 829 149 839 l 311 999 b 363 1022 333 1021 338 1022 l 372 1022 b 419 999 392 1022 397 1021 l 571 850 b 558 829 582 839 581 829 l 521 829 b 479 843 499 829 492 831 l 365 958 l 247 843 b 207 829 235 831 228 829 l 171 829 m 364 -19 b 88 235 192 -19 88 76 l 88 479 b 364 735 88 638 192 735 b 643 479 539 735 643 638 l 643 235 b 364 -19 643 76 539 -19 m 364 65 b 549 235 476 65 549 129 l 549 479 b 364 649 549 585 476 649 b 182 479 254 649 182 585 l 182 235 b 364 65 182 129 254 65 "},"õ":{"ha":729,"x_min":0,"x_max":0,"o":"m 179 849 b 163 865 168 849 163 853 b 265 1004 163 960 201 1004 b 447 911 357 1004 382 911 b 497 988 481 911 497 940 b 513 1004 497 999 500 1004 l 540 1004 b 557 988 553 1004 557 999 b 454 849 557 894 524 849 b 274 942 367 849 342 942 b 224 865 243 942 224 913 b 207 849 224 853 219 849 l 179 849 m 364 -19 b 88 235 192 -19 88 76 l 88 479 b 364 735 88 638 192 735 b 643 479 539 735 643 638 l 643 235 b 364 -19 643 76 539 -19 m 364 65 b 549 235 476 65 549 129 l 549 479 b 364 649 549 585 476 649 b 182 479 254 649 182 585 l 182 235 b 364 65 182 129 254 65 "},"ö":{"ha":729,"x_min":0,"x_max":0,"o":"m 232 874 b 183 922 196 874 183 883 l 183 931 b 232 979 183 967 196 979 l 240 979 b 289 931 276 979 289 967 l 289 922 b 240 874 289 886 276 874 l 232 874 m 489 874 b 440 922 453 874 440 883 l 440 931 b 489 979 440 967 451 979 l 496 979 b 544 931 533 979 544 967 l 544 922 b 496 874 544 886 533 874 l 489 874 m 364 -19 b 88 235 192 -19 88 76 l 88 479 b 364 735 88 638 192 735 b 643 479 539 735 643 638 l 643 235 b 364 -19 643 76 539 -19 m 364 65 b 549 235 476 65 549 129 l 549 479 b 364 649 549 585 476 649 b 182 479 254 649 182 585 l 182 235 b 364 65 182 129 254 65 "},"÷":{"ha":814,"x_min":0,"x_max":0,"o":"m 403 663 b 347 718 361 663 347 675 l 347 728 b 403 783 347 769 361 783 l 411 783 b 467 728 453 783 467 769 l 467 718 b 411 663 467 676 453 663 l 403 663 m 119 406 b 92 433 99 406 92 413 l 92 469 b 119 497 92 490 99 497 l 693 497 b 721 469 714 497 721 490 l 721 433 b 693 406 721 413 714 406 l 119 406 m 403 121 b 347 176 361 121 347 133 l 347 186 b 403 242 347 228 361 242 l 411 242 b 467 186 453 242 467 228 l 467 176 b 411 121 467 135 453 121 l 403 121 "},"ø":{"ha":729,"x_min":0,"x_max":0,"o":"m 106 -50 b 101 -39 99 -50 99 -43 l 156 53 b 88 235 111 97 88 158 l 88 479 b 364 735 88 638 192 735 b 533 692 432 735 489 719 l 572 757 b 590 765 576 764 581 765 l 631 765 b 635 756 638 765 638 761 l 578 658 b 643 479 619 614 643 553 l 643 235 b 364 -19 643 76 539 -19 b 201 21 299 -19 243 -6 l 164 -42 b 144 -50 158 -49 157 -50 l 106 -50 m 488 613 b 364 649 457 636 414 649 b 182 479 254 649 182 585 l 182 250 b 214 154 182 211 193 179 m 364 65 b 549 235 476 65 549 129 l 549 460 b 517 556 549 497 538 531 l 246 99 b 364 65 276 78 318 65 "},"ù":{"ha":742,"x_min":0,"x_max":0,"o":"m 242 965 b 239 994 225 972 226 979 l 260 1019 b 307 1021 274 1036 290 1032 l 499 883 b 501 854 513 876 513 868 l 489 839 b 456 838 482 829 472 831 m 353 -19 b 104 251 181 -19 104 81 l 104 689 b 126 714 104 708 110 714 l 175 714 b 199 689 192 714 199 708 l 199 256 b 365 67 199 131 247 67 b 519 96 433 67 486 79 b 542 135 539 106 542 117 l 542 689 b 564 714 542 708 547 714 l 613 714 b 636 689 629 714 636 708 l 636 103 b 588 25 636 60 626 43 b 353 -19 540 4 471 -19 "},"ú":{"ha":742,"x_min":0,"x_max":0,"o":"m 283 839 b 251 839 268 831 258 831 l 239 854 b 242 885 228 869 228 876 l 433 1022 b 481 1021 450 1032 467 1038 l 501 996 b 497 965 514 981 514 972 l 283 839 m 353 -19 b 104 251 181 -19 104 81 l 104 689 b 126 714 104 708 110 714 l 175 714 b 199 689 192 714 199 708 l 199 256 b 365 67 199 131 247 67 b 519 96 433 67 486 79 b 542 135 539 106 542 117 l 542 689 b 564 714 542 708 547 714 l 613 714 b 636 689 629 714 636 708 l 636 103 b 588 25 636 60 626 43 b 353 -19 540 4 471 -19 "},"û":{"ha":742,"x_min":0,"x_max":0,"o":"m 176 829 b 164 850 154 829 154 839 l 317 999 b 368 1022 339 1021 343 1022 l 378 1022 b 425 999 397 1022 403 1021 l 576 850 b 564 829 588 839 586 829 l 526 829 b 485 843 504 829 497 831 l 371 958 l 253 843 b 213 829 240 831 233 829 l 176 829 m 353 -19 b 104 251 181 -19 104 81 l 104 689 b 126 714 104 708 110 714 l 175 714 b 199 689 192 714 199 708 l 199 256 b 365 67 199 131 247 67 b 519 96 433 67 486 79 b 542 135 539 106 542 117 l 542 689 b 564 714 542 708 547 714 l 613 714 b 636 689 629 714 636 708 l 636 103 b 588 25 636 60 626 43 b 353 -19 540 4 471 -19 "},"ü":{"ha":742,"x_min":0,"x_max":0,"o":"m 238 874 b 189 922 201 874 189 883 l 189 931 b 238 979 189 967 201 979 l 246 979 b 294 931 282 979 294 967 l 294 922 b 246 874 294 886 282 874 l 238 874 m 494 874 b 446 922 458 874 446 883 l 446 931 b 494 979 446 967 457 979 l 501 979 b 550 931 539 979 550 967 l 550 922 b 501 874 550 886 539 874 l 494 874 m 353 -19 b 104 251 181 -19 104 81 l 104 689 b 126 714 104 708 110 714 l 175 714 b 199 689 192 714 199 708 l 199 256 b 365 67 199 131 247 67 b 519 96 433 67 486 79 b 542 135 539 106 542 117 l 542 689 b 564 714 542 708 547 714 l 613 714 b 636 689 629 714 636 708 l 636 103 b 588 25 636 60 626 43 b 353 -19 540 4 471 -19 "},"ý":{"ha":746,"x_min":0,"x_max":0,"o":"m 282 839 b 250 839 267 831 257 831 l 238 854 b 240 885 226 869 226 876 l 432 1022 b 479 1021 449 1032 465 1038 l 500 996 b 496 965 513 981 513 972 l 282 839 m 367 -343 b 118 -194 233 -343 161 -285 b 128 -154 108 -176 110 -164 l 161 -137 b 197 -149 179 -128 188 -132 b 365 -258 228 -215 278 -258 b 542 -50 490 -258 542 -182 l 542 35 b 353 -1 503 21 446 -1 b 104 271 181 -1 104 100 l 104 689 b 126 714 104 708 110 714 l 175 714 b 199 689 192 714 199 708 l 199 274 b 365 85 199 150 247 85 b 542 122 449 85 507 107 l 542 689 b 564 714 542 708 547 714 l 613 714 b 636 689 629 714 636 708 l 636 -42 b 367 -343 636 -224 560 -343 "},"þ":{"ha":728,"x_min":0,"x_max":0,"o":"m 132 -306 b 110 -281 115 -306 110 -299 l 110 1003 b 132 1028 110 1021 115 1028 l 181 1028 b 204 1003 199 1028 204 1021 l 204 696 b 379 735 232 708 297 735 b 642 456 558 735 642 633 l 642 257 b 386 -19 642 81 560 -19 b 204 28 304 -19 232 14 l 204 -281 b 181 -306 204 -299 199 -306 l 132 -306 m 379 67 b 547 260 497 67 547 133 l 547 453 b 369 649 547 581 490 649 b 204 606 292 649 229 618 l 204 114 b 379 67 228 100 300 67 "},"ÿ":{"ha":746,"x_min":0,"x_max":0,"o":"m 236 874 b 188 922 200 874 188 883 l 188 931 b 236 979 188 967 200 979 l 244 979 b 293 931 281 979 293 967 l 293 922 b 244 874 293 886 281 874 l 236 874 m 493 874 b 444 922 457 874 444 883 l 444 931 b 493 979 444 967 456 979 l 500 979 b 549 931 538 979 549 967 l 549 922 b 500 874 549 886 538 874 l 493 874 m 367 -343 b 118 -194 233 -343 161 -285 b 128 -154 108 -176 110 -164 l 161 -137 b 197 -149 179 -128 188 -132 b 365 -258 228 -215 278 -258 b 542 -50 490 -258 542 -182 l 542 35 b 353 -1 503 21 446 -1 b 104 271 181 -1 104 100 l 104 689 b 126 714 104 708 110 714 l 175 714 b 199 689 192 714 199 708 l 199 274 b 365 85 199 150 247 85 b 542 122 449 85 507 107 l 542 689 b 564 714 542 708 547 714 l 613 714 b 636 689 629 714 636 708 l 636 -42 b 367 -343 636 -224 560 -343 "},"Ā":{"ha":871,"x_min":0,"x_max":0,"o":"m 279 1111 b 256 1135 260 1111 256 1115 l 256 1157 b 279 1181 256 1175 263 1181 l 590 1181 b 615 1157 610 1181 615 1175 l 615 1135 b 590 1111 615 1115 610 1111 l 279 1111 m 53 0 b 33 26 32 0 28 10 l 376 967 b 410 990 382 986 390 990 l 461 990 b 494 968 479 990 488 986 l 836 26 b 817 0 842 10 838 0 l 769 0 b 725 25 740 0 731 6 l 633 286 l 233 286 l 142 25 b 97 0 135 6 126 0 l 53 0 m 603 374 l 456 796 b 436 889 446 831 438 868 l 431 889 b 411 796 428 867 421 831 l 264 374 "},"ā":{"ha":692,"x_min":0,"x_max":0,"o":"m 183 886 b 160 910 164 886 160 890 l 160 931 b 183 956 160 950 167 956 l 494 956 b 519 931 514 956 519 950 l 519 910 b 494 886 519 890 514 886 l 183 886 m 342 -19 b 69 197 151 -19 69 49 b 344 410 69 344 153 410 b 501 397 411 410 481 400 l 501 475 b 342 651 501 600 453 651 b 171 550 256 651 203 613 b 138 538 163 533 154 529 l 108 551 b 96 588 90 558 86 568 b 342 735 138 678 217 735 b 594 471 525 735 594 642 l 594 96 b 550 17 594 47 585 33 b 342 -19 504 -6 436 -19 m 336 58 b 478 82 399 58 446 67 b 501 121 497 90 501 96 l 501 322 b 339 333 476 325 406 333 b 164 197 218 333 164 290 b 336 58 164 103 217 58 "},"Ă":{"ha":871,"x_min":0,"x_max":0,"o":"m 435 1058 b 240 1208 335 1058 274 1110 b 251 1233 236 1222 239 1228 l 285 1244 b 310 1235 299 1249 306 1247 b 435 1129 333 1165 369 1129 b 560 1235 499 1129 533 1161 b 581 1246 564 1247 569 1249 l 618 1233 b 631 1208 632 1228 635 1222 b 435 1058 596 1110 536 1058 m 53 0 b 33 26 32 0 28 10 l 376 967 b 410 990 382 986 390 990 l 461 990 b 494 968 479 990 488 986 l 836 26 b 817 0 842 10 838 0 l 769 0 b 725 25 740 0 731 6 l 633 286 l 233 286 l 142 25 b 97 0 135 6 126 0 l 53 0 m 603 374 l 456 796 b 436 889 446 831 438 868 l 431 889 b 411 796 428 867 421 831 l 264 374 "},"ă":{"ha":692,"x_min":0,"x_max":0,"o":"m 340 833 b 146 985 240 833 175 883 b 157 1008 140 999 144 1004 l 190 1021 b 215 1010 204 1025 211 1022 b 340 904 235 939 275 904 b 464 1010 404 904 444 939 b 486 1021 469 1022 475 1025 l 524 1008 b 535 985 536 1003 540 999 b 340 833 506 883 440 833 m 342 -19 b 69 197 151 -19 69 49 b 344 410 69 344 153 410 b 501 397 411 410 481 400 l 501 475 b 342 651 501 600 453 651 b 171 550 256 651 203 613 b 138 538 163 533 154 529 l 108 551 b 96 588 90 558 86 568 b 342 735 138 678 217 735 b 594 471 525 735 594 642 l 594 96 b 550 17 594 47 585 33 b 342 -19 504 -6 436 -19 m 336 58 b 478 82 399 58 446 67 b 501 121 497 90 501 96 l 501 322 b 339 333 476 325 406 333 b 164 197 218 333 164 290 b 336 58 164 103 217 58 "},"Ą":{"ha":871,"x_min":0,"x_max":0,"o":"m 735 -343 b 633 -271 688 -343 646 -324 b 757 3 613 -200 665 -96 b 725 25 736 4 729 10 l 633 286 l 233 286 l 142 25 b 97 0 135 6 126 0 l 53 0 b 33 26 32 0 28 10 l 376 967 b 410 990 382 986 390 990 l 461 990 b 494 968 479 990 488 986 l 836 26 b 835 4 839 17 838 10 b 714 -233 743 -99 699 -186 b 763 -271 722 -260 740 -271 b 822 -240 783 -271 806 -260 b 839 -244 829 -235 836 -236 l 851 -274 b 849 -293 856 -283 854 -287 b 735 -343 817 -326 779 -343 m 603 374 l 456 796 b 436 889 446 831 438 868 l 431 889 b 411 796 428 867 421 831 l 264 374 "},"ą":{"ha":692,"x_min":0,"x_max":0,"o":"m 488 -343 b 385 -271 440 -343 399 -325 b 492 1 365 -201 411 -101 b 342 -19 451 -12 404 -19 b 69 197 151 -19 69 47 b 346 410 69 344 154 410 b 501 397 413 410 481 400 l 501 475 b 342 651 501 600 453 651 b 171 550 256 651 203 613 b 138 538 163 533 156 529 l 108 551 b 96 588 90 558 86 568 b 342 735 138 678 217 735 b 594 471 525 735 594 642 l 594 96 b 579 35 594 64 589 49 b 467 -233 499 -75 449 -182 b 515 -271 475 -260 493 -271 b 575 -240 536 -271 557 -260 b 592 -244 582 -235 589 -236 l 604 -274 b 601 -293 608 -283 607 -287 b 488 -343 569 -326 531 -343 m 336 58 b 478 82 399 58 446 67 b 501 121 497 90 501 96 l 501 321 b 339 333 479 324 406 333 b 164 197 213 333 164 288 b 336 58 164 107 211 58 "},"Ć":{"ha":864,"x_min":0,"x_max":0,"o":"m 367 1060 b 333 1060 351 1051 342 1051 l 322 1075 b 325 1106 310 1089 311 1097 l 517 1243 b 563 1242 532 1253 549 1257 l 585 1217 b 581 1186 597 1201 597 1193 l 367 1060 m 450 -19 b 96 329 222 -19 96 114 l 96 657 b 450 1006 96 872 219 1006 b 792 768 646 1006 746 922 b 776 732 799 747 794 738 l 731 718 b 697 736 713 713 704 715 b 450 911 664 856 594 911 b 199 658 282 911 199 817 l 199 328 b 450 76 199 171 283 76 b 697 256 594 75 663 139 b 731 274 704 276 713 281 l 778 258 b 794 224 796 253 801 243 b 450 -19 746 68 649 -19 "},"ć":{"ha":696,"x_min":0,"x_max":0,"o":"m 275 839 b 243 839 260 831 250 831 l 231 854 b 233 885 219 869 219 876 l 425 1022 b 472 1021 442 1032 458 1038 l 493 996 b 489 965 506 981 506 972 l 275 839 m 356 -19 b 85 251 175 -19 85 81 l 85 463 b 363 735 85 632 176 735 b 624 547 515 735 592 661 b 608 511 631 526 625 517 l 572 499 b 539 517 553 493 544 497 b 360 650 513 607 464 650 b 179 464 239 650 179 581 l 179 251 b 358 64 179 135 240 64 b 538 203 460 64 508 110 b 571 219 544 222 551 225 l 611 208 b 626 172 629 203 635 192 b 356 -19 583 44 507 -19 "},"Ĉ":{"ha":864,"x_min":0,"x_max":0,"o":"m 260 1054 b 247 1075 238 1054 236 1064 l 399 1225 b 450 1247 421 1246 425 1247 l 460 1247 b 507 1225 479 1247 486 1247 l 658 1075 b 646 1054 669 1064 668 1054 l 608 1054 b 567 1069 588 1054 579 1056 l 453 1183 l 335 1069 b 296 1054 322 1056 317 1054 l 260 1054 m 450 -19 b 96 329 222 -19 96 114 l 96 657 b 450 1006 96 872 219 1006 b 792 768 646 1006 746 922 b 776 732 799 747 794 738 l 731 718 b 697 736 713 713 704 715 b 450 911 664 856 594 911 b 199 658 282 911 199 817 l 199 328 b 450 76 199 171 283 76 b 697 256 594 75 663 139 b 731 274 704 276 713 281 l 778 258 b 794 224 796 253 801 243 b 450 -19 746 68 649 -19 "},"ĉ":{"ha":696,"x_min":0,"x_max":0,"o":"m 168 829 b 156 850 146 829 146 839 l 308 999 b 360 1022 331 1021 335 1022 l 369 1022 b 417 999 389 1022 394 1021 l 568 850 b 556 829 579 839 578 829 l 518 829 b 476 843 496 829 489 831 l 363 958 l 244 843 b 204 829 232 831 225 829 l 168 829 m 356 -19 b 85 251 175 -19 85 81 l 85 463 b 363 735 85 632 176 735 b 624 547 515 735 592 661 b 608 511 631 526 625 517 l 572 499 b 539 517 553 493 544 497 b 360 650 513 607 464 650 b 179 464 239 650 179 581 l 179 251 b 358 64 179 135 240 64 b 538 203 460 64 508 110 b 571 219 544 222 551 225 l 611 208 b 626 172 629 203 635 192 b 356 -19 583 44 507 -19 "},"Ċ":{"ha":864,"x_min":0,"x_max":0,"o":"m 449 1094 b 401 1142 413 1094 401 1106 l 401 1150 b 449 1197 401 1186 413 1197 l 456 1197 b 503 1150 493 1197 503 1186 l 503 1142 b 456 1094 503 1106 493 1094 l 449 1094 m 450 -19 b 96 329 222 -19 96 114 l 96 657 b 450 1006 96 872 219 1006 b 792 768 646 1006 746 922 b 776 732 799 747 794 738 l 731 718 b 697 736 713 713 704 715 b 450 911 664 856 594 911 b 199 658 282 911 199 817 l 199 328 b 450 76 199 171 283 76 b 697 256 594 75 663 139 b 731 274 704 276 713 281 l 778 258 b 794 224 796 253 801 243 b 450 -19 746 68 649 -19 "},"ċ":{"ha":696,"x_min":0,"x_max":0,"o":"m 346 872 b 304 921 314 872 304 882 l 304 935 b 346 983 304 971 314 983 l 378 983 b 419 935 408 983 419 971 l 419 921 b 378 872 419 882 408 872 l 346 872 m 356 -19 b 85 251 175 -19 85 81 l 85 463 b 363 735 85 632 176 735 b 624 547 515 735 592 661 b 608 511 631 526 625 517 l 572 499 b 539 517 553 493 544 497 b 360 650 513 607 464 650 b 179 464 239 650 179 581 l 179 251 b 358 64 179 135 240 64 b 538 203 460 64 508 110 b 571 219 544 222 551 225 l 611 208 b 626 172 629 203 635 192 b 356 -19 583 44 507 -19 "},"Č":{"ha":864,"x_min":0,"x_max":0,"o":"m 447 1053 b 397 1076 422 1053 418 1054 l 244 1225 b 258 1246 235 1236 236 1246 l 293 1246 b 333 1232 314 1246 319 1246 l 450 1117 l 565 1232 b 606 1246 576 1244 585 1246 l 644 1246 b 657 1225 667 1246 668 1236 l 504 1076 b 457 1053 482 1054 478 1053 l 447 1053 m 450 -19 b 96 329 222 -19 96 114 l 96 657 b 450 1006 96 872 219 1006 b 792 768 646 1006 746 922 b 776 732 799 747 794 738 l 731 718 b 697 736 713 713 704 715 b 450 911 664 856 594 911 b 199 658 282 911 199 817 l 199 328 b 450 76 199 171 283 76 b 697 256 594 75 663 139 b 731 274 704 276 713 281 l 778 258 b 794 224 796 253 801 243 b 450 -19 746 68 649 -19 "},"č":{"ha":696,"x_min":0,"x_max":0,"o":"m 357 828 b 307 850 332 828 328 829 l 154 1000 b 168 1021 144 1011 146 1021 l 203 1021 b 243 1006 224 1021 229 1019 l 360 892 l 475 1006 b 517 1021 488 1018 494 1021 l 556 1021 b 567 1000 578 1021 578 1011 l 414 850 b 367 828 392 828 388 828 l 357 828 m 356 -19 b 85 251 175 -19 85 81 l 85 463 b 363 735 85 632 176 735 b 624 547 515 735 592 661 b 608 511 631 526 625 517 l 572 499 b 539 517 553 493 544 497 b 360 650 513 607 464 650 b 179 464 239 650 179 581 l 179 251 b 358 64 179 135 240 64 b 538 203 460 64 508 110 b 571 219 544 222 551 225 l 611 208 b 626 172 629 203 635 192 b 356 -19 583 44 507 -19 "},"Ď":{"ha":888,"x_min":0,"x_max":0,"o":"m 419 1053 b 369 1076 394 1053 390 1054 l 217 1225 b 231 1246 207 1236 208 1246 l 265 1246 b 306 1232 286 1246 292 1246 l 422 1117 l 538 1232 b 578 1246 549 1244 557 1246 l 617 1246 b 629 1225 639 1246 640 1236 l 476 1076 b 429 1053 454 1054 450 1053 l 419 1053 m 151 0 b 126 28 132 0 126 7 l 126 958 b 151 986 126 979 132 986 l 424 986 b 794 619 663 986 794 846 l 794 367 b 424 0 794 140 663 0 l 151 0 m 425 94 b 693 367 599 94 693 194 l 693 619 b 425 892 693 792 600 892 l 228 892 l 228 94 "},"ď":{"ha":832,"x_min":0,"x_max":0,"o":"m 363 -19 b 86 265 175 -19 86 81 l 86 463 b 347 735 86 638 174 735 b 529 692 432 735 499 706 l 529 1003 b 553 1028 529 1021 535 1028 l 600 1028 b 624 1003 618 1028 624 1021 l 624 99 b 575 22 624 53 615 42 b 363 -19 531 0 456 -19 m 756 707 b 739 725 740 707 738 711 l 792 1001 b 821 1028 794 1022 801 1028 l 857 1028 b 881 1001 879 1028 886 1019 l 808 731 b 781 707 803 714 799 707 l 756 707 m 365 67 b 506 93 422 67 475 79 b 529 129 526 103 529 108 l 529 604 b 358 647 503 618 439 647 b 181 460 240 647 181 583 l 181 267 b 365 67 181 133 238 67 "},"Đ":{"ha":885,"x_min":0,"x_max":0,"o":"m 149 0 b 124 28 129 0 124 7 l 124 461 l 42 461 b 24 479 28 461 24 464 l 24 515 b 42 535 24 531 28 535 l 124 535 l 124 958 b 149 986 124 979 129 986 l 421 986 b 792 619 660 986 792 846 l 792 367 b 421 0 792 140 660 0 l 149 0 m 424 94 b 690 367 597 94 690 194 l 690 619 b 424 892 690 792 597 892 l 225 892 l 225 535 l 426 535 b 444 515 440 535 444 531 l 444 479 b 426 461 444 464 440 461 l 225 461 l 225 94 "},"đ":{"ha":721,"x_min":0,"x_max":0,"o":"m 363 -19 b 86 265 175 -19 86 81 l 86 463 b 347 735 86 638 174 735 b 529 692 432 735 499 706 l 529 847 l 344 847 b 326 867 329 847 326 851 l 326 889 b 344 908 326 904 331 908 l 529 908 l 529 1003 b 553 1028 529 1021 535 1028 l 600 1028 b 624 1003 618 1028 624 1021 l 624 908 l 704 908 b 722 889 718 908 722 904 l 722 867 b 704 847 722 851 718 847 l 624 847 l 624 99 b 575 22 624 53 615 42 b 363 -19 531 0 456 -19 m 365 67 b 506 93 422 67 475 79 b 529 129 526 103 529 108 l 529 604 b 358 647 503 618 439 647 b 181 460 240 647 181 583 l 181 267 b 365 67 181 133 238 67 "},"Ē":{"ha":776,"x_min":0,"x_max":0,"o":"m 253 1111 b 229 1135 233 1111 229 1115 l 229 1157 b 253 1181 229 1175 236 1181 l 564 1181 b 589 1157 583 1181 589 1175 l 589 1135 b 564 1111 589 1115 583 1111 l 253 1111 m 151 0 b 126 28 132 0 126 7 l 126 958 b 151 986 126 979 132 986 l 664 986 b 690 958 683 986 690 979 l 690 918 b 664 892 690 899 683 892 l 228 892 l 228 547 l 607 547 b 632 519 626 547 632 540 l 632 479 b 607 453 632 460 626 453 l 228 453 l 228 94 l 681 94 b 706 68 700 94 706 88 l 706 28 b 681 0 706 7 700 0 l 151 0 "},"ē":{"ha":711,"x_min":0,"x_max":0,"o":"m 206 888 b 182 911 186 888 182 892 l 182 932 b 206 957 182 951 189 957 l 517 957 b 542 932 536 957 542 951 l 542 911 b 517 888 542 892 536 888 l 206 888 m 356 -19 b 83 263 168 -19 83 94 l 83 442 b 361 735 83 625 179 735 b 636 447 547 735 636 614 l 636 371 b 597 331 636 347 625 331 l 176 331 l 176 251 b 357 63 176 135 236 63 b 543 176 458 63 510 107 b 579 188 553 194 561 197 l 610 169 b 619 131 625 161 631 147 b 356 -19 576 43 496 -19 m 543 406 l 543 453 b 361 654 543 576 485 654 b 176 453 238 654 176 576 l 176 406 "},"Ĕ":{"ha":776,"x_min":0,"x_max":0,"o":"m 410 1058 b 215 1208 310 1058 249 1110 b 226 1233 211 1222 214 1228 l 260 1244 b 285 1235 274 1249 281 1247 b 410 1129 308 1165 344 1129 b 535 1235 474 1129 508 1161 b 556 1246 539 1247 544 1249 l 593 1233 b 606 1208 607 1228 610 1222 b 410 1058 571 1110 511 1058 m 151 0 b 126 28 132 0 126 7 l 126 958 b 151 986 126 979 132 986 l 664 986 b 690 958 683 986 690 979 l 690 918 b 664 892 690 899 683 892 l 228 892 l 228 547 l 607 547 b 632 519 626 547 632 540 l 632 479 b 607 453 632 460 626 453 l 228 453 l 228 94 l 681 94 b 706 68 700 94 706 88 l 706 28 b 681 0 706 7 700 0 l 151 0 "},"ĕ":{"ha":711,"x_min":0,"x_max":0,"o":"m 361 835 b 167 986 261 835 196 885 b 178 1010 161 1000 165 1006 l 211 1022 b 236 1011 225 1026 232 1024 b 361 906 256 940 296 906 b 485 1011 425 906 465 940 b 507 1022 490 1024 496 1026 l 544 1010 b 556 986 557 1004 561 1000 b 361 835 526 885 461 835 m 356 -19 b 83 263 168 -19 83 94 l 83 442 b 361 735 83 625 179 735 b 636 447 547 735 636 614 l 636 371 b 597 331 636 347 625 331 l 176 331 l 176 251 b 357 63 176 135 236 63 b 543 176 458 63 510 107 b 579 188 553 194 561 197 l 610 169 b 619 131 625 161 631 147 b 356 -19 576 43 496 -19 m 543 406 l 543 453 b 361 654 543 576 485 654 b 176 453 238 654 176 576 l 176 406 "},"Ė":{"ha":776,"x_min":0,"x_max":0,"o":"m 406 1094 b 358 1142 369 1094 358 1106 l 358 1150 b 406 1197 358 1186 369 1197 l 413 1197 b 460 1150 450 1197 460 1186 l 460 1142 b 413 1094 460 1106 450 1094 l 406 1094 m 151 0 b 126 28 132 0 126 7 l 126 958 b 151 986 126 979 132 986 l 664 986 b 690 958 683 986 690 979 l 690 918 b 664 892 690 899 683 892 l 228 892 l 228 547 l 607 547 b 632 519 626 547 632 540 l 632 479 b 607 453 632 460 626 453 l 228 453 l 228 94 l 681 94 b 706 68 700 94 706 88 l 706 28 b 681 0 706 7 700 0 l 151 0 "},"ė":{"ha":711,"x_min":0,"x_max":0,"o":"m 346 874 b 304 922 314 874 304 883 l 304 936 b 346 985 304 972 314 985 l 378 985 b 419 936 408 985 419 972 l 419 922 b 378 874 419 883 408 874 l 346 874 m 356 -19 b 83 263 168 -19 83 94 l 83 442 b 361 735 83 625 179 735 b 636 447 547 735 636 614 l 636 371 b 597 331 636 347 625 331 l 176 331 l 176 251 b 357 63 176 135 236 63 b 543 176 458 63 510 107 b 579 188 553 194 561 197 l 610 169 b 619 131 625 161 631 147 b 356 -19 576 43 496 -19 m 543 406 l 543 453 b 361 654 543 576 485 654 b 176 453 238 654 176 576 l 176 406 "},"Ę":{"ha":776,"x_min":0,"x_max":0,"o":"m 599 -343 b 496 -271 551 -343 510 -324 b 625 0 476 -199 529 -101 l 151 0 b 126 28 132 0 126 7 l 126 958 b 151 986 126 979 132 986 l 664 986 b 690 958 683 986 690 979 l 690 918 b 664 892 690 899 683 892 l 228 892 l 228 547 l 607 547 b 632 519 626 547 632 540 l 632 479 b 607 453 632 460 626 453 l 228 453 l 228 94 l 681 94 b 706 68 700 94 706 88 l 706 28 b 700 6 706 17 704 10 b 578 -233 606 -96 561 -186 b 626 -271 586 -260 604 -271 b 686 -240 647 -271 668 -260 b 703 -244 693 -235 700 -236 l 715 -274 b 713 -293 719 -283 718 -287 b 599 -343 681 -326 642 -343 "},"ę":{"ha":711,"x_min":0,"x_max":0,"o":"m 474 -343 b 368 -271 426 -343 382 -324 b 472 1 349 -204 393 -93 b 356 -19 440 -12 401 -19 b 83 263 168 -19 83 94 l 83 442 b 361 735 83 625 179 735 b 636 447 547 735 636 614 l 636 371 b 597 331 636 347 625 331 l 176 331 l 176 251 b 357 63 176 135 236 63 b 543 176 458 63 510 107 b 579 188 553 194 561 197 l 610 169 b 619 131 625 161 631 147 b 579 69 610 108 597 88 b 449 -233 485 -54 432 -183 b 501 -271 458 -260 479 -271 b 561 -240 522 -271 543 -260 b 578 -244 568 -235 574 -236 l 590 -274 b 588 -293 593 -283 593 -287 b 474 -343 556 -326 517 -343 m 543 406 l 543 453 b 361 654 543 576 485 654 b 176 453 238 654 176 576 l 176 406 "},"Ě":{"ha":776,"x_min":0,"x_max":0,"o":"m 404 1053 b 354 1076 379 1053 375 1054 l 201 1225 b 215 1246 192 1236 193 1246 l 250 1246 b 290 1232 271 1246 276 1246 l 407 1117 l 522 1232 b 563 1246 533 1244 542 1246 l 601 1246 b 614 1225 624 1246 625 1236 l 461 1076 b 414 1053 439 1054 435 1053 l 404 1053 m 151 0 b 126 28 132 0 126 7 l 126 958 b 151 986 126 979 132 986 l 664 986 b 690 958 683 986 690 979 l 690 918 b 664 892 690 899 683 892 l 228 892 l 228 547 l 607 547 b 632 519 626 547 632 540 l 632 479 b 607 453 632 460 626 453 l 228 453 l 228 94 l 681 94 b 706 68 700 94 706 88 l 706 28 b 681 0 706 7 700 0 l 151 0 "},"ě":{"ha":711,"x_min":0,"x_max":0,"o":"m 357 829 b 307 851 332 829 328 831 l 154 1001 b 168 1022 144 1013 146 1022 l 203 1022 b 243 1007 224 1022 229 1021 l 360 893 l 475 1007 b 517 1022 488 1019 494 1022 l 556 1022 b 567 1001 578 1022 578 1013 l 414 851 b 367 829 392 829 388 829 l 357 829 m 356 -19 b 83 263 168 -19 83 94 l 83 442 b 361 735 83 625 179 735 b 636 447 547 735 636 614 l 636 371 b 597 331 636 347 625 331 l 176 331 l 176 251 b 357 63 176 135 236 63 b 543 176 458 63 510 107 b 579 188 553 194 561 197 l 610 169 b 619 131 625 161 631 147 b 356 -19 576 43 496 -19 m 543 406 l 543 453 b 361 654 543 576 485 654 b 176 453 238 654 176 576 l 176 406 "},"Ĝ":{"ha":889,"x_min":0,"x_max":0,"o":"m 257 1068 b 244 1089 235 1068 233 1078 l 396 1239 b 447 1261 418 1260 422 1261 l 457 1261 b 504 1239 476 1261 483 1261 l 656 1089 b 643 1068 667 1078 665 1068 l 606 1068 b 564 1083 585 1068 576 1069 l 450 1197 l 332 1083 b 293 1068 319 1069 314 1068 l 257 1068 m 451 -19 b 96 331 221 -19 96 114 l 96 657 b 450 1006 96 872 219 1006 b 790 767 646 1006 747 922 b 774 732 797 747 792 738 l 728 717 b 694 735 710 711 701 714 b 450 911 661 854 592 911 b 199 658 281 911 199 817 l 199 331 b 451 75 199 169 283 75 b 706 308 617 75 706 163 l 706 421 l 464 421 b 438 449 444 421 438 428 l 438 488 b 464 515 438 508 444 515 l 776 515 b 803 486 797 515 803 508 l 803 313 b 451 -19 803 114 679 -19 "},"ĝ":{"ha":728,"x_min":0,"x_max":0,"o":"m 179 829 b 167 850 157 829 157 839 l 319 999 b 371 1022 342 1021 346 1022 l 381 1022 b 428 999 400 1022 406 1021 l 579 850 b 567 829 590 839 589 829 l 529 829 b 488 843 507 829 500 831 l 374 958 l 256 843 b 215 829 243 831 236 829 l 179 829 m 354 -343 b 106 -194 221 -343 149 -282 b 114 -154 94 -175 97 -164 l 149 -136 b 186 -147 167 -126 176 -131 b 353 -257 217 -214 264 -257 b 526 -50 478 -257 526 -182 l 526 38 b 338 -3 485 17 422 -3 b 86 265 163 -3 86 96 l 86 450 b 361 735 86 635 172 735 b 574 694 454 735 529 715 b 621 614 614 675 621 660 l 621 -46 b 354 -343 621 -228 547 -343 m 349 85 b 526 122 439 85 490 104 l 526 586 b 503 622 526 607 524 611 b 364 649 474 635 425 649 b 181 447 236 649 181 586 l 181 271 b 349 85 181 147 229 85 "},"Ğ":{"ha":889,"x_min":0,"x_max":0,"o":"m 451 1072 b 257 1222 351 1072 290 1124 b 268 1247 253 1236 256 1242 l 301 1258 b 326 1249 315 1263 322 1261 b 451 1143 350 1179 386 1143 b 576 1249 515 1143 550 1175 b 597 1260 581 1261 586 1263 l 635 1247 b 647 1222 649 1242 651 1236 b 451 1072 613 1124 553 1072 m 451 -19 b 96 331 221 -19 96 114 l 96 657 b 450 1006 96 872 219 1006 b 790 767 646 1006 747 922 b 774 732 797 747 792 738 l 728 717 b 694 735 710 711 701 714 b 450 911 661 854 592 911 b 199 658 281 911 199 817 l 199 331 b 451 75 199 169 283 75 b 706 308 617 75 706 163 l 706 421 l 464 421 b 438 449 444 421 438 428 l 438 488 b 464 515 438 508 444 515 l 776 515 b 803 486 797 515 803 508 l 803 313 b 451 -19 803 114 679 -19 "},"ğ":{"ha":728,"x_min":0,"x_max":0,"o":"m 372 833 b 178 985 272 833 207 883 b 189 1008 172 999 176 1004 l 222 1021 b 247 1010 236 1025 243 1022 b 372 904 267 939 307 904 b 496 1010 436 904 476 939 b 518 1021 501 1022 507 1025 l 556 1008 b 567 985 568 1003 572 999 b 372 833 538 883 472 833 m 354 -343 b 106 -194 221 -343 149 -282 b 114 -154 94 -175 97 -164 l 149 -136 b 186 -147 167 -126 176 -131 b 353 -257 217 -214 264 -257 b 526 -50 478 -257 526 -182 l 526 38 b 338 -3 485 17 422 -3 b 86 265 163 -3 86 96 l 86 450 b 361 735 86 635 172 735 b 574 694 454 735 529 715 b 621 614 614 675 621 660 l 621 -46 b 354 -343 621 -228 547 -343 m 349 85 b 526 122 439 85 490 104 l 526 586 b 503 622 526 607 524 611 b 364 649 474 635 425 649 b 181 447 236 649 181 586 l 181 271 b 349 85 181 147 229 85 "},"Ġ":{"ha":889,"x_min":0,"x_max":0,"o":"m 447 1108 b 400 1156 411 1108 400 1119 l 400 1164 b 447 1211 400 1200 411 1211 l 454 1211 b 501 1164 492 1211 501 1200 l 501 1156 b 454 1108 501 1119 492 1108 l 447 1108 m 451 -19 b 96 331 221 -19 96 114 l 96 657 b 450 1006 96 872 219 1006 b 790 767 646 1006 747 922 b 774 732 797 747 792 738 l 728 717 b 694 735 710 711 701 714 b 450 911 661 854 592 911 b 199 658 281 911 199 817 l 199 331 b 451 75 199 169 283 75 b 706 308 617 75 706 163 l 706 421 l 464 421 b 438 449 444 421 438 428 l 438 488 b 464 515 438 508 444 515 l 776 515 b 803 486 797 515 803 508 l 803 313 b 451 -19 803 114 679 -19 "},"ġ":{"ha":728,"x_min":0,"x_max":0,"o":"m 357 872 b 315 921 325 872 315 882 l 315 935 b 357 983 315 971 325 983 l 389 983 b 431 935 419 983 431 971 l 431 921 b 389 872 431 882 419 872 l 357 872 m 354 -343 b 106 -194 221 -343 149 -282 b 114 -154 94 -175 97 -164 l 149 -136 b 186 -147 167 -126 176 -131 b 353 -257 217 -214 264 -257 b 526 -50 478 -257 526 -182 l 526 38 b 338 -3 485 17 422 -3 b 86 265 163 -3 86 96 l 86 450 b 361 735 86 635 172 735 b 574 694 454 735 529 715 b 621 614 614 675 621 660 l 621 -46 b 354 -343 621 -228 547 -343 m 349 85 b 526 122 439 85 490 104 l 526 586 b 503 622 526 607 524 611 b 364 649 474 635 425 649 b 181 447 236 649 181 586 l 181 271 b 349 85 181 147 229 85 "},"Ģ":{"ha":889,"x_min":0,"x_max":0,"o":"m 451 -19 b 96 331 221 -19 96 114 l 96 657 b 450 1006 96 872 219 1006 b 790 767 646 1006 747 922 b 774 732 797 747 792 738 l 728 717 b 694 735 710 711 701 714 b 450 911 661 854 592 911 b 199 658 281 911 199 817 l 199 331 b 451 75 199 169 283 75 b 706 308 617 75 706 163 l 706 421 l 464 421 b 438 449 444 421 438 428 l 438 488 b 464 515 438 508 444 515 l 776 515 b 803 486 797 515 803 508 l 803 313 b 451 -19 803 114 679 -19 m 378 -346 b 361 -328 361 -346 358 -342 l 406 -126 b 438 -100 408 -106 417 -100 l 479 -100 b 503 -128 503 -100 510 -108 l 438 -322 b 408 -346 432 -340 426 -346 l 378 -346 "},"ģ":{"ha":728,"x_min":0,"x_max":0,"o":"m 346 813 b 324 842 322 813 317 821 l 392 1004 b 424 1028 399 1022 404 1028 l 449 1028 b 467 1007 465 1028 469 1024 l 415 840 b 382 813 411 818 404 813 l 346 813 m 354 -343 b 106 -194 221 -343 149 -282 b 114 -154 94 -175 97 -164 l 149 -136 b 186 -147 167 -126 176 -131 b 353 -257 217 -214 264 -257 b 526 -50 478 -257 526 -182 l 526 38 b 338 -3 485 17 422 -3 b 86 265 163 -3 86 96 l 86 450 b 361 735 86 635 172 735 b 574 694 454 735 529 715 b 621 614 614 675 621 660 l 621 -46 b 354 -343 621 -228 547 -343 m 349 85 b 526 122 439 85 490 104 l 526 586 b 503 622 526 607 524 611 b 364 649 474 635 425 649 b 181 447 236 649 181 586 l 181 271 b 349 85 181 147 229 85 "},"Ĥ":{"ha":926,"x_min":0,"x_max":0,"o":"m 271 1054 b 258 1075 249 1054 247 1064 l 410 1225 b 461 1247 432 1246 436 1247 l 471 1247 b 518 1225 490 1247 497 1247 l 669 1075 b 657 1054 681 1064 679 1054 l 619 1054 b 578 1069 599 1054 590 1056 l 464 1183 l 346 1069 b 307 1054 333 1056 328 1054 l 271 1054 m 151 0 b 126 28 132 0 126 7 l 126 958 b 151 986 126 979 132 986 l 201 986 b 228 958 221 986 228 979 l 228 547 l 699 547 l 699 958 b 725 986 699 979 706 986 l 775 986 b 800 958 794 986 800 979 l 800 28 b 775 0 800 7 794 0 l 725 0 b 699 28 706 0 699 7 l 699 453 l 228 453 l 228 28 b 201 0 228 7 221 0 l 151 0 "},"ĥ":{"ha":746,"x_min":0,"x_max":0,"o":"m -32 1075 b -44 1096 -54 1075 -56 1085 l 107 1246 b 158 1268 129 1267 133 1268 l 168 1268 b 215 1246 188 1268 194 1268 l 367 1096 b 354 1075 378 1085 376 1075 l 317 1075 b 275 1090 296 1075 288 1076 l 161 1204 l 43 1090 b 4 1075 31 1076 25 1075 l -32 1075 m 133 0 b 111 25 117 0 111 7 l 111 1003 b 133 1028 111 1021 117 1028 l 182 1028 b 206 1003 199 1028 206 1021 l 206 696 b 393 735 243 715 308 735 b 643 465 565 735 643 638 l 643 25 b 619 0 643 7 636 0 l 571 0 b 549 25 554 0 549 7 l 549 460 b 381 649 549 585 497 649 b 206 610 306 649 244 631 l 206 25 b 182 0 206 7 199 0 l 133 0 "},"Ħ":{"ha":926,"x_min":0,"x_max":0,"o":"m 151 0 b 125 28 132 0 125 7 l 125 760 l 49 760 b 31 779 35 760 31 763 l 31 803 b 49 822 31 817 36 822 l 125 822 l 125 958 b 151 986 125 979 132 986 l 201 986 b 228 958 221 986 228 979 l 228 822 l 699 822 l 699 958 b 724 986 699 979 704 986 l 775 986 b 800 958 794 986 800 979 l 800 822 l 878 822 b 896 803 892 822 896 817 l 896 779 b 878 760 896 763 892 760 l 800 760 l 800 28 b 775 0 800 7 794 0 l 724 0 b 699 28 704 0 699 7 l 699 453 l 228 453 l 228 28 b 201 0 228 7 221 0 l 151 0 m 699 547 l 699 760 l 228 760 l 228 547 "},"ħ":{"ha":744,"x_min":0,"x_max":0,"o":"m 133 0 b 110 25 115 0 110 7 l 110 856 l 44 856 b 26 876 31 856 26 860 l 26 896 b 44 915 26 911 32 915 l 110 915 l 110 1003 b 133 1028 110 1021 115 1028 l 181 1028 b 204 1003 199 1028 204 1021 l 204 915 l 389 915 b 407 896 403 915 407 911 l 407 876 b 389 856 407 860 403 856 l 204 856 l 204 696 b 392 735 243 715 308 735 b 642 465 565 735 642 638 l 642 25 b 618 0 642 7 636 0 l 571 0 b 547 25 553 0 547 7 l 547 460 b 379 649 547 585 497 649 b 204 610 306 649 244 631 l 204 25 b 181 0 204 7 199 0 l 133 0 "},"Ĩ":{"ha":353,"x_min":0,"x_max":0,"o":"m -7 1071 b -22 1088 -18 1071 -22 1076 b 79 1226 -22 1182 15 1226 b 261 1133 171 1226 196 1133 b 311 1210 294 1133 311 1164 b 326 1226 311 1222 314 1226 l 354 1226 b 371 1210 367 1226 371 1222 b 268 1071 371 1117 338 1071 b 88 1164 181 1071 156 1164 b 38 1088 57 1164 38 1135 b 22 1071 38 1076 33 1071 l -7 1071 m 150 0 b 126 25 136 0 126 4 l 126 961 b 150 986 126 982 136 986 l 206 986 b 228 961 219 986 228 982 l 228 25 b 203 0 228 4 217 0 l 150 0 "},"ĩ":{"ha":314,"x_min":0,"x_max":0,"o":"m 11 838 b -3 854 1 838 -3 843 b 83 992 -3 957 28 992 b 217 901 164 992 160 901 b 257 975 243 901 257 921 b 271 992 257 986 260 992 l 294 992 b 308 975 306 992 308 986 b 225 838 308 872 281 838 b 92 925 147 838 150 925 b 50 854 65 925 50 908 b 36 838 50 843 46 838 l 11 838 m 135 0 b 110 25 117 0 110 7 l 110 689 b 135 714 110 708 117 714 l 179 714 b 204 689 199 714 204 708 l 204 25 b 179 0 204 7 199 0 l 135 0 "},"Ī":{"ha":353,"x_min":0,"x_max":0,"o":"m 22 1111 b -1 1135 3 1111 -1 1115 l -1 1157 b 22 1181 -1 1175 6 1181 l 333 1181 b 358 1157 353 1181 358 1175 l 358 1135 b 333 1111 358 1115 353 1111 l 22 1111 m 150 0 b 126 25 136 0 126 4 l 126 961 b 150 986 126 982 136 986 l 206 986 b 228 961 219 986 228 982 l 228 25 b 203 0 228 4 217 0 l 150 0 "},"ī":{"ha":314,"x_min":0,"x_max":0,"o":"m 57 863 b 33 886 39 863 33 867 l 33 908 b 57 932 33 926 40 932 l 254 932 b 279 908 274 932 279 926 l 279 886 b 254 863 279 867 274 863 l 57 863 m 135 0 b 110 25 117 0 110 7 l 110 689 b 135 714 110 708 117 714 l 179 714 b 204 689 199 714 204 708 l 204 25 b 179 0 204 7 199 0 l 135 0 "},"Ĭ":{"ha":353,"x_min":0,"x_max":0,"o":"m 178 1058 b -17 1208 78 1058 17 1110 b -6 1233 -21 1222 -18 1228 l 28 1244 b 53 1235 42 1249 49 1247 b 178 1129 76 1165 113 1129 b 303 1235 242 1129 276 1161 b 324 1246 307 1247 313 1249 l 361 1233 b 374 1208 375 1228 378 1222 b 178 1058 339 1110 279 1058 m 150 0 b 126 25 136 0 126 4 l 126 961 b 150 986 126 982 136 986 l 206 986 b 228 961 219 986 228 982 l 228 25 b 203 0 228 4 217 0 l 150 0 "},"ĭ":{"ha":314,"x_min":0,"x_max":0,"o":"m 157 828 b -7 969 69 828 11 876 b 4 994 -11 983 -8 990 l 38 1006 b 63 996 51 1010 58 1008 b 157 899 74 928 106 899 b 250 996 207 899 239 928 b 272 1007 254 1008 261 1011 l 308 994 b 321 969 322 989 325 983 b 157 828 301 876 243 828 m 135 0 b 110 25 117 0 110 7 l 110 689 b 135 714 110 708 117 714 l 179 714 b 204 689 199 714 204 708 l 204 25 b 179 0 204 7 199 0 l 135 0 "},"Į":{"ha":353,"x_min":0,"x_max":0,"o":"m 165 -343 b 58 -271 117 -343 72 -324 b 154 3 36 -197 71 -104 b 126 29 131 3 126 11 l 126 958 b 153 986 126 979 132 986 l 200 986 b 228 958 221 986 228 979 l 228 28 b 221 4 228 17 226 10 b 139 -233 146 -97 122 -183 b 194 -269 149 -258 172 -269 b 264 -240 221 -269 246 -260 b 281 -244 271 -235 278 -236 l 292 -274 b 290 -293 296 -282 296 -287 b 165 -343 256 -325 214 -343 "},"į":{"ha":314,"x_min":0,"x_max":0,"o":"m 153 875 b 99 928 113 875 99 888 l 99 938 b 153 992 99 978 113 992 l 161 992 b 215 938 201 992 215 978 l 215 928 b 161 875 215 888 201 875 l 153 875 m 154 -342 b 50 -256 100 -342 57 -311 b 131 1 40 -165 93 -51 b 110 25 115 3 110 8 l 110 689 b 135 714 110 708 117 714 l 179 714 b 204 689 199 714 204 708 l 204 25 b 199 6 204 15 203 10 b 132 -222 167 -47 125 -149 b 181 -271 135 -251 157 -271 b 231 -242 197 -271 217 -264 b 249 -244 238 -237 244 -237 l 260 -269 b 260 -289 264 -278 264 -285 b 154 -342 231 -328 190 -342 "},"İ":{"ha":353,"x_min":0,"x_max":0,"o":"m 174 1094 b 126 1142 138 1094 126 1106 l 126 1150 b 174 1197 126 1186 138 1197 l 181 1197 b 228 1150 218 1197 228 1186 l 228 1142 b 181 1094 228 1106 218 1094 l 174 1094 m 150 0 b 126 25 136 0 126 4 l 126 961 b 150 986 126 982 136 986 l 206 986 b 228 961 219 986 228 982 l 228 25 b 203 0 228 4 217 0 l 150 0 "},"ı":{"ha":314,"x_min":0,"x_max":0,"o":"m 135 0 b 110 25 117 0 110 7 l 110 689 b 135 714 110 708 117 714 l 179 714 b 204 689 199 714 204 708 l 204 25 b 179 0 204 7 199 0 l 135 0 "},"Ĳ":{"ha":1093,"x_min":0,"x_max":0,"o":"m 150 0 b 126 25 136 0 126 4 l 126 961 b 150 986 126 982 136 986 l 206 986 b 228 961 219 986 228 982 l 228 25 b 203 0 228 4 217 0 l 150 0 m 665 -19 b 365 240 493 -19 400 78 b 382 276 360 260 364 269 l 426 292 b 461 271 446 297 454 292 b 667 76 485 144 547 76 b 872 310 801 76 872 164 l 872 960 b 897 986 872 979 878 986 l 949 986 b 974 960 967 986 974 979 l 974 311 b 665 -19 974 108 865 -19 "},"ĳ":{"ha":588,"x_min":0,"x_max":0,"o":"m 140 872 b 99 921 108 872 99 882 l 99 935 b 140 983 99 971 110 983 l 172 983 b 214 935 204 983 214 971 l 214 921 b 172 872 214 882 204 872 l 140 872 m 419 872 b 378 921 388 872 378 882 l 378 935 b 419 983 378 971 388 983 l 451 983 b 493 935 483 983 493 971 l 493 921 b 451 872 493 882 483 872 l 419 872 m 135 0 b 110 25 117 0 110 7 l 110 689 b 135 714 110 708 117 714 l 179 714 b 204 689 199 714 204 708 l 204 25 b 179 0 204 7 199 0 l 135 0 m 243 -319 b 221 -293 226 -319 221 -312 l 221 -257 b 243 -231 221 -237 226 -231 b 385 -12 383 -231 385 -151 l 385 689 b 408 714 385 708 390 714 l 457 714 b 479 689 475 714 479 708 l 479 -14 b 243 -319 479 -208 457 -319 "},"Ĵ":{"ha":772,"x_min":0,"x_max":0,"o":"m 410 1054 b 397 1075 388 1054 386 1064 l 549 1225 b 600 1247 571 1246 575 1247 l 610 1247 b 657 1225 629 1247 636 1247 l 808 1075 b 796 1054 819 1064 818 1054 l 758 1054 b 717 1069 738 1054 729 1056 l 603 1183 l 485 1069 b 446 1054 472 1056 467 1054 l 410 1054 m 344 -19 b 46 239 174 -19 81 76 b 61 275 39 258 43 269 l 107 290 b 140 271 125 297 135 290 b 346 76 165 144 228 76 b 551 310 482 76 551 163 l 551 960 b 576 986 551 979 557 986 l 628 986 b 654 960 647 986 654 979 l 654 310 b 344 -19 654 107 546 -19 "},"ĵ":{"ha":310,"x_min":0,"x_max":0,"o":"m -11 819 b -24 839 -32 819 -33 829 l 104 986 b 154 1008 125 1007 131 1008 l 164 1008 b 211 986 185 1008 190 1008 l 338 839 b 325 819 347 829 347 819 l 289 819 b 247 833 267 819 258 821 l 157 946 l 64 833 b 25 819 50 819 44 819 l -11 819 m -33 -319 b -57 -293 -51 -319 -57 -312 l -57 -257 b -33 -231 -57 -237 -51 -231 b 108 -12 106 -231 108 -151 l 108 689 b 131 714 108 708 114 714 l 181 714 b 203 689 197 714 203 708 l 203 -14 b -33 -319 203 -208 179 -319 "},"Ķ":{"ha":826,"x_min":0,"x_max":0,"o":"m 151 0 b 126 28 132 0 126 7 l 126 958 b 151 986 126 979 132 986 l 201 986 b 228 958 221 986 228 979 l 228 547 l 358 547 b 385 546 367 547 376 547 l 651 963 b 697 986 664 983 671 986 l 753 986 b 768 958 772 986 776 974 l 482 526 b 622 372 546 504 585 453 l 781 28 b 765 0 789 13 786 0 l 713 0 b 671 25 685 0 681 4 l 532 335 b 367 453 493 419 457 453 l 228 453 l 228 28 b 201 0 228 7 221 0 l 151 0 m 374 -346 b 357 -328 357 -346 354 -342 l 401 -126 b 433 -100 404 -106 413 -100 l 475 -100 b 499 -128 499 -100 506 -108 l 433 -322 b 404 -346 428 -340 422 -346 l 374 -346 "},"ķ":{"ha":683,"x_min":0,"x_max":0,"o":"m 133 0 b 111 26 117 0 111 7 l 111 1001 b 133 1028 111 1021 117 1028 l 182 1028 b 206 1001 199 1028 206 1021 l 206 410 l 328 410 l 339 410 l 521 694 b 565 714 532 714 539 714 l 604 714 b 622 685 629 714 633 703 l 426 392 b 525 281 474 375 500 338 l 633 29 b 617 0 643 8 639 0 l 578 0 b 535 22 550 0 543 4 l 443 239 b 335 322 418 297 390 322 l 206 322 l 206 26 b 182 0 206 7 199 0 l 133 0 m 265 -346 b 249 -328 249 -346 246 -342 l 293 -126 b 325 -100 296 -106 304 -100 l 367 -100 b 390 -128 390 -100 397 -108 l 325 -322 b 296 -346 319 -340 314 -346 l 265 -346 "},"ĸ":{"ha":639,"x_min":0,"x_max":0,"o":"m 133 0 b 110 26 115 0 110 7 l 110 689 b 133 714 110 708 115 714 l 182 714 b 204 689 199 714 204 708 l 204 335 l 482 693 b 524 714 494 714 500 714 l 569 714 b 585 685 592 714 597 704 l 376 413 l 593 31 b 575 0 603 11 599 0 l 535 0 b 497 22 510 0 507 1 l 315 344 l 204 215 l 204 26 b 181 0 204 7 199 0 l 133 0 "},"Ĺ":{"ha":704,"x_min":0,"x_max":0,"o":"m 92 1060 b 58 1060 76 1051 67 1051 l 47 1075 b 50 1106 35 1089 36 1097 l 242 1243 b 288 1242 257 1253 274 1257 l 310 1217 b 306 1186 322 1201 322 1193 l 92 1060 m 151 0 b 126 28 132 0 126 7 l 126 958 b 151 986 126 979 132 986 l 201 986 b 228 958 221 986 228 979 l 228 94 l 643 94 b 668 68 663 94 668 88 l 668 28 b 643 0 668 7 663 0 l 151 0 "},"ĺ":{"ha":324,"x_min":0,"x_max":0,"o":"m 76 1049 b 43 1050 61 1042 51 1040 l 32 1065 b 35 1094 19 1079 21 1088 l 226 1233 b 274 1232 242 1242 260 1247 l 294 1207 b 290 1176 307 1192 307 1183 l 76 1049 m 133 0 b 115 25 119 0 115 7 l 115 1003 b 133 1028 115 1021 119 1028 l 190 1028 b 210 1003 204 1028 210 1021 l 210 25 b 190 0 210 7 204 0 l 133 0 "},"Ļ":{"ha":704,"x_min":0,"x_max":0,"o":"m 151 0 b 126 28 132 0 126 7 l 126 958 b 151 986 126 979 132 986 l 201 986 b 228 958 221 986 228 979 l 228 94 l 643 94 b 668 68 663 94 668 88 l 668 28 b 643 0 668 7 663 0 l 151 0 m 322 -346 b 306 -328 306 -346 303 -342 l 350 -126 b 382 -100 353 -106 361 -100 l 424 -100 b 447 -128 447 -100 454 -108 l 382 -322 b 353 -346 376 -340 371 -346 l 322 -346 "},"ļ":{"ha":324,"x_min":0,"x_max":0,"o":"m 133 0 b 115 25 119 0 115 7 l 115 1003 b 133 1028 115 1021 119 1028 l 190 1028 b 210 1003 204 1028 210 1021 l 210 25 b 190 0 210 7 204 0 l 133 0 m 86 -346 b 69 -328 69 -346 67 -342 l 114 -126 b 146 -100 117 -106 125 -100 l 188 -100 b 211 -128 211 -100 218 -108 l 146 -322 b 117 -346 140 -340 135 -346 l 86 -346 "},"Ľ":{"ha":704,"x_min":0,"x_max":0,"o":"m 150 0 b 125 28 131 0 125 7 l 125 958 b 150 986 125 979 131 986 l 201 986 b 226 958 221 986 226 979 l 226 94 l 642 94 b 668 68 661 94 668 88 l 668 28 b 642 0 668 7 661 0 l 150 0 m 493 690 b 476 708 478 690 475 694 l 525 960 b 556 986 528 981 535 986 l 594 986 b 617 960 617 986 624 978 l 546 714 b 517 690 540 696 535 690 l 493 690 "},"ľ":{"ha":315,"x_min":0,"x_max":0,"o":"m 132 0 b 114 25 118 0 114 7 l 114 1003 b 132 1028 114 1021 118 1028 l 189 1028 b 208 1003 203 1028 208 1021 l 208 25 b 189 0 208 7 203 0 l 132 0 m 321 746 b 304 765 306 746 301 750 l 344 1001 b 375 1028 347 1022 353 1028 l 414 1028 b 436 1001 436 1028 443 1019 l 372 769 b 343 746 367 753 361 746 l 321 746 "},"Ŀ":{"ha":704,"x_min":0,"x_max":0,"o":"m 151 0 b 126 28 132 0 126 7 l 126 958 b 151 986 126 979 132 986 l 201 986 b 228 958 221 986 228 979 l 228 94 l 643 94 b 668 68 663 94 668 88 l 668 28 b 643 0 668 7 663 0 l 151 0 m 482 443 b 425 500 440 443 425 456 l 425 510 b 482 567 425 551 439 567 l 490 567 b 547 510 533 567 547 551 l 547 500 b 490 443 547 457 533 443 l 482 443 "},"ŀ":{"ha":476,"x_min":0,"x_max":0,"o":"m 133 0 b 115 25 119 0 115 7 l 115 1003 b 133 1028 115 1021 119 1028 l 190 1028 b 210 1003 204 1028 210 1021 l 210 25 b 190 0 210 7 204 0 l 133 0 m 381 463 b 326 518 340 463 326 475 l 326 526 b 381 582 326 568 340 582 l 389 582 b 443 526 431 582 443 568 l 443 518 b 389 463 443 476 431 463 l 381 463 "},"Ł":{"ha":733,"x_min":0,"x_max":0,"o":"m 176 0 b 147 28 154 0 147 7 l 147 396 l 56 346 b 29 356 42 339 36 342 l 14 386 b 21 411 7 397 11 406 l 147 476 l 147 958 b 176 986 147 979 154 986 l 222 986 b 250 958 243 986 250 979 l 250 524 l 507 656 b 535 647 522 663 529 660 l 550 615 b 540 590 556 604 554 596 l 250 442 l 250 94 l 669 94 b 697 68 690 94 697 88 l 697 28 b 669 0 697 7 690 0 l 176 0 "},"ł":{"ha":418,"x_min":0,"x_max":0,"o":"m 183 0 b 157 25 164 0 157 7 l 157 453 l 78 404 b 49 411 63 397 56 399 l 32 439 b 40 464 26 450 29 458 l 157 533 l 157 1003 b 183 1028 157 1021 164 1028 l 226 1028 b 251 1003 246 1028 251 1021 l 251 585 l 340 638 b 369 632 356 646 361 644 l 386 603 b 378 578 393 592 390 585 l 251 504 l 251 25 b 226 0 251 7 246 0 l 183 0 "},"Ń":{"ha":939,"x_min":0,"x_max":0,"o":"m 386 1060 b 353 1060 371 1051 361 1051 l 342 1075 b 344 1106 329 1089 331 1097 l 536 1243 b 582 1242 551 1253 568 1257 l 604 1217 b 600 1186 617 1201 617 1193 l 386 1060 m 151 0 b 126 28 132 0 126 7 l 126 958 b 151 986 126 979 132 986 l 210 986 b 236 972 224 986 231 981 l 617 351 b 726 138 663 275 692 207 l 732 138 b 715 400 722 221 715 301 l 715 960 b 742 986 715 979 722 986 l 788 986 b 814 958 807 986 814 979 l 814 28 b 788 0 814 7 807 0 l 732 0 b 704 15 718 0 711 3 l 315 649 b 217 849 275 718 244 789 l 211 849 b 225 603 217 776 225 692 l 225 28 b 199 0 225 7 218 0 l 151 0 "},"ń":{"ha":742,"x_min":0,"x_max":0,"o":"m 282 840 b 250 840 267 832 257 832 l 238 856 b 240 886 226 871 226 878 l 432 1024 b 479 1022 449 1033 465 1039 l 500 997 b 496 967 513 982 513 974 l 282 840 m 131 0 b 107 25 114 0 107 7 l 107 611 b 154 689 107 654 117 671 b 389 735 203 710 275 735 b 639 463 563 735 639 633 l 639 25 b 615 0 639 7 633 0 l 568 0 b 544 25 550 0 544 7 l 544 460 b 376 649 544 583 489 649 b 222 617 313 649 254 633 b 201 583 204 608 201 599 l 201 25 b 178 0 201 7 196 0 l 131 0 "},"Ņ":{"ha":939,"x_min":0,"x_max":0,"o":"m 151 0 b 126 28 132 0 126 7 l 126 958 b 151 986 126 979 132 986 l 210 986 b 236 972 224 986 231 981 l 617 351 b 726 138 663 275 692 207 l 732 138 b 715 400 722 221 715 301 l 715 960 b 742 986 715 979 722 986 l 788 986 b 814 958 807 986 814 979 l 814 28 b 788 0 814 7 807 0 l 732 0 b 704 15 718 0 711 3 l 315 649 b 217 849 275 718 244 789 l 211 849 b 225 603 217 776 225 692 l 225 28 b 199 0 225 7 218 0 l 151 0 m 401 -346 b 385 -328 385 -346 382 -342 l 429 -126 b 461 -100 432 -106 440 -100 l 503 -100 b 526 -128 526 -100 533 -108 l 461 -322 b 432 -346 456 -340 450 -346 l 401 -346 "},"ņ":{"ha":742,"x_min":0,"x_max":0,"o":"m 131 0 b 107 25 114 0 107 7 l 107 611 b 154 689 107 654 117 671 b 389 735 203 710 275 735 b 639 463 563 735 639 633 l 639 25 b 615 0 639 7 633 0 l 568 0 b 544 25 550 0 544 7 l 544 460 b 376 649 544 583 489 649 b 222 617 313 649 254 633 b 201 583 204 608 201 599 l 201 25 b 178 0 201 7 196 0 l 131 0 m 296 -346 b 279 -328 279 -346 276 -342 l 324 -126 b 356 -100 326 -106 335 -100 l 397 -100 b 421 -128 421 -100 428 -108 l 356 -322 b 326 -346 350 -340 344 -346 l 296 -346 "},"Ň":{"ha":939,"x_min":0,"x_max":0,"o":"m 467 1053 b 417 1076 442 1053 438 1054 l 264 1225 b 278 1246 254 1236 256 1246 l 313 1246 b 353 1232 333 1246 339 1246 l 469 1117 l 585 1232 b 625 1246 596 1244 604 1246 l 664 1246 b 676 1225 686 1246 688 1236 l 524 1076 b 476 1053 501 1054 497 1053 l 467 1053 m 151 0 b 126 28 132 0 126 7 l 126 958 b 151 986 126 979 132 986 l 210 986 b 236 972 224 986 231 981 l 617 351 b 726 138 663 275 692 207 l 732 138 b 715 400 722 221 715 301 l 715 960 b 742 986 715 979 722 986 l 788 986 b 814 958 807 986 814 979 l 814 28 b 788 0 814 7 807 0 l 732 0 b 704 15 718 0 711 3 l 315 649 b 217 849 275 718 244 789 l 211 849 b 225 603 217 776 225 692 l 225 28 b 199 0 225 7 218 0 l 151 0 "},"ň":{"ha":742,"x_min":0,"x_max":0,"o":"m 364 829 b 314 851 339 829 335 831 l 161 1001 b 175 1022 151 1013 153 1022 l 210 1022 b 250 1007 231 1022 236 1021 l 367 893 l 482 1007 b 524 1022 494 1019 501 1022 l 563 1022 b 574 1001 585 1022 585 1013 l 421 851 b 374 829 399 829 394 829 l 364 829 m 131 0 b 107 25 114 0 107 7 l 107 611 b 154 689 107 654 117 671 b 389 735 203 710 275 735 b 639 463 563 735 639 633 l 639 25 b 615 0 639 7 633 0 l 568 0 b 544 25 550 0 544 7 l 544 460 b 376 649 544 583 489 649 b 222 617 313 649 254 633 b 201 583 204 608 201 599 l 201 25 b 178 0 201 7 196 0 l 131 0 "},"ŉ":{"ha":742,"x_min":0,"x_max":0,"o":"m 94 772 b 81 792 78 772 76 778 l 144 997 b 175 1019 151 1015 156 1019 l 219 1019 b 238 993 243 1019 247 1010 l 149 792 b 117 772 139 776 135 772 l 94 772 m 131 0 b 107 25 114 0 107 7 l 107 611 b 154 689 107 654 117 671 b 389 735 203 710 275 735 b 639 463 563 735 639 633 l 639 25 b 615 0 639 7 633 0 l 568 0 b 544 25 550 0 544 7 l 544 460 b 376 649 544 583 489 649 b 222 617 313 649 254 633 b 201 583 204 608 201 599 l 201 25 b 178 0 201 7 196 0 l 131 0 "},"Ŋ":{"ha":939,"x_min":0,"x_max":0,"o":"m 538 -319 b 513 -293 518 -319 513 -312 l 513 -257 b 538 -231 513 -236 518 -231 b 714 -21 681 -231 714 -156 l 714 4 l 315 649 b 217 849 275 718 244 789 l 211 849 b 225 603 217 776 225 692 l 225 28 b 199 0 225 7 218 0 l 151 0 b 126 28 132 0 126 7 l 126 958 b 151 986 126 979 132 986 l 210 986 b 236 972 224 986 231 981 l 617 351 b 726 138 663 275 692 207 l 732 138 b 715 400 722 221 715 301 l 715 960 b 742 986 715 979 722 986 l 788 986 b 814 958 807 986 814 979 l 813 -36 b 538 -319 813 -226 747 -319 "},"ŋ":{"ha":742,"x_min":0,"x_max":0,"o":"m 379 -317 b 354 -293 361 -317 354 -311 l 354 -257 b 379 -232 354 -237 361 -232 b 544 -26 521 -232 544 -161 l 544 460 b 376 649 544 583 489 649 b 222 617 313 649 254 633 b 201 583 204 608 201 599 l 201 25 b 178 0 201 7 196 0 l 131 0 b 107 25 114 0 107 7 l 107 611 b 154 689 107 654 117 671 b 389 735 203 710 275 735 b 639 463 563 735 639 633 l 639 -29 b 379 -317 639 -215 581 -317 "},"Ō":{"ha":901,"x_min":0,"x_max":0,"o":"m 296 1125 b 272 1149 276 1125 272 1129 l 272 1171 b 296 1194 272 1189 279 1194 l 607 1194 b 632 1171 626 1194 632 1189 l 632 1149 b 607 1125 632 1129 626 1125 l 296 1125 m 451 -19 b 96 329 221 -19 96 114 l 96 657 b 451 1006 96 872 221 1006 b 804 657 681 1006 804 872 l 804 329 b 451 -19 804 114 681 -19 m 451 75 b 703 329 615 75 703 169 l 703 657 b 451 911 703 817 615 911 b 199 657 286 911 199 817 l 199 329 b 451 75 199 169 286 75 "},"ō":{"ha":729,"x_min":0,"x_max":0,"o":"m 208 886 b 185 910 189 886 185 890 l 185 931 b 208 956 185 950 192 956 l 519 956 b 544 931 539 956 544 950 l 544 910 b 519 886 544 890 539 886 l 208 886 m 364 -19 b 88 235 192 -19 88 76 l 88 479 b 364 735 88 638 192 735 b 643 479 539 735 643 638 l 643 235 b 364 -19 643 76 539 -19 m 364 65 b 549 235 476 65 549 129 l 549 479 b 364 649 549 585 476 649 b 182 479 254 649 182 585 l 182 235 b 364 65 182 129 254 65 "},"Ŏ":{"ha":901,"x_min":0,"x_max":0,"o":"m 451 1072 b 257 1222 351 1072 290 1124 b 268 1247 253 1236 256 1242 l 301 1258 b 326 1249 315 1263 322 1261 b 451 1143 350 1179 386 1143 b 576 1249 515 1143 550 1175 b 597 1260 581 1261 586 1263 l 635 1247 b 647 1222 649 1242 651 1236 b 451 1072 613 1124 553 1072 m 451 -19 b 96 329 221 -19 96 114 l 96 657 b 451 1006 96 872 221 1006 b 804 657 681 1006 804 872 l 804 329 b 451 -19 804 114 681 -19 m 451 75 b 703 329 615 75 703 169 l 703 657 b 451 911 703 817 615 911 b 199 657 286 911 199 817 l 199 329 b 451 75 199 169 286 75 "},"ŏ":{"ha":729,"x_min":0,"x_max":0,"o":"m 364 833 b 169 985 264 833 199 883 b 181 1008 164 999 168 1004 l 214 1021 b 239 1010 228 1025 235 1022 b 364 904 258 939 299 904 b 488 1010 428 904 468 939 b 510 1021 493 1022 499 1025 l 547 1008 b 558 985 560 1003 564 999 b 364 833 529 883 464 833 m 364 -19 b 88 235 192 -19 88 76 l 88 479 b 364 735 88 638 192 735 b 643 479 539 735 643 638 l 643 235 b 364 -19 643 76 539 -19 m 364 65 b 549 235 476 65 549 129 l 549 479 b 364 649 549 585 476 649 b 182 479 254 649 182 585 l 182 235 b 364 65 182 129 254 65 "},"Ő":{"ha":901,"x_min":0,"x_max":0,"o":"m 279 1076 b 271 1103 263 1082 263 1090 l 383 1250 b 426 1268 394 1267 407 1274 l 456 1257 b 464 1229 474 1251 478 1240 l 326 1082 b 294 1071 314 1071 306 1067 m 496 1075 b 486 1101 478 1081 478 1090 l 607 1249 b 650 1265 618 1265 631 1272 l 681 1256 b 689 1228 699 1250 703 1239 l 542 1081 b 510 1069 529 1069 521 1065 m 451 -19 b 96 329 221 -19 96 114 l 96 657 b 451 1006 96 872 221 1006 b 804 657 681 1006 804 872 l 804 329 b 451 -19 804 114 681 -19 m 451 75 b 703 329 615 75 703 169 l 703 657 b 451 911 703 817 615 911 b 199 657 286 911 199 817 l 199 329 b 451 75 199 169 286 75 "},"ő":{"ha":729,"x_min":0,"x_max":0,"o":"m 192 833 b 185 860 175 839 175 847 l 296 1007 b 339 1024 307 1022 319 1029 l 368 1014 b 376 985 386 1007 388 999 l 239 839 b 207 828 225 828 219 824 m 407 831 b 399 857 390 835 389 844 l 518 1004 b 561 1022 529 1021 542 1028 l 592 1011 b 600 983 610 1006 613 994 l 453 836 b 421 825 440 824 433 821 m 364 -19 b 88 235 192 -19 88 76 l 88 479 b 364 735 88 638 192 735 b 643 479 539 735 643 638 l 643 235 b 364 -19 643 76 539 -19 m 364 65 b 549 235 476 65 549 129 l 549 479 b 364 649 549 585 476 649 b 182 479 254 649 182 585 l 182 235 b 364 65 182 129 254 65 "},"Œ":{"ha":1163,"x_min":0,"x_max":0,"o":"m 463 -21 b 96 329 228 -21 96 114 l 96 657 b 463 1007 96 872 228 1007 b 613 986 517 1007 569 999 l 1049 986 b 1075 958 1069 986 1075 979 l 1075 918 b 1049 892 1075 899 1069 892 l 682 892 l 682 546 l 988 546 b 1014 519 1008 546 1014 539 l 1014 479 b 988 451 1014 458 1008 451 l 682 451 l 682 94 l 1067 94 b 1093 68 1086 94 1093 88 l 1093 28 b 1067 0 1093 7 1086 0 l 615 0 b 463 -21 569 -12 517 -21 m 463 74 b 583 93 515 74 563 85 l 583 893 b 463 913 558 901 513 913 b 199 657 293 913 199 817 l 199 329 b 463 74 199 169 293 74 "},"œ":{"ha":1104,"x_min":0,"x_max":0,"o":"m 349 -19 b 88 235 192 -19 88 76 l 88 479 b 349 735 88 638 192 735 b 563 607 453 735 531 686 b 775 735 599 686 664 735 b 1029 450 961 735 1029 615 l 1029 371 b 989 331 1029 347 1018 331 l 606 331 l 606 250 b 774 63 606 132 654 63 b 939 175 865 63 901 106 b 978 185 950 192 958 193 l 1007 171 b 1017 131 1025 163 1026 147 b 774 -19 969 42 913 -19 b 561 104 661 -19 597 25 b 349 -19 529 25 451 -19 m 942 406 l 942 454 b 775 653 942 578 893 653 b 606 454 650 653 606 578 l 606 406 m 349 63 b 517 235 451 63 517 129 l 517 481 b 349 650 517 586 453 650 b 181 481 251 650 181 586 l 181 235 b 349 63 181 129 251 63 "},"Ŕ":{"ha":875,"x_min":0,"x_max":0,"o":"m 344 1060 b 311 1060 329 1051 319 1051 l 300 1075 b 303 1106 288 1089 289 1097 l 494 1243 b 540 1242 510 1253 526 1257 l 563 1217 b 558 1186 575 1201 575 1193 l 344 1060 m 151 0 b 126 28 132 0 126 7 l 126 958 b 151 986 126 979 132 986 l 508 986 b 786 699 676 986 786 881 b 578 435 786 544 707 454 b 668 332 621 413 647 378 l 808 28 b 793 0 817 13 813 0 l 743 0 b 694 25 711 0 704 4 l 574 293 b 406 417 533 382 497 417 l 228 417 l 228 28 b 201 0 228 7 221 0 l 151 0 m 504 507 b 683 699 613 507 683 575 b 504 892 683 822 615 892 l 228 892 l 228 507 "},"ŕ":{"ha":485,"x_min":0,"x_max":0,"o":"m 171 839 b 139 839 156 831 146 831 l 126 854 b 129 885 115 869 115 876 l 321 1022 b 368 1021 338 1032 354 1038 l 389 996 b 385 965 401 981 401 972 l 171 839 m 129 0 b 107 25 114 0 107 7 l 107 597 b 151 675 107 640 115 660 b 372 714 199 696 267 714 l 431 714 b 453 692 447 714 453 708 l 453 653 b 431 628 453 635 447 628 l 368 628 b 222 600 304 628 253 614 b 201 563 204 590 201 578 l 201 25 b 179 0 201 7 196 0 l 129 0 "},"Ŗ":{"ha":875,"x_min":0,"x_max":0,"o":"m 151 0 b 126 28 132 0 126 7 l 126 958 b 151 986 126 979 132 986 l 508 986 b 786 699 676 986 786 881 b 578 435 786 544 707 454 b 668 332 621 413 647 378 l 808 28 b 793 0 817 13 813 0 l 743 0 b 694 25 711 0 704 4 l 574 293 b 406 417 533 382 497 417 l 228 417 l 228 28 b 201 0 228 7 221 0 l 151 0 m 504 507 b 683 699 613 507 683 575 b 504 892 683 822 615 892 l 228 892 l 228 507 m 390 -346 b 374 -328 374 -346 371 -342 l 418 -126 b 450 -100 421 -106 429 -100 l 492 -100 b 515 -128 515 -100 522 -108 l 450 -322 b 421 -346 444 -340 439 -346 l 390 -346 "},"ŗ":{"ha":485,"x_min":0,"x_max":0,"o":"m 129 0 b 107 25 114 0 107 7 l 107 597 b 151 675 107 640 115 660 b 372 714 199 696 267 714 l 431 714 b 453 692 447 714 453 708 l 453 653 b 431 628 453 635 447 628 l 368 628 b 222 600 304 628 253 614 b 201 563 204 590 201 578 l 201 25 b 179 0 201 7 196 0 l 129 0 m 81 -346 b 64 -328 64 -346 61 -342 l 108 -126 b 140 -100 111 -106 119 -100 l 182 -100 b 206 -128 206 -100 213 -108 l 140 -322 b 111 -346 135 -340 129 -346 l 81 -346 "},"Ř":{"ha":875,"x_min":0,"x_max":0,"o":"m 425 1053 b 375 1076 400 1053 396 1054 l 222 1225 b 236 1246 213 1236 214 1246 l 271 1246 b 311 1232 292 1246 297 1246 l 428 1117 l 543 1232 b 583 1246 554 1244 563 1246 l 622 1246 b 635 1225 644 1246 646 1236 l 482 1076 b 435 1053 460 1054 456 1053 l 425 1053 m 151 0 b 126 28 132 0 126 7 l 126 958 b 151 986 126 979 132 986 l 508 986 b 786 699 676 986 786 881 b 578 435 786 544 707 454 b 668 332 621 413 647 378 l 808 28 b 793 0 817 13 813 0 l 743 0 b 694 25 711 0 704 4 l 574 293 b 406 417 533 382 497 417 l 228 417 l 228 28 b 201 0 228 7 221 0 l 151 0 m 504 507 b 683 699 613 507 683 575 b 504 892 683 822 615 892 l 228 892 l 228 507 "},"ř":{"ha":485,"x_min":0,"x_max":0,"o":"m 253 828 b 203 850 228 828 224 829 l 50 1000 b 64 1021 40 1011 42 1021 l 99 1021 b 139 1006 119 1021 125 1019 l 256 892 l 371 1006 b 413 1021 383 1018 390 1021 l 451 1021 b 463 1000 474 1021 474 1011 l 310 850 b 263 828 288 828 283 828 l 253 828 m 129 0 b 107 25 114 0 107 7 l 107 597 b 151 675 107 640 115 660 b 372 714 199 696 267 714 l 431 714 b 453 692 447 714 453 708 l 453 653 b 431 628 453 635 447 628 l 368 628 b 222 600 304 628 253 614 b 201 563 204 590 201 578 l 201 25 b 179 0 201 7 196 0 l 129 0 "},"Ś":{"ha":850,"x_min":0,"x_max":0,"o":"m 343 1072 b 310 1072 328 1064 318 1064 l 299 1088 b 301 1118 286 1101 288 1110 l 493 1256 b 539 1254 508 1265 525 1269 l 561 1229 b 557 1199 574 1214 574 1206 l 343 1072 m 424 -19 b 75 217 242 -19 132 56 b 90 253 68 236 72 246 l 138 268 b 172 251 157 275 164 272 b 424 76 218 129 300 76 b 669 269 586 76 669 139 b 426 449 669 411 553 432 b 88 724 271 467 88 501 b 421 1006 88 894 210 1006 b 757 794 597 1006 692 936 b 743 757 765 775 763 764 l 699 739 b 665 753 681 732 674 735 b 421 908 617 860 543 908 b 192 726 272 908 192 843 b 451 543 192 583 315 560 b 774 267 604 525 774 485 b 424 -19 774 85 651 -19 "},"ś":{"ha":671,"x_min":0,"x_max":0,"o":"m 249 840 b 217 840 233 832 224 832 l 204 856 b 207 886 193 871 193 878 l 399 1024 b 446 1022 415 1033 432 1039 l 467 997 b 463 967 479 982 479 974 l 249 840 m 340 -19 b 69 151 203 -19 113 28 b 83 186 64 169 67 181 l 128 199 b 160 183 146 204 151 201 b 340 64 189 96 251 64 b 507 189 454 64 507 111 b 335 317 507 286 443 306 b 82 528 203 331 82 356 b 333 733 82 654 172 733 b 586 585 478 733 550 676 b 575 547 594 565 592 554 l 539 533 b 506 546 519 526 515 529 b 333 650 481 610 435 650 b 175 528 229 650 175 606 b 356 399 175 419 247 410 b 601 190 493 383 601 344 b 340 -19 601 63 514 -19 "},"Ŝ":{"ha":850,"x_min":0,"x_max":0,"o":"m 235 1067 b 222 1088 213 1067 211 1076 l 374 1238 b 425 1260 396 1258 400 1260 l 435 1260 b 482 1238 454 1260 461 1260 l 633 1088 b 621 1067 644 1076 643 1067 l 583 1067 b 542 1082 563 1067 554 1068 l 428 1196 l 310 1082 b 271 1067 297 1068 292 1067 l 235 1067 m 424 -19 b 75 217 242 -19 132 56 b 90 253 68 236 72 246 l 138 268 b 172 251 157 275 164 272 b 424 76 218 129 300 76 b 669 269 586 76 669 139 b 426 449 669 411 553 432 b 88 724 271 467 88 501 b 421 1006 88 894 210 1006 b 757 794 597 1006 692 936 b 743 757 765 775 763 764 l 699 739 b 665 753 681 732 674 735 b 421 908 617 860 543 908 b 192 726 272 908 192 843 b 451 543 192 583 315 560 b 774 267 604 525 774 485 b 424 -19 774 85 651 -19 "},"ŝ":{"ha":671,"x_min":0,"x_max":0,"o":"m 142 831 b 129 851 119 831 119 840 l 282 1000 b 333 1024 304 1022 308 1024 l 343 1024 b 390 1000 363 1024 368 1022 l 542 851 b 529 831 553 840 551 831 l 492 831 b 450 844 469 831 463 832 l 336 960 l 218 844 b 178 831 206 832 199 831 l 142 831 m 340 -19 b 69 151 203 -19 113 28 b 83 186 64 169 67 181 l 128 199 b 160 183 146 204 151 201 b 340 64 189 96 251 64 b 507 189 454 64 507 111 b 335 317 507 286 443 306 b 82 528 203 331 82 356 b 333 733 82 654 172 733 b 586 585 478 733 550 676 b 575 547 594 565 592 554 l 539 533 b 506 546 519 526 515 529 b 333 650 481 610 435 650 b 175 528 229 650 175 606 b 356 399 175 419 247 410 b 601 190 493 383 601 344 b 340 -19 601 63 514 -19 "},"Ş":{"ha":850,"x_min":0,"x_max":0,"o":"m 425 -342 b 328 -315 389 -342 350 -328 b 313 -287 315 -308 313 -303 l 313 -261 b 326 -251 313 -253 315 -246 b 413 -283 346 -268 368 -283 b 500 -208 469 -283 500 -258 b 425 -147 500 -168 471 -147 b 386 -153 411 -147 397 -150 b 371 -131 371 -156 365 -146 l 410 -19 b 75 219 238 -15 132 63 b 90 257 68 240 72 250 l 138 272 b 172 256 157 279 164 275 b 424 76 219 133 300 76 b 669 269 586 76 669 139 b 426 449 669 411 553 432 b 88 724 271 467 88 501 b 421 1006 88 894 210 1006 b 757 794 597 1006 692 936 b 743 757 765 775 763 764 l 699 739 b 665 753 681 732 674 735 b 421 908 617 860 543 908 b 192 726 272 908 192 843 b 451 543 192 583 315 560 b 774 267 604 525 774 485 b 468 -18 774 97 668 -4 l 443 -101 b 471 -99 450 -100 461 -99 b 582 -212 539 -99 586 -146 b 425 -342 576 -307 508 -342 "},"ş":{"ha":671,"x_min":0,"x_max":0,"o":"m 329 -339 b 233 -314 294 -339 256 -326 b 218 -286 222 -307 218 -301 l 218 -261 b 232 -251 218 -253 222 -246 b 318 -283 251 -268 274 -283 b 403 -208 374 -283 403 -258 b 331 -149 403 -169 375 -149 b 292 -154 315 -149 303 -150 b 276 -132 276 -156 272 -147 l 314 -19 b 69 151 190 -15 110 35 b 83 186 64 169 67 181 l 128 199 b 160 183 146 204 151 201 b 340 64 189 96 251 64 b 507 189 454 64 507 111 b 335 317 507 286 443 306 b 82 528 203 331 82 356 b 333 733 82 654 172 733 b 586 585 478 733 550 676 b 575 547 594 565 592 554 l 539 533 b 506 546 519 526 515 529 b 333 650 481 610 435 650 b 175 528 229 650 175 606 b 356 399 175 419 247 410 b 601 190 493 383 601 344 b 371 -18 601 72 522 -7 l 346 -104 b 372 -100 353 -103 364 -100 b 483 -212 438 -100 488 -147 b 329 -339 479 -306 411 -339 "},"Š":{"ha":850,"x_min":0,"x_max":0,"o":"m 424 1065 b 374 1089 399 1065 394 1067 l 221 1238 b 235 1258 211 1249 213 1258 l 269 1258 b 310 1244 290 1258 296 1258 l 426 1129 l 542 1244 b 582 1258 553 1257 561 1258 l 621 1258 b 633 1238 643 1258 644 1249 l 481 1089 b 433 1065 458 1067 454 1065 l 424 1065 m 424 -19 b 75 217 242 -19 132 56 b 90 253 68 236 72 246 l 138 268 b 172 251 157 275 164 272 b 424 76 218 129 300 76 b 669 269 586 76 669 139 b 426 449 669 411 553 432 b 88 724 271 467 88 501 b 421 1006 88 894 210 1006 b 757 794 597 1006 692 936 b 743 757 765 775 763 764 l 699 739 b 665 753 681 732 674 735 b 421 908 617 860 543 908 b 192 726 272 908 192 843 b 451 543 192 583 315 560 b 774 267 604 525 774 485 b 424 -19 774 85 651 -19 "},"š":{"ha":671,"x_min":0,"x_max":0,"o":"m 331 829 b 281 851 306 829 301 831 l 128 1001 b 142 1022 118 1013 119 1022 l 176 1022 b 217 1007 197 1022 203 1021 l 333 893 l 449 1007 b 490 1022 461 1019 468 1022 l 529 1022 b 540 1001 551 1022 551 1013 l 388 851 b 340 829 365 829 361 829 l 331 829 m 340 -19 b 69 151 203 -19 113 28 b 83 186 64 169 67 181 l 128 199 b 160 183 146 204 151 201 b 340 64 189 96 251 64 b 507 189 454 64 507 111 b 335 317 507 286 443 306 b 82 528 203 331 82 356 b 333 733 82 654 172 733 b 586 585 478 733 550 676 b 575 547 594 565 592 554 l 539 533 b 506 546 519 526 515 529 b 333 650 481 610 435 650 b 175 528 229 650 175 606 b 356 399 175 419 247 410 b 601 190 493 383 601 344 b 340 -19 601 63 514 -19 "},"Ţ":{"ha":736,"x_min":0,"x_max":0,"o":"m 343 0 b 317 26 324 0 317 6 l 317 892 l 61 892 b 36 918 42 892 36 899 l 36 958 b 61 986 36 979 42 986 l 675 986 b 701 958 694 986 701 979 l 701 918 b 675 892 701 899 694 892 l 419 892 l 419 26 b 393 0 419 6 413 0 l 343 0 m 293 -346 b 276 -328 276 -346 274 -342 l 321 -126 b 353 -100 324 -106 332 -100 l 394 -100 b 418 -128 418 -100 425 -108 l 353 -322 b 324 -346 347 -340 342 -346 l 293 -346 "},"ţ":{"ha":472,"x_min":0,"x_max":0,"o":"m 338 -96 b 449 -211 403 -96 451 -144 b 292 -339 443 -306 375 -339 b 194 -314 256 -339 217 -326 b 179 -286 183 -307 179 -301 l 179 -260 b 193 -250 179 -250 183 -243 b 279 -282 214 -267 235 -282 b 365 -206 336 -282 365 -257 b 292 -146 365 -167 338 -146 b 253 -151 278 -146 264 -149 b 238 -129 238 -153 232 -144 l 286 11 b 158 265 196 35 158 103 l 158 626 l 50 626 b 26 653 32 626 26 633 l 26 689 b 50 714 26 708 32 714 l 158 714 l 158 856 b 182 881 158 875 164 881 l 229 881 b 253 856 247 881 253 875 l 253 714 l 415 714 b 439 689 433 714 439 708 l 439 653 b 415 626 439 633 433 626 l 253 626 l 253 269 b 414 90 253 111 292 89 b 438 68 432 90 438 85 l 438 26 b 414 0 438 7 432 0 b 342 1 388 0 364 0 l 310 -100 b 338 -96 318 -99 328 -96 "},"Ť":{"ha":736,"x_min":0,"x_max":0,"o":"m 364 1053 b 314 1076 339 1053 335 1054 l 161 1225 b 175 1246 151 1236 153 1246 l 210 1246 b 250 1232 231 1246 236 1246 l 367 1117 l 482 1232 b 522 1246 493 1244 501 1246 l 561 1246 b 574 1225 583 1246 585 1236 l 421 1076 b 374 1053 399 1054 394 1053 l 364 1053 m 343 0 b 317 26 324 0 317 6 l 317 892 l 61 892 b 36 918 42 892 36 899 l 36 958 b 61 986 36 979 42 986 l 675 986 b 701 958 694 986 701 979 l 701 918 b 675 892 701 899 694 892 l 419 892 l 419 26 b 393 0 419 6 413 0 l 343 0 "},"ť":{"ha":472,"x_min":0,"x_max":0,"o":"m 415 771 b 399 789 399 771 397 775 l 436 1001 b 465 1028 439 1022 446 1028 l 506 1028 b 528 1001 526 1028 535 1019 l 467 794 b 438 771 460 778 456 771 l 415 771 m 414 0 b 158 265 229 -4 158 40 l 158 626 l 50 626 b 26 653 32 626 26 633 l 26 689 b 50 714 26 708 32 714 l 158 714 l 158 856 b 182 881 158 875 164 881 l 229 881 b 253 856 247 881 253 875 l 253 714 l 415 714 b 439 689 433 714 439 708 l 439 653 b 415 626 439 633 433 626 l 253 626 l 253 269 b 414 90 253 111 292 89 b 438 68 432 90 438 85 l 438 26 b 414 0 438 7 432 0 "},"Ŧ":{"ha":736,"x_min":0,"x_max":0,"o":"m 343 0 b 317 26 324 0 317 6 l 317 419 l 144 419 b 126 440 131 419 126 424 l 126 475 b 144 494 126 490 132 494 l 317 494 l 317 892 l 61 892 b 36 918 42 892 36 899 l 36 958 b 61 986 36 979 42 986 l 674 986 b 700 958 694 986 700 979 l 700 918 b 674 892 700 899 694 892 l 419 892 l 419 494 l 593 494 b 611 475 607 494 611 490 l 611 440 b 593 419 611 424 607 419 l 419 419 l 419 26 b 393 0 419 6 413 0 l 343 0 "},"ŧ":{"ha":472,"x_min":0,"x_max":0,"o":"m 414 0 b 158 265 229 -4 158 40 l 158 349 l 68 349 b 50 368 56 349 50 353 l 50 397 b 68 417 50 411 56 417 l 158 417 l 158 626 l 50 626 b 26 653 32 626 26 633 l 26 689 b 50 714 26 708 32 714 l 158 714 l 158 856 b 182 881 158 875 164 881 l 229 881 b 253 856 247 881 253 875 l 253 714 l 415 714 b 439 689 433 714 439 708 l 439 653 b 415 626 439 633 433 626 l 253 626 l 253 417 l 393 417 b 411 397 407 417 411 411 l 411 368 b 393 349 411 353 407 349 l 253 349 l 253 269 b 414 90 253 111 292 89 b 438 68 432 90 438 85 l 438 26 b 414 0 438 7 432 0 "},"Ũ":{"ha":928,"x_min":0,"x_max":0,"o":"m 279 1071 b 264 1088 268 1071 264 1076 b 365 1226 264 1182 301 1226 b 547 1133 457 1226 482 1133 b 597 1210 581 1133 597 1164 b 613 1226 597 1222 600 1226 l 640 1226 b 657 1210 653 1226 657 1222 b 554 1071 657 1117 624 1071 b 374 1164 467 1071 442 1164 b 324 1088 343 1164 324 1135 b 308 1071 324 1076 319 1071 l 279 1071 m 464 -19 b 118 336 233 -19 118 119 l 118 960 b 144 986 118 981 124 986 l 194 986 b 219 960 214 986 219 981 l 219 336 b 464 75 219 175 299 75 b 707 336 629 75 707 175 l 707 960 b 733 986 707 981 714 986 l 783 986 b 810 960 803 986 810 981 l 810 336 b 464 -19 810 119 694 -19 "},"ũ":{"ha":742,"x_min":0,"x_max":0,"o":"m 185 849 b 168 865 174 849 168 853 b 271 1004 168 960 207 1004 b 453 911 363 1004 388 911 b 503 988 486 911 503 940 b 518 1004 503 999 506 1004 l 546 1004 b 563 988 558 1004 563 999 b 460 849 563 894 529 849 b 279 942 372 849 347 942 b 229 865 249 942 229 913 b 213 849 229 853 225 849 l 185 849 m 353 -19 b 104 251 181 -19 104 81 l 104 689 b 126 714 104 708 110 714 l 175 714 b 199 689 192 714 199 708 l 199 256 b 365 67 199 131 247 67 b 519 96 433 67 486 79 b 542 135 539 106 542 117 l 542 689 b 564 714 542 708 547 714 l 613 714 b 636 689 629 714 636 708 l 636 103 b 588 25 636 60 626 43 b 353 -19 540 4 471 -19 "},"Ū":{"ha":928,"x_min":0,"x_max":0,"o":"m 308 1111 b 285 1135 289 1111 285 1115 l 285 1157 b 308 1181 285 1175 292 1181 l 619 1181 b 644 1157 639 1181 644 1175 l 644 1135 b 619 1111 644 1115 639 1111 l 308 1111 m 464 -19 b 118 336 233 -19 118 119 l 118 960 b 144 986 118 981 124 986 l 194 986 b 219 960 214 986 219 981 l 219 336 b 464 75 219 175 299 75 b 707 336 629 75 707 175 l 707 960 b 733 986 707 981 714 986 l 783 986 b 810 960 803 986 810 981 l 810 336 b 464 -19 810 119 694 -19 "},"ū":{"ha":742,"x_min":0,"x_max":0,"o":"m 214 886 b 190 910 194 886 190 890 l 190 931 b 214 956 190 950 197 956 l 525 956 b 550 931 544 956 550 950 l 550 910 b 525 886 550 890 544 886 l 214 886 m 353 -19 b 104 251 181 -19 104 81 l 104 689 b 126 714 104 708 110 714 l 175 714 b 199 689 192 714 199 708 l 199 256 b 365 67 199 131 247 67 b 519 96 433 67 486 79 b 542 135 539 106 542 117 l 542 689 b 564 714 542 708 547 714 l 613 714 b 636 689 629 714 636 708 l 636 103 b 588 25 636 60 626 43 b 353 -19 540 4 471 -19 "},"Ŭ":{"ha":928,"x_min":0,"x_max":0,"o":"m 464 1058 b 269 1208 364 1058 303 1110 b 281 1233 265 1222 268 1228 l 314 1244 b 339 1235 328 1249 335 1247 b 464 1129 363 1165 399 1129 b 589 1235 528 1129 563 1161 b 610 1246 593 1247 599 1249 l 647 1233 b 660 1208 661 1228 664 1222 b 464 1058 625 1110 565 1058 m 464 -19 b 118 336 233 -19 118 119 l 118 960 b 144 986 118 981 124 986 l 194 986 b 219 960 214 986 219 981 l 219 336 b 464 75 219 175 299 75 b 707 336 629 75 707 175 l 707 960 b 733 986 707 981 714 986 l 783 986 b 810 960 803 986 810 981 l 810 336 b 464 -19 810 119 694 -19 "},"ŭ":{"ha":742,"x_min":0,"x_max":0,"o":"m 369 833 b 175 985 269 833 204 883 b 186 1008 169 999 174 1004 l 219 1021 b 244 1010 233 1025 240 1022 b 369 904 264 939 304 904 b 493 1010 433 904 474 939 b 515 1021 499 1022 504 1025 l 553 1008 b 564 985 565 1003 569 999 b 369 833 535 883 469 833 m 353 -19 b 104 251 181 -19 104 81 l 104 689 b 126 714 104 708 110 714 l 175 714 b 199 689 192 714 199 708 l 199 256 b 365 67 199 131 247 67 b 519 96 433 67 486 79 b 542 135 539 106 542 117 l 542 689 b 564 714 542 708 547 714 l 613 714 b 636 689 629 714 636 708 l 636 103 b 588 25 636 60 626 43 b 353 -19 540 4 471 -19 "},"Ů":{"ha":928,"x_min":0,"x_max":0,"o":"m 465 1046 b 331 1181 386 1046 331 1100 b 465 1317 331 1261 386 1317 b 596 1181 542 1317 596 1261 b 465 1046 596 1100 542 1046 m 465 1094 b 544 1181 513 1094 544 1129 b 465 1267 544 1232 513 1267 b 381 1181 415 1267 381 1232 b 465 1094 381 1129 415 1094 m 464 -19 b 118 336 233 -19 118 119 l 118 960 b 144 986 118 981 124 986 l 194 986 b 219 960 214 986 219 981 l 219 336 b 464 75 219 175 299 75 b 707 336 629 75 707 175 l 707 960 b 733 986 707 981 714 986 l 783 986 b 810 960 803 986 810 981 l 810 336 b 464 -19 810 119 694 -19 "},"ů":{"ha":742,"x_min":0,"x_max":0,"o":"m 371 793 b 236 928 292 793 236 849 b 371 1064 236 1008 292 1064 b 501 928 449 1064 501 1008 b 371 793 501 849 449 793 m 371 843 b 451 928 418 843 451 876 b 371 1014 451 979 418 1014 b 288 928 321 1014 288 979 b 371 843 288 876 321 843 m 353 -19 b 104 251 181 -19 104 81 l 104 689 b 126 714 104 708 110 714 l 175 714 b 199 689 192 714 199 708 l 199 256 b 365 67 199 131 247 67 b 519 96 433 67 486 79 b 542 135 539 106 542 117 l 542 689 b 564 714 542 708 547 714 l 613 714 b 636 689 629 714 636 708 l 636 103 b 588 25 636 60 626 43 b 353 -19 540 4 471 -19 "},"Ű":{"ha":928,"x_min":0,"x_max":0,"o":"m 292 1063 b 283 1089 275 1068 275 1076 l 396 1236 b 439 1254 407 1253 419 1260 l 468 1243 b 476 1215 486 1238 490 1226 l 339 1068 b 307 1057 326 1057 318 1053 m 508 1061 b 499 1088 490 1067 490 1076 l 619 1235 b 663 1251 631 1251 643 1258 l 693 1242 b 701 1214 711 1236 715 1225 l 554 1067 b 522 1056 542 1056 533 1051 m 464 -19 b 118 336 233 -19 118 119 l 118 960 b 144 986 118 981 124 986 l 194 986 b 219 960 214 986 219 981 l 219 336 b 464 75 219 175 299 75 b 707 336 629 75 707 175 l 707 960 b 733 986 707 981 714 986 l 783 986 b 810 960 803 986 810 981 l 810 336 b 464 -19 810 119 694 -19 "},"ű":{"ha":742,"x_min":0,"x_max":0,"o":"m 197 833 b 190 860 181 839 181 847 l 301 1007 b 344 1024 313 1022 325 1029 l 374 1014 b 382 985 392 1007 393 999 l 244 839 b 213 828 231 828 225 824 m 413 831 b 404 857 396 835 394 844 l 524 1004 b 567 1022 535 1021 547 1028 l 597 1011 b 606 983 615 1006 618 994 l 458 836 b 426 825 446 824 439 821 m 353 -19 b 104 251 181 -19 104 81 l 104 689 b 126 714 104 708 110 714 l 175 714 b 199 689 192 714 199 708 l 199 256 b 365 67 199 131 247 67 b 519 96 433 67 486 79 b 542 135 539 106 542 117 l 542 689 b 564 714 542 708 547 714 l 613 714 b 636 689 629 714 636 708 l 636 103 b 588 25 636 60 626 43 b 353 -19 540 4 471 -19 "},"Ų":{"ha":928,"x_min":0,"x_max":0,"o":"m 574 -343 b 472 -271 526 -343 485 -324 b 588 1 451 -200 500 -100 b 464 -19 553 -12 511 -19 b 118 336 233 -19 118 119 l 118 960 b 144 986 118 981 124 986 l 194 986 b 219 960 214 986 219 981 l 219 336 b 464 75 219 175 299 75 b 707 336 629 75 707 175 l 707 960 b 733 986 707 981 714 986 l 783 986 b 810 960 803 986 810 981 l 810 336 b 700 56 810 215 774 117 b 553 -233 590 -65 536 -181 b 601 -271 561 -260 581 -271 b 671 -240 622 -271 653 -260 b 688 -244 678 -235 685 -236 l 700 -274 b 697 -293 703 -283 703 -287 b 574 -343 665 -326 618 -343 "},"ų":{"ha":743,"x_min":0,"x_max":0,"o":"m 528 -343 b 422 -271 481 -343 433 -324 b 529 7 406 -204 449 -92 b 353 -19 488 -7 433 -19 b 104 251 181 -19 104 81 l 104 689 b 126 714 104 708 110 714 l 175 714 b 199 689 192 714 199 708 l 199 256 b 365 67 199 131 247 67 b 519 96 433 67 486 79 b 542 135 539 106 542 117 l 542 689 b 564 714 542 708 547 714 l 613 714 b 636 689 629 714 636 708 l 636 103 b 621 49 636 78 632 61 b 503 -233 532 -69 490 -186 b 554 -271 510 -260 533 -271 b 618 -240 575 -271 600 -260 b 635 -244 625 -235 631 -236 l 647 -274 b 644 -293 650 -283 650 -287 b 528 -343 613 -326 571 -343 "},"Ŵ":{"ha":1221,"x_min":0,"x_max":0,"o":"m 421 1054 b 408 1075 399 1054 397 1064 l 560 1225 b 611 1247 582 1246 586 1247 l 621 1247 b 668 1225 640 1247 647 1247 l 819 1075 b 807 1054 831 1064 829 1054 l 769 1054 b 728 1069 749 1054 740 1056 l 614 1183 l 496 1069 b 457 1054 483 1056 478 1054 l 421 1054 m 322 0 b 288 24 303 0 293 4 l 50 960 b 69 986 44 978 50 986 l 126 986 b 160 961 150 986 156 982 l 322 293 b 346 143 332 250 339 194 l 351 143 b 382 292 358 199 371 247 l 557 946 b 592 971 561 967 572 971 l 635 971 b 671 946 656 971 667 967 l 842 290 b 871 143 854 243 863 192 l 876 143 b 901 290 883 192 892 244 l 1064 961 b 1099 986 1068 982 1075 986 l 1150 986 b 1171 960 1169 986 1175 978 l 933 24 b 900 0 929 4 918 0 l 846 0 b 811 24 826 0 817 4 l 639 693 b 613 829 629 735 619 785 l 608 829 b 581 693 601 785 592 736 l 406 24 b 372 0 403 4 390 0 l 322 0 "},"ŵ":{"ha":996,"x_min":0,"x_max":0,"o":"m 306 829 b 293 850 283 829 283 839 l 446 999 b 497 1022 468 1021 472 1022 l 507 1022 b 554 999 526 1022 532 1021 l 706 850 b 693 829 717 839 715 829 l 656 829 b 614 843 633 829 626 831 l 500 958 l 382 843 b 342 829 369 831 363 829 l 306 829 m 269 -4 b 236 19 251 -4 242 0 l 50 685 b 71 714 44 707 47 714 l 110 714 b 151 689 139 714 147 710 l 265 260 b 292 113 276 217 285 158 l 297 113 b 328 261 304 157 317 217 l 446 674 b 485 699 450 694 456 699 l 513 699 b 551 674 540 699 546 694 l 668 267 b 701 113 682 218 693 157 l 706 113 b 733 264 713 156 722 213 l 849 689 b 889 714 853 711 860 714 l 924 714 b 946 685 947 714 951 707 l 758 19 b 725 -4 753 1 743 -4 l 683 -4 b 649 19 664 -4 654 1 l 524 471 l 497 589 l 494 589 l 468 471 l 342 19 b 310 -4 338 0 329 -4 l 269 -4 "},"Ŷ":{"ha":851,"x_min":0,"x_max":0,"o":"m 235 1054 b 222 1075 213 1054 211 1064 l 374 1225 b 425 1247 396 1246 400 1247 l 435 1247 b 482 1225 454 1247 461 1247 l 633 1075 b 621 1054 644 1064 643 1054 l 583 1054 b 542 1069 563 1054 554 1056 l 428 1183 l 310 1069 b 271 1054 297 1056 292 1054 l 235 1054 m 400 0 b 374 28 381 0 374 7 l 374 401 l 39 958 b 54 986 32 974 35 986 l 111 986 b 157 961 142 986 147 982 l 426 499 l 697 961 b 743 986 707 982 713 986 l 799 986 b 813 958 817 986 821 974 l 475 400 l 475 28 b 449 0 475 7 468 0 l 400 0 "},"ŷ":{"ha":746,"x_min":0,"x_max":0,"o":"m 175 829 b 163 850 153 829 153 839 l 315 999 b 367 1022 338 1021 342 1022 l 376 1022 b 424 999 396 1022 401 1021 l 575 850 b 563 829 586 839 585 829 l 525 829 b 483 843 503 829 496 831 l 369 958 l 251 843 b 211 829 239 831 232 829 l 175 829 m 367 -343 b 118 -194 233 -343 161 -285 b 128 -154 108 -176 110 -164 l 161 -137 b 197 -149 179 -128 188 -132 b 365 -258 228 -215 278 -258 b 542 -50 490 -258 542 -182 l 542 35 b 353 -1 503 21 446 -1 b 104 271 181 -1 104 100 l 104 689 b 126 714 104 708 110 714 l 175 714 b 199 689 192 714 199 708 l 199 274 b 365 85 199 150 247 85 b 542 122 449 85 507 107 l 542 689 b 564 714 542 708 547 714 l 613 714 b 636 689 629 714 636 708 l 636 -42 b 367 -343 636 -224 560 -343 "},"Ÿ":{"ha":851,"x_min":0,"x_max":0,"o":"m 296 1100 b 251 1144 261 1100 251 1110 l 251 1156 b 296 1201 251 1189 261 1201 l 306 1201 b 351 1156 342 1201 351 1189 l 351 1144 b 306 1100 351 1110 342 1100 l 296 1100 m 551 1100 b 504 1144 515 1100 504 1110 l 504 1156 b 551 1201 504 1189 515 1201 l 560 1201 b 606 1156 593 1201 606 1189 l 606 1144 b 560 1100 606 1110 593 1100 l 551 1100 m 400 0 b 374 28 381 0 374 7 l 374 401 l 39 958 b 54 986 32 974 35 986 l 111 986 b 157 961 142 986 147 982 l 426 499 l 697 961 b 743 986 707 982 713 986 l 799 986 b 813 958 817 986 821 974 l 475 400 l 475 28 b 449 0 475 7 468 0 l 400 0 "},"Ź":{"ha":767,"x_min":0,"x_max":0,"o":"m 304 1060 b 271 1060 289 1051 279 1051 l 260 1075 b 263 1106 247 1089 249 1097 l 454 1243 b 500 1242 469 1253 486 1257 l 522 1217 b 518 1186 535 1201 535 1193 l 304 1060 m 89 0 b 64 28 69 0 64 7 l 64 67 b 74 99 64 79 65 89 l 574 892 l 94 892 b 69 919 76 892 69 899 l 69 958 b 94 986 69 979 76 986 l 669 986 b 694 958 688 986 694 979 l 694 921 b 686 889 694 907 692 899 l 185 96 l 682 96 b 707 68 701 96 707 89 l 707 28 b 682 0 707 7 701 0 l 89 0 "},"ź":{"ha":610,"x_min":0,"x_max":0,"o":"m 219 839 b 188 839 204 831 194 831 l 175 854 b 178 885 164 869 164 876 l 369 1022 b 417 1021 386 1032 403 1038 l 438 996 b 433 965 450 981 450 972 l 219 839 m 83 0 b 60 25 65 0 60 7 l 60 61 b 69 88 60 74 63 76 l 426 629 l 89 629 b 67 654 72 629 67 635 l 67 689 b 89 714 67 708 72 714 l 519 714 b 542 689 536 714 542 708 l 542 654 b 531 624 542 640 538 635 l 172 86 l 526 86 b 550 61 544 86 550 79 l 550 25 b 526 0 550 7 544 0 l 83 0 "},"Ż":{"ha":767,"x_min":0,"x_max":0,"o":"m 385 1094 b 338 1142 349 1094 338 1106 l 338 1150 b 385 1197 338 1186 349 1197 l 392 1197 b 439 1150 429 1197 439 1186 l 439 1142 b 392 1094 439 1106 429 1094 l 385 1094 m 89 0 b 64 28 69 0 64 7 l 64 67 b 74 99 64 79 65 89 l 574 892 l 94 892 b 69 919 76 892 69 899 l 69 958 b 94 986 69 979 76 986 l 669 986 b 694 958 688 986 694 979 l 694 921 b 686 889 694 907 692 899 l 185 96 l 682 96 b 707 68 701 96 707 89 l 707 28 b 682 0 707 7 701 0 l 89 0 "},"ż":{"ha":610,"x_min":0,"x_max":0,"o":"m 292 872 b 250 921 260 872 250 882 l 250 935 b 292 983 250 971 260 983 l 324 983 b 365 935 354 983 365 971 l 365 921 b 324 872 365 882 354 872 l 292 872 m 83 0 b 60 25 65 0 60 7 l 60 61 b 69 88 60 74 63 76 l 426 629 l 89 629 b 67 654 72 629 67 635 l 67 689 b 89 714 67 708 72 714 l 519 714 b 542 689 536 714 542 708 l 542 654 b 531 624 542 640 538 635 l 172 86 l 526 86 b 550 61 544 86 550 79 l 550 25 b 526 0 550 7 544 0 l 83 0 "},"Ž":{"ha":767,"x_min":0,"x_max":0,"o":"m 385 1053 b 335 1076 360 1053 356 1054 l 182 1225 b 196 1246 172 1236 174 1246 l 231 1246 b 271 1232 251 1246 257 1246 l 388 1117 l 503 1232 b 543 1246 514 1244 522 1246 l 582 1246 b 594 1225 604 1246 606 1236 l 442 1076 b 394 1053 419 1054 415 1053 l 385 1053 m 89 0 b 64 28 69 0 64 7 l 64 67 b 74 99 64 79 65 89 l 574 892 l 94 892 b 69 919 76 892 69 899 l 69 958 b 94 986 69 979 76 986 l 669 986 b 694 958 688 986 694 979 l 694 921 b 686 889 694 907 692 899 l 185 96 l 682 96 b 707 68 701 96 707 89 l 707 28 b 682 0 707 7 701 0 l 89 0 "},"ž":{"ha":610,"x_min":0,"x_max":0,"o":"m 301 828 b 251 850 276 828 272 829 l 99 1000 b 113 1021 89 1011 90 1021 l 147 1021 b 188 1006 168 1021 174 1019 l 304 892 l 419 1006 b 461 1021 432 1018 439 1021 l 500 1021 b 511 1000 522 1021 522 1011 l 358 850 b 311 828 336 828 332 828 l 301 828 m 83 0 b 60 25 65 0 60 7 l 60 61 b 69 88 60 74 63 76 l 426 629 l 89 629 b 67 654 72 629 67 635 l 67 689 b 89 714 67 708 72 714 l 519 714 b 542 689 536 714 542 708 l 542 654 b 531 624 542 640 538 635 l 172 86 l 526 86 b 550 61 544 86 550 79 l 550 25 b 526 0 550 7 544 0 l 83 0 "},"ſ":{"ha":343,"x_min":0,"x_max":0,"o":"m 178 0 b 154 25 160 0 154 7 l 154 626 l 54 626 b 31 653 38 626 31 633 l 31 689 b 54 714 31 708 38 714 l 154 714 l 154 756 b 404 1028 154 953 224 1028 b 429 1001 424 1028 429 1021 l 429 965 b 404 939 429 946 424 939 b 249 750 285 939 249 899 l 249 25 b 225 0 249 7 243 0 l 178 0 "},"ƒ":{"ha":629,"x_min":0,"x_max":0,"o":"m 7 -306 b -17 -279 -11 -306 -17 -299 l -17 -243 b 7 -217 -17 -224 -11 -217 b 204 -15 140 -217 192 -137 l 251 453 l 81 453 b 57 478 64 453 57 458 l 57 515 b 81 540 57 535 64 540 l 260 540 l 282 743 b 572 1028 299 917 378 1028 b 596 1001 590 1028 596 1021 l 596 965 b 572 939 596 946 590 939 b 376 740 438 939 389 861 l 356 540 l 536 540 b 558 515 553 540 558 535 l 558 478 b 536 453 558 458 553 453 l 347 453 l 300 -19 b 7 -306 283 -193 201 -306 "},"Ǻ":{"ha":871,"x_min":0,"x_max":0,"o":"m 343 1204 b 318 1207 328 1199 324 1200 l 306 1219 b 315 1244 296 1231 303 1239 l 513 1343 b 550 1338 529 1351 536 1351 l 568 1318 b 564 1296 579 1306 579 1301 l 343 1204 m 53 0 b 33 26 32 0 28 10 l 369 947 b 297 1053 325 964 297 1001 b 436 1179 297 1126 354 1179 b 569 1051 515 1179 569 1125 b 501 949 569 1001 543 964 l 836 26 b 817 0 842 10 838 0 l 769 0 b 725 25 740 0 731 6 l 633 286 l 233 286 l 142 25 b 97 0 135 6 126 0 l 53 0 m 436 976 b 515 1054 482 976 515 1006 b 436 1129 515 1097 482 1129 b 351 1054 386 1129 351 1097 b 436 976 351 1006 386 976 m 603 374 l 456 796 b 436 889 446 831 438 868 l 432 889 b 411 796 428 867 421 831 l 264 374 "},"ǻ":{"ha":692,"x_min":0,"x_max":0,"o":"m 229 1078 b 197 1085 213 1074 203 1074 l 188 1101 b 196 1129 179 1117 181 1125 l 406 1231 b 451 1221 424 1238 440 1240 l 468 1193 b 458 1165 478 1176 476 1169 l 229 1078 m 340 793 b 206 928 261 793 206 849 b 340 1064 206 1008 261 1064 b 471 928 418 1064 471 1008 b 340 793 471 849 418 793 m 340 843 b 421 928 388 843 421 876 b 340 1014 421 979 388 1014 b 257 928 290 1014 257 979 b 340 843 257 876 290 843 m 342 -19 b 69 197 151 -19 69 49 b 344 410 69 344 153 410 b 501 397 411 410 481 400 l 501 475 b 342 651 501 600 453 651 b 171 550 256 651 203 613 b 138 538 163 533 154 529 l 108 551 b 96 588 90 558 86 568 b 342 735 138 678 217 735 b 594 471 525 735 594 642 l 594 96 b 550 17 594 47 585 33 b 342 -19 504 -6 436 -19 m 336 58 b 478 82 399 58 446 67 b 501 121 497 90 501 96 l 501 322 b 339 333 476 325 406 333 b 164 197 218 333 164 290 b 336 58 164 103 217 58 "},"Ǽ":{"ha":1135,"x_min":0,"x_max":0,"o":"m 721 1060 b 688 1060 706 1051 696 1051 l 676 1075 b 679 1106 664 1089 665 1097 l 871 1243 b 917 1242 886 1253 903 1257 l 939 1217 b 935 1186 951 1201 951 1193 l 721 1060 m 32 0 b 15 26 13 0 7 10 l 560 963 b 593 986 571 981 575 986 l 1022 986 b 1049 958 1042 986 1049 979 l 1049 918 b 1022 892 1049 899 1042 892 l 676 892 l 676 546 l 961 546 b 989 519 982 546 989 539 l 989 479 b 961 451 989 458 982 451 l 676 451 l 676 94 l 1038 94 b 1065 68 1058 94 1065 88 l 1065 28 b 1038 0 1065 7 1058 0 l 603 0 b 576 28 582 0 576 7 l 576 242 l 250 242 l 129 25 b 81 0 119 7 114 0 l 32 0 m 576 326 l 579 826 l 301 326 "},"ǽ":{"ha":1053,"x_min":0,"x_max":0,"o":"m 438 839 b 406 839 422 831 413 831 l 393 854 b 396 885 382 869 382 876 l 588 1022 b 635 1021 604 1032 621 1038 l 656 996 b 651 965 668 981 668 972 l 438 839 m 329 -19 b 69 194 143 -19 69 42 b 335 410 69 347 146 410 b 472 396 392 410 449 400 l 472 472 b 328 650 472 572 451 650 b 167 553 253 650 200 617 b 135 542 158 538 153 533 l 106 553 b 93 589 88 560 82 569 b 331 735 138 681 211 735 b 522 611 444 735 494 683 b 725 735 557 692 624 735 b 979 450 911 735 979 615 l 979 371 b 939 331 979 347 968 331 l 561 331 l 561 250 b 721 63 561 132 607 63 b 890 174 817 63 854 104 b 929 183 903 192 910 194 l 954 169 b 964 131 972 158 974 147 b 721 -19 918 42 863 -19 b 543 63 632 -19 574 11 b 329 -19 508 21 453 -19 m 889 406 l 889 456 b 725 654 889 579 843 654 b 561 456 606 654 561 579 l 561 406 m 324 58 b 481 135 438 58 469 114 b 472 226 475 163 472 193 l 472 318 b 326 331 447 322 382 331 b 163 194 203 331 163 288 b 324 58 163 101 201 58 "},"Ǿ":{"ha":901,"x_min":0,"x_max":0,"o":"m 376 1074 b 343 1074 361 1065 351 1065 l 332 1089 b 335 1119 319 1103 321 1111 l 526 1257 b 572 1256 542 1267 558 1271 l 594 1231 b 590 1200 607 1215 607 1207 l 376 1074 m 103 -58 b 97 -47 94 -58 94 -54 l 175 86 b 96 329 124 147 96 229 l 96 657 b 451 1006 96 872 221 1006 b 674 942 543 1006 618 983 l 728 1033 b 746 1043 732 1042 736 1043 l 800 1043 b 807 1033 808 1043 810 1039 l 728 897 b 804 657 778 838 804 757 l 804 329 b 451 -19 804 114 681 -19 b 229 42 360 -19 285 3 l 178 -47 b 157 -58 172 -57 171 -58 l 103 -58 m 624 856 b 451 911 582 892 525 911 b 199 657 286 911 199 817 l 199 340 b 240 199 199 282 213 235 m 451 75 b 703 329 615 75 703 169 l 703 657 b 665 789 703 710 690 756 l 279 128 b 451 75 321 93 379 75 "},"ǿ":{"ha":729,"x_min":0,"x_max":0,"o":"m 278 839 b 246 839 263 831 253 831 l 233 854 b 236 885 222 869 222 876 l 428 1022 b 475 1021 444 1032 461 1038 l 496 996 b 492 965 508 981 508 972 l 278 839 m 106 -50 b 101 -39 99 -50 99 -43 l 156 53 b 88 235 111 97 88 158 l 88 479 b 364 735 88 638 192 735 b 533 692 432 735 489 719 l 572 757 b 590 765 576 764 581 765 l 631 765 b 635 756 638 765 638 761 l 578 658 b 643 479 619 614 643 553 l 643 235 b 364 -19 643 76 539 -19 b 201 21 299 -19 243 -6 l 164 -42 b 144 -50 158 -49 157 -50 l 106 -50 m 488 613 b 364 649 457 636 414 649 b 182 479 254 649 182 585 l 182 250 b 214 154 182 211 193 179 m 364 65 b 549 235 476 65 549 129 l 549 460 b 517 556 549 497 538 531 l 246 99 b 364 65 276 78 318 65 "},"Ș":{"ha":850,"x_min":0,"x_max":0,"o":"m 424 -19 b 75 217 242 -19 132 56 b 90 253 68 236 72 246 l 138 268 b 172 251 157 275 164 272 b 424 76 218 129 300 76 b 669 269 586 76 669 139 b 426 449 669 411 553 432 b 88 724 271 467 88 501 b 421 1006 88 894 210 1006 b 757 794 597 1006 692 936 b 743 757 765 775 763 764 l 699 739 b 665 753 681 732 674 735 b 421 908 617 860 543 908 b 192 726 272 908 192 843 b 451 543 192 583 315 560 b 774 267 604 525 774 485 b 424 -19 774 85 651 -19 m 374 -353 b 357 -335 357 -353 354 -349 l 401 -133 b 433 -107 404 -112 413 -107 l 475 -107 b 499 -135 499 -107 506 -115 l 433 -329 b 404 -353 428 -347 422 -353 l 374 -353 "},"ș":{"ha":671,"x_min":0,"x_max":0,"o":"m 340 -19 b 69 151 203 -19 113 28 b 83 186 64 169 67 181 l 128 199 b 160 183 146 204 151 201 b 340 64 189 96 251 64 b 507 189 454 64 507 111 b 335 317 507 286 443 306 b 82 528 203 331 82 356 b 333 733 82 654 172 733 b 586 585 478 733 550 676 b 575 547 594 565 592 554 l 539 533 b 506 546 519 526 515 529 b 333 650 481 610 435 650 b 175 528 229 650 175 606 b 356 399 175 419 247 410 b 601 190 493 383 601 344 b 340 -19 601 63 514 -19 m 260 -346 b 243 -328 243 -346 240 -342 l 288 -126 b 319 -100 290 -106 299 -100 l 361 -100 b 385 -128 385 -100 392 -108 l 319 -322 b 290 -346 314 -340 308 -346 l 260 -346 "},"ț":{"ha":472,"x_min":0,"x_max":0,"o":"m 414 0 b 158 265 229 -4 158 40 l 158 626 l 50 626 b 26 653 32 626 26 633 l 26 689 b 50 714 26 708 32 714 l 158 714 l 158 856 b 182 881 158 875 164 881 l 229 881 b 253 856 247 881 253 875 l 253 714 l 415 714 b 439 689 433 714 439 708 l 439 653 b 415 626 439 633 433 626 l 253 626 l 253 269 b 414 90 253 111 292 89 b 438 68 432 90 438 85 l 438 26 b 414 0 438 7 432 0 m 238 -346 b 221 -328 221 -346 218 -342 l 265 -126 b 297 -100 268 -106 276 -100 l 339 -100 b 363 -128 363 -100 369 -108 l 297 -322 b 268 -346 292 -340 286 -346 l 238 -346 "},"ȷ":{"ha":310,"x_min":0,"x_max":0,"o":"m -33 -319 b -57 -293 -51 -319 -57 -312 l -57 -257 b -33 -231 -57 -237 -51 -231 b 108 -12 106 -231 108 -151 l 108 689 b 131 714 108 708 114 714 l 181 714 b 203 689 197 714 203 708 l 203 -14 b -33 -319 203 -208 179 -319 "},"ˆ":{"ha":529,"x_min":0,"x_max":0,"o":"m 68 814 b 56 835 46 814 46 824 l 208 983 b 260 1007 231 1006 235 1007 l 269 1007 b 317 983 289 1007 294 1006 l 468 835 b 456 814 479 824 478 814 l 418 814 b 376 828 396 814 389 815 l 263 943 l 144 828 b 104 814 132 815 125 814 l 68 814 "},"ˇ":{"ha":497,"x_min":0,"x_max":0,"o":"m 244 813 b 194 835 219 813 215 814 l 42 985 b 56 1006 32 994 33 1006 l 90 1006 b 131 990 111 1006 117 1004 l 247 876 l 363 990 b 404 1006 375 1003 382 1006 l 443 1006 b 454 985 465 1006 465 994 l 301 835 b 254 813 279 813 275 813 l 244 813 "},"˘":{"ha":403,"x_min":0,"x_max":0,"o":"m 194 818 b 0 968 94 818 29 868 b 11 993 -6 983 -1 989 l 44 1006 b 69 994 58 1010 65 1007 b 194 889 89 924 129 889 b 318 994 258 889 299 924 b 340 1006 324 1007 329 1010 l 378 993 b 389 968 390 988 394 983 b 194 818 360 868 294 818 "},"˙":{"ha":336,"x_min":0,"x_max":0,"o":"m 164 854 b 117 901 128 854 117 864 l 117 910 b 164 957 117 946 128 957 l 171 957 b 218 910 208 957 218 946 l 218 901 b 171 854 218 865 208 854 l 164 854 "},"˚":{"ha":353,"x_min":0,"x_max":0,"o":"m 179 767 b 44 901 100 767 44 822 b 179 1038 44 982 100 1038 b 310 901 257 1038 310 982 b 179 767 310 822 257 767 m 179 817 b 260 901 226 817 260 850 b 179 988 260 953 226 988 b 96 901 129 988 96 953 b 179 817 96 850 129 817 "},"˛":{"ha":386,"x_min":0,"x_max":0,"o":"m 189 -343 b 86 -271 142 -343 100 -324 b 215 0 67 -199 119 -101 l 282 0 b 168 -233 197 -100 153 -186 b 217 -271 176 -260 194 -271 b 276 -240 238 -271 258 -260 b 293 -244 283 -235 290 -236 l 306 -274 b 303 -293 308 -283 308 -287 b 189 -343 271 -326 232 -343 "},"˜":{"ha":428,"x_min":0,"x_max":0,"o":"m 33 833 b 17 850 22 833 17 838 b 119 988 17 943 56 988 b 301 896 211 988 236 896 b 351 972 335 896 351 925 b 367 988 351 983 354 988 l 394 988 b 411 972 407 988 411 983 b 308 833 411 879 378 833 b 128 926 221 833 196 926 b 78 850 97 926 78 897 b 61 833 78 838 74 833 l 33 833 "},"˝":{"ha":553,"x_min":0,"x_max":0,"o":"m 104 817 b 97 843 88 822 88 831 l 208 990 b 251 1007 219 1006 232 1013 l 281 997 b 289 968 299 990 300 981 l 151 822 b 119 811 138 810 132 807 m 319 813 b 311 840 303 818 301 828 l 431 988 b 474 1004 442 1003 454 1010 l 504 994 b 513 965 522 988 525 978 l 365 818 b 333 808 353 807 346 803 "},"̀":{"ha":0,"x_min":0,"x_max":0,"o":"m -324 965 b -326 994 -340 972 -339 979 l -306 1019 b -258 1021 -292 1036 -275 1032 l -67 883 b -64 854 -53 876 -53 868 l -76 839 b -110 838 -83 829 -93 831 "},"́":{"ha":0,"x_min":0,"x_max":0,"o":"m -261 839 b -293 839 -276 831 -286 831 l -306 854 b -303 885 -317 869 -317 876 l -111 1022 b -64 1021 -94 1032 -78 1038 l -43 996 b -47 965 -31 981 -31 972 l -261 839 "},"̂":{"ha":0,"x_min":0,"x_max":0,"o":"m -461 829 b -474 850 -483 829 -483 839 l -321 999 b -269 1022 -299 1021 -294 1022 l -260 1022 b -212 999 -240 1022 -235 1021 l -61 850 b -74 829 -50 839 -51 829 l -111 829 b -153 843 -133 829 -140 831 l -267 958 l -385 843 b -425 829 -397 831 -404 829 l -461 829 "},"̃":{"ha":0,"x_min":0,"x_max":0,"o":"m -394 849 b -411 865 -406 849 -411 853 b -308 1004 -411 960 -372 1004 b -126 911 -217 1004 -192 911 b -76 988 -93 911 -76 940 b -61 1004 -76 999 -74 1004 l -33 1004 b -17 988 -21 1004 -17 999 b -119 849 -17 894 -50 849 b -300 942 -207 849 -232 942 b -350 865 -331 942 -350 913 b -367 849 -350 853 -354 849 l -394 849 "},"̄":{"ha":0,"x_min":0,"x_max":0,"o":"m -419 886 b -443 910 -439 886 -443 890 l -443 931 b -419 956 -443 950 -436 956 l -108 956 b -83 931 -89 956 -83 950 l -83 910 b -108 886 -83 890 -89 886 l -419 886 "},"̆":{"ha":0,"x_min":0,"x_max":0,"o":"m -208 833 b -403 985 -308 833 -374 883 b -392 1008 -408 999 -404 1004 l -358 1021 b -333 1010 -344 1025 -337 1022 b -208 904 -314 939 -274 904 b -85 1010 -144 904 -104 939 b -62 1021 -79 1022 -74 1025 l -25 1008 b -14 985 -12 1003 -8 999 b -208 833 -43 883 -108 833 "},"̇":{"ha":0,"x_min":0,"x_max":0,"o":"m -183 872 b -225 921 -215 872 -225 882 l -225 935 b -183 983 -225 971 -215 983 l -151 983 b -110 935 -121 983 -110 971 l -110 921 b -151 872 -110 882 -121 872 l -183 872 "},"̈":{"ha":0,"x_min":0,"x_max":0,"o":"m -453 874 b -501 922 -489 874 -501 883 l -501 931 b -453 979 -501 967 -489 979 l -444 979 b -396 931 -408 979 -396 967 l -396 922 b -444 874 -396 886 -408 874 l -453 874 m -196 874 b -244 922 -232 874 -244 883 l -244 931 b -196 979 -244 967 -233 979 l -189 979 b -140 931 -151 979 -140 967 l -140 922 b -189 874 -140 886 -151 874 l -196 874 "},"̊":{"ha":0,"x_min":0,"x_max":0,"o":"m -174 793 b -308 928 -253 793 -308 849 b -174 1064 -308 1008 -253 1064 b -43 928 -96 1064 -43 1008 b -174 793 -43 849 -96 793 m -174 843 b -93 928 -126 843 -93 876 b -174 1014 -93 979 -126 1014 b -257 928 -224 1014 -257 979 b -174 843 -257 876 -224 843 "},"̋":{"ha":0,"x_min":0,"x_max":0,"o":"m -449 833 b -456 860 -465 839 -465 847 l -344 1007 b -301 1024 -333 1022 -321 1029 l -272 1014 b -264 985 -254 1007 -253 999 l -401 839 b -433 828 -415 828 -421 824 m -233 831 b -242 857 -250 835 -251 844 l -122 1004 b -79 1022 -111 1021 -99 1028 l -49 1011 b -40 983 -31 1006 -28 994 l -187 836 b -219 825 -200 824 -207 821 "},"̌":{"ha":0,"x_min":0,"x_max":0,"o":"m -253 828 b -303 850 -278 828 -282 829 l -456 1000 b -442 1021 -465 1011 -464 1021 l -407 1021 b -367 1006 -386 1021 -381 1019 l -250 892 l -135 1006 b -93 1021 -122 1018 -115 1021 l -54 1021 b -43 1000 -32 1021 -32 1011 l -196 850 b -243 828 -218 828 -222 828 l -253 828 "},"̧":{"ha":0,"x_min":0,"x_max":0,"o":"m -190 -339 b -287 -314 -226 -339 -265 -326 b -303 -286 -300 -307 -303 -301 l -303 -260 b -289 -250 -303 -250 -300 -243 b -203 -282 -269 -267 -247 -282 b -117 -206 -146 -282 -117 -257 b -190 -146 -117 -167 -144 -146 b -229 -151 -204 -146 -218 -149 b -244 -129 -244 -153 -250 -144 l -200 0 l -142 0 l -172 -100 b -144 -96 -164 -99 -156 -96 b -35 -211 -79 -96 -31 -144 b -190 -339 -40 -306 -107 -339 "},"̨":{"ha":0,"x_min":0,"x_max":0,"o":"m -197 -343 b -300 -271 -244 -343 -286 -324 b -171 0 -319 -199 -267 -101 l -104 0 b -218 -233 -189 -100 -233 -186 b -169 -271 -210 -260 -192 -271 b -110 -240 -149 -271 -128 -260 b -93 -244 -103 -235 -96 -236 l -81 -274 b -83 -293 -78 -283 -78 -287 b -197 -343 -115 -326 -154 -343 "},"π":{"ha":838,"x_min":0,"x_max":0,"o":"m 676 -1 b 642 13 658 -8 650 -6 b 601 207 608 76 601 128 l 601 628 l 294 628 l 294 25 b 271 0 294 7 289 0 l 224 0 b 200 25 206 0 200 7 l 200 628 b 81 589 151 626 126 617 b 47 600 65 582 57 582 l 31 635 b 43 668 24 651 26 660 b 233 714 104 704 154 714 l 768 714 b 792 689 786 714 792 708 l 792 653 b 768 628 792 635 786 628 l 696 628 l 696 203 b 728 53 696 136 700 101 b 717 15 736 35 733 24 l 676 -1 "},"Ё":{"ha":776,"x_min":0,"x_max":0,"o":"m 276 1100 b 232 1144 242 1100 232 1110 l 232 1156 b 276 1201 232 1189 242 1201 l 286 1201 b 332 1156 322 1201 332 1189 l 332 1144 b 286 1100 332 1110 322 1100 l 276 1100 m 532 1100 b 485 1144 496 1100 485 1110 l 485 1156 b 532 1201 485 1189 496 1201 l 540 1201 b 586 1156 574 1201 586 1189 l 586 1144 b 540 1100 586 1110 574 1100 l 532 1100 m 151 0 b 126 28 132 0 126 7 l 126 958 b 151 986 126 979 132 986 l 664 986 b 690 958 683 986 690 979 l 690 918 b 664 892 690 899 683 892 l 228 892 l 228 547 l 607 547 b 632 519 626 547 632 540 l 632 479 b 607 453 632 460 626 453 l 228 453 l 228 94 l 681 94 b 706 68 700 94 706 88 l 706 28 b 681 0 706 7 700 0 l 151 0 "},"А":{"ha":871,"x_min":0,"x_max":0,"o":"m 53 0 b 33 26 32 0 28 10 l 376 967 b 410 990 382 986 390 990 l 461 990 b 494 968 479 990 488 986 l 836 26 b 817 0 842 10 838 0 l 769 0 b 725 25 740 0 731 6 l 633 286 l 233 286 l 142 25 b 97 0 135 6 126 0 l 53 0 m 603 374 l 456 796 b 436 889 446 831 438 868 l 431 889 b 411 796 428 867 421 831 l 264 374 "},"Б":{"ha":853,"x_min":0,"x_max":0,"o":"m 151 0 b 126 26 132 0 126 7 l 126 958 b 151 986 126 979 132 986 l 699 986 b 725 958 718 986 725 979 l 725 918 b 699 892 725 899 718 892 l 228 892 l 228 565 l 513 565 b 789 285 681 565 789 465 b 513 0 789 106 681 0 l 151 0 m 508 94 b 686 285 615 94 686 165 b 508 476 686 406 615 476 l 228 476 l 228 94 "},"В":{"ha":874,"x_min":0,"x_max":0,"o":"m 151 0 b 126 28 132 0 126 7 l 126 958 b 151 986 126 979 132 986 l 500 986 b 761 731 657 986 761 894 b 639 511 761 619 718 547 l 639 508 b 793 265 736 478 793 397 b 521 0 793 94 686 0 l 151 0 m 499 546 b 661 721 600 546 661 603 b 496 892 661 835 597 892 l 228 892 l 228 546 m 517 94 b 692 276 622 94 692 157 b 521 458 692 396 625 458 l 228 458 l 228 94 "},"Г":{"ha":692,"x_min":0,"x_max":0,"o":"m 151 0 b 126 28 132 0 126 7 l 126 958 b 151 986 126 979 132 986 l 626 986 b 651 958 646 986 651 979 l 651 919 b 626 892 651 899 646 892 l 228 892 l 228 28 b 203 0 228 7 221 0 l 151 0 "},"Д":{"ha":957,"x_min":0,"x_max":0,"o":"m 65 -212 b 39 -185 44 -212 39 -206 l 39 68 b 65 94 39 88 44 94 l 110 94 b 242 676 171 139 242 225 l 242 958 b 268 986 242 979 249 986 l 782 986 b 808 958 801 986 808 979 l 808 94 l 885 94 b 911 68 906 94 911 88 l 911 -185 b 885 -212 911 -206 906 -212 l 839 -212 b 813 -185 819 -212 813 -206 l 813 0 l 139 0 l 139 -185 b 111 -212 139 -206 131 -212 l 65 -212 m 706 94 l 706 892 l 340 892 l 340 676 b 224 94 340 282 282 163 "},"Е":{"ha":776,"x_min":0,"x_max":0,"o":"m 151 0 b 126 28 132 0 126 7 l 126 958 b 151 986 126 979 132 986 l 664 986 b 690 958 683 986 690 979 l 690 918 b 664 892 690 899 683 892 l 228 892 l 228 547 l 607 547 b 632 519 626 547 632 540 l 632 479 b 607 453 632 460 626 453 l 228 453 l 228 94 l 681 94 b 706 68 700 94 706 88 l 706 28 b 681 0 706 7 700 0 l 151 0 "},"Ж":{"ha":1239,"x_min":0,"x_max":0,"o":"m 61 0 b 46 28 40 0 39 13 l 208 372 b 336 514 242 442 279 489 l 60 958 b 74 986 51 974 54 986 l 125 986 b 178 963 157 986 167 983 l 432 543 b 485 547 447 546 465 547 l 568 547 l 568 958 b 594 986 568 979 575 986 l 643 986 b 671 958 664 986 671 979 l 671 547 l 754 547 b 807 543 772 547 790 546 l 1060 963 b 1113 986 1071 983 1081 986 l 1164 986 b 1178 958 1183 986 1186 974 l 901 514 b 1029 372 960 489 996 442 l 1193 28 b 1178 0 1200 13 1199 0 l 1132 0 b 1079 25 1099 0 1089 4 l 936 333 b 757 453 896 419 854 453 l 671 453 l 671 28 b 643 0 671 7 664 0 l 594 0 b 568 28 575 0 568 7 l 568 453 l 482 453 b 301 333 385 453 343 419 l 158 25 b 107 0 149 4 140 0 l 61 0 "},"З":{"ha":842,"x_min":0,"x_max":0,"o":"m 431 -19 b 71 222 218 -19 117 67 b 88 258 65 243 69 251 l 132 274 b 165 256 151 279 160 276 b 431 75 197 136 274 75 b 653 276 588 75 653 154 b 485 457 653 383 596 457 l 282 457 b 256 485 261 457 256 464 l 256 522 b 282 550 256 543 261 550 l 481 550 b 631 721 586 550 631 625 b 424 911 631 843 560 911 b 171 736 275 911 207 858 b 138 719 164 715 157 713 l 97 732 b 81 768 79 738 74 747 b 426 1006 126 922 219 1006 b 732 729 624 1006 732 904 b 617 511 732 632 699 550 b 761 269 719 471 761 382 b 431 -19 761 92 654 -19 "},"И":{"ha":943,"x_min":0,"x_max":0,"o":"m 153 0 b 128 28 133 0 128 7 l 126 958 b 151 986 126 979 131 986 l 203 986 b 228 958 222 986 228 979 l 228 432 b 217 140 228 328 228 243 l 222 140 b 356 399 265 236 303 310 l 704 972 b 731 986 710 982 717 986 l 789 986 b 817 958 810 986 817 979 l 818 28 b 792 0 818 7 811 0 l 740 0 b 715 28 722 0 715 7 l 715 568 b 729 846 715 668 718 749 l 724 846 b 596 601 679 751 643 682 l 238 15 b 211 0 231 3 224 0 l 153 0 "},"Й":{"ha":908,"x_min":0,"x_max":0,"o":"m 482 1081 b 274 1231 375 1081 304 1131 b 286 1256 268 1244 272 1250 l 321 1268 b 349 1257 336 1271 343 1269 b 482 1150 369 1185 413 1150 b 617 1257 551 1150 594 1185 b 640 1268 622 1269 628 1271 l 679 1256 b 693 1231 694 1250 697 1244 b 482 1081 661 1131 590 1081 m 153 0 b 128 28 133 0 128 7 l 126 958 b 151 986 126 979 131 986 l 203 986 b 228 958 222 986 228 979 l 228 432 b 217 140 228 328 228 243 l 222 140 b 356 399 265 236 303 310 l 704 972 b 731 986 710 982 717 986 l 789 986 b 817 958 810 986 817 979 l 818 28 b 792 0 818 7 811 0 l 740 0 b 715 28 722 0 715 7 l 715 568 b 729 846 715 668 718 749 l 724 846 b 596 601 679 751 643 682 l 238 15 b 211 0 231 3 224 0 l 153 0 "},"К":{"ha":826,"x_min":0,"x_max":0,"o":"m 151 0 b 126 28 132 0 126 7 l 126 958 b 151 986 126 979 132 986 l 201 986 b 228 958 221 986 228 979 l 228 547 l 358 547 b 385 546 367 547 376 547 l 651 963 b 697 986 664 983 671 986 l 753 986 b 768 958 772 986 776 974 l 482 526 b 622 372 546 504 585 453 l 781 28 b 765 0 789 13 786 0 l 713 0 b 671 25 685 0 681 4 l 532 335 b 367 453 493 419 457 453 l 228 453 l 228 28 b 201 0 228 7 221 0 l 151 0 "},"Л":{"ha":888,"x_min":0,"x_max":0,"o":"m 88 -15 b 51 -3 69 -24 61 -21 l 28 39 b 39 75 17 57 21 67 b 206 636 149 136 204 163 l 207 958 b 233 986 207 979 213 986 l 736 986 b 763 958 756 986 763 979 l 763 28 b 736 0 763 7 756 0 l 686 0 b 660 28 667 0 660 7 l 660 892 l 304 892 l 304 636 b 88 -15 304 114 217 50 "},"М":{"ha":1092,"x_min":0,"x_max":0,"o":"m 153 0 b 126 28 132 0 126 7 l 126 958 b 153 986 126 979 132 986 l 194 986 b 233 964 217 986 225 981 l 546 346 l 857 963 b 893 986 865 982 871 986 l 940 986 b 967 958 960 986 967 979 l 967 28 b 940 0 967 7 960 0 l 894 0 b 868 28 875 0 868 7 l 868 592 b 883 839 868 667 871 746 l 878 839 b 782 622 846 756 818 692 l 593 254 b 563 232 586 238 578 232 l 531 232 b 499 254 514 232 507 236 l 306 626 b 214 840 269 694 243 757 l 208 840 b 222 592 219 746 222 671 l 222 28 b 196 0 222 7 215 0 l 153 0 "},"Н":{"ha":926,"x_min":0,"x_max":0,"o":"m 151 0 b 126 28 132 0 126 7 l 126 958 b 151 986 126 979 132 986 l 201 986 b 228 958 221 986 228 979 l 228 547 l 699 547 l 699 958 b 725 986 699 979 706 986 l 775 986 b 800 958 794 986 800 979 l 800 28 b 775 0 800 7 794 0 l 725 0 b 699 28 706 0 699 7 l 699 453 l 228 453 l 228 28 b 201 0 228 7 221 0 l 151 0 "},"О":{"ha":901,"x_min":0,"x_max":0,"o":"m 451 -19 b 96 329 221 -19 96 114 l 96 657 b 451 1006 96 872 221 1006 b 804 657 681 1006 804 872 l 804 329 b 451 -19 804 114 681 -19 m 451 75 b 703 329 615 75 703 169 l 703 657 b 451 911 703 817 615 911 b 199 657 286 911 199 817 l 199 329 b 451 75 199 169 286 75 "},"П":{"ha":918,"x_min":0,"x_max":0,"o":"m 151 0 b 126 28 132 0 126 7 l 126 958 b 151 986 126 979 132 986 l 767 986 b 792 958 786 986 792 979 l 792 28 b 767 0 792 7 786 0 l 715 0 b 690 28 696 0 690 7 l 690 892 l 228 892 l 228 28 b 201 0 228 7 221 0 l 151 0 "},"Р":{"ha":844,"x_min":0,"x_max":0,"o":"m 151 0 b 126 28 132 0 126 7 l 126 958 b 151 986 126 979 132 986 l 492 986 b 783 676 669 986 783 871 b 492 369 783 485 671 369 l 228 369 l 228 28 b 201 0 228 7 221 0 l 151 0 m 488 465 b 682 676 607 465 682 543 b 488 892 682 811 607 892 l 228 892 l 228 465 "},"С":{"ha":864,"x_min":0,"x_max":0,"o":"m 450 -19 b 96 329 222 -19 96 114 l 96 657 b 450 1006 96 872 219 1006 b 792 768 646 1006 746 922 b 776 732 799 747 794 738 l 731 718 b 697 736 713 713 704 715 b 450 911 664 856 594 911 b 199 658 282 911 199 817 l 199 328 b 450 76 199 171 283 76 b 697 256 594 75 663 139 b 731 274 704 276 713 281 l 778 258 b 794 224 796 253 801 243 b 450 -19 746 68 649 -19 "},"Т":{"ha":736,"x_min":0,"x_max":0,"o":"m 343 0 b 317 26 324 0 317 6 l 317 892 l 61 892 b 36 918 42 892 36 899 l 36 958 b 61 986 36 979 42 986 l 675 986 b 701 958 694 986 701 979 l 701 918 b 675 892 701 899 694 892 l 419 892 l 419 26 b 393 0 419 6 413 0 l 343 0 "},"У":{"ha":801,"x_min":0,"x_max":0,"o":"m 243 0 b 229 28 224 0 222 11 l 347 282 l 29 958 b 44 986 21 974 25 986 l 93 986 b 140 961 122 986 129 985 l 400 392 l 663 961 b 704 986 672 982 675 986 l 756 986 b 769 958 774 986 775 974 l 343 25 b 299 0 333 4 326 0 l 243 0 "},"Ф":{"ha":1124,"x_min":0,"x_max":0,"o":"m 538 -29 b 511 -1 518 -29 511 -22 l 511 90 l 432 90 b 79 443 203 90 79 224 l 79 550 b 432 903 79 769 203 903 l 511 903 l 511 993 b 538 1021 511 1014 518 1021 l 586 1021 b 613 993 606 1021 613 1014 l 613 903 l 692 903 b 1044 550 921 903 1044 769 l 1044 443 b 692 90 1044 224 921 90 l 613 90 l 613 -1 b 586 -29 613 -22 606 -29 l 538 -29 m 511 182 l 511 811 l 433 811 b 181 554 267 811 181 717 l 181 439 b 433 182 181 276 267 182 m 690 182 b 943 439 857 182 943 276 l 943 554 b 690 811 943 717 857 811 l 613 811 l 613 182 "},"Х":{"ha":833,"x_min":0,"x_max":0,"o":"m 56 0 b 43 31 35 0 32 14 l 350 503 l 51 960 b 65 986 43 974 47 986 l 122 986 b 171 963 151 986 160 985 l 417 582 l 661 963 b 707 986 672 983 678 986 l 768 986 b 782 960 786 986 790 974 l 481 504 l 792 31 b 779 0 801 14 799 0 l 718 0 b 672 25 688 0 685 3 l 414 426 l 161 25 b 118 0 150 3 143 0 l 56 0 "},"Ц":{"ha":947,"x_min":0,"x_max":0,"o":"m 828 -212 b 800 -185 807 -212 800 -206 l 800 0 l 153 0 b 126 28 132 0 126 7 l 126 958 b 153 986 126 979 132 986 l 201 986 b 228 958 221 986 228 979 l 228 94 l 693 94 l 693 958 b 719 986 693 979 700 986 l 768 986 b 796 958 789 986 796 979 l 796 94 l 872 94 b 899 68 893 94 899 88 l 899 -185 b 872 -212 899 -206 893 -212 l 828 -212 "},"Ч":{"ha":854,"x_min":0,"x_max":0,"o":"m 651 0 b 626 28 632 0 626 7 l 626 399 b 397 371 589 389 511 371 b 74 711 161 371 74 494 l 74 958 b 99 986 74 979 79 986 l 150 986 b 175 958 169 986 175 979 l 175 711 b 407 467 175 546 236 467 b 626 497 517 467 592 486 l 626 958 b 651 986 626 979 632 986 l 703 986 b 728 958 722 986 728 979 l 728 28 b 703 0 728 7 722 0 l 651 0 "},"Ш":{"ha":1246,"x_min":0,"x_max":0,"o":"m 153 0 b 126 28 132 0 126 7 l 126 958 b 153 986 126 979 132 986 l 200 986 b 228 958 221 986 228 979 l 228 94 l 572 94 l 572 958 b 599 986 572 979 579 986 l 647 986 b 674 958 667 986 674 979 l 674 94 l 1018 94 l 1018 958 b 1046 986 1018 979 1026 986 l 1094 986 b 1121 958 1114 986 1121 979 l 1121 28 b 1094 0 1121 7 1114 0 l 153 0 "},"Щ":{"ha":1281,"x_min":0,"x_max":0,"o":"m 1161 -212 b 1135 -185 1142 -212 1135 -206 l 1135 0 l 153 0 b 126 28 132 0 126 7 l 126 958 b 153 986 126 979 132 986 l 201 986 b 228 958 221 986 228 979 l 228 94 l 576 94 l 576 958 b 603 986 576 979 582 986 l 651 986 b 678 958 671 986 678 979 l 678 94 l 1025 94 l 1025 958 b 1051 986 1025 979 1032 986 l 1100 986 b 1126 958 1121 986 1126 979 l 1126 94 l 1206 94 b 1232 68 1225 94 1232 88 l 1232 -185 b 1206 -212 1232 -206 1225 -212 l 1161 -212 "},"Ъ":{"ha":988,"x_min":0,"x_max":0,"o":"m 281 0 b 254 28 261 0 254 7 l 254 892 l 63 892 b 36 918 43 892 36 899 l 36 958 b 63 986 36 979 43 986 l 329 986 b 356 958 349 986 356 979 l 356 617 l 631 617 b 926 310 811 617 926 501 b 629 0 926 115 811 0 l 281 0 m 625 94 b 825 310 750 94 825 175 b 625 521 825 443 750 521 l 356 521 l 356 94 "},"Ы":{"ha":1176,"x_min":0,"x_max":0,"o":"m 153 0 b 126 28 132 0 126 7 l 126 958 b 153 986 126 979 132 986 l 201 986 b 228 958 221 986 228 979 l 228 615 l 499 615 b 792 310 678 615 792 503 b 499 0 792 117 678 0 l 153 0 m 974 0 b 949 28 954 0 949 7 l 949 958 b 974 986 949 979 954 986 l 1025 986 b 1050 958 1044 986 1050 979 l 1050 28 b 1025 0 1050 7 1044 0 l 974 0 m 494 94 b 690 310 615 94 690 175 b 494 522 690 444 615 522 l 228 522 l 228 94 "},"Ь":{"ha":844,"x_min":0,"x_max":0,"o":"m 151 0 b 126 28 132 0 126 7 l 126 958 b 151 986 126 979 132 986 l 201 986 b 228 958 221 986 228 979 l 228 617 l 494 617 b 783 310 672 617 783 501 b 493 0 783 115 671 0 l 151 0 m 490 94 b 682 310 610 94 682 175 b 490 521 682 443 610 521 l 228 521 l 228 94 "},"Э":{"ha":869,"x_min":0,"x_max":0,"o":"m 419 -19 b 74 222 219 -19 118 67 b 90 258 68 243 72 251 l 136 274 b 169 256 154 281 163 276 b 419 75 203 136 275 75 b 671 328 585 75 671 169 l 671 451 l 301 451 b 275 479 282 451 275 458 l 275 519 b 301 546 275 539 282 546 l 671 546 l 671 660 b 419 911 671 818 586 911 b 169 736 279 911 204 856 b 136 719 163 715 154 713 l 93 732 b 76 768 75 739 69 749 b 419 1006 122 924 224 1006 b 772 658 650 1006 772 874 l 772 329 b 419 -19 772 113 647 -19 "},"Ю":{"ha":1257,"x_min":0,"x_max":0,"o":"m 804 -19 b 447 328 574 -19 447 113 l 447 453 l 228 453 l 228 28 b 201 0 228 7 221 0 l 153 0 b 126 28 132 0 126 7 l 126 958 b 153 986 126 979 132 986 l 201 986 b 228 958 221 986 228 979 l 228 547 l 447 547 l 447 658 b 804 1006 447 874 574 1006 b 1160 658 1036 1006 1160 874 l 1160 328 b 804 -19 1160 113 1036 -19 m 804 75 b 1058 328 971 75 1058 168 l 1058 658 b 804 911 1058 818 971 911 b 549 658 636 911 549 818 l 549 328 b 804 75 549 168 636 75 "},"Я":{"ha":872,"x_min":0,"x_max":0,"o":"m 88 0 b 72 28 68 0 64 13 l 207 332 b 292 429 226 376 250 411 b 94 699 167 454 94 546 b 368 986 94 881 200 986 l 721 986 b 747 958 740 986 747 979 l 747 28 b 721 0 747 7 740 0 l 671 0 b 644 28 651 0 644 7 l 644 413 l 469 413 b 299 293 378 413 336 381 l 183 25 b 132 0 174 4 165 0 l 88 0 m 644 508 l 644 892 l 369 892 b 196 699 261 892 196 822 b 369 508 196 576 263 508 "},"а":{"ha":692,"x_min":0,"x_max":0,"o":"m 342 -19 b 69 197 151 -19 69 49 b 344 410 69 344 153 410 b 501 397 411 410 481 400 l 501 475 b 342 651 501 600 453 651 b 171 550 256 651 203 613 b 138 538 163 533 154 529 l 108 551 b 96 588 90 558 86 568 b 342 735 138 678 217 735 b 594 471 525 735 594 642 l 594 96 b 550 17 594 47 585 33 b 342 -19 504 -6 436 -19 m 336 58 b 478 82 399 58 446 67 b 501 121 497 90 501 96 l 501 322 b 339 333 476 325 406 333 b 164 197 218 333 164 290 b 336 58 164 103 217 58 "},"б":{"ha":747,"x_min":0,"x_max":0,"o":"m 383 -19 b 104 251 199 -19 104 83 l 104 600 b 446 1017 104 892 190 1017 l 490 1017 b 589 1035 532 1017 569 1024 b 622 1018 607 1044 614 1039 l 635 988 b 621 953 642 968 636 961 b 494 928 593 935 551 928 l 447 928 b 193 619 260 928 193 849 l 193 593 b 399 700 219 633 283 700 b 664 433 572 700 664 601 l 664 251 b 383 -19 664 83 569 -19 m 383 65 b 569 251 508 65 569 135 l 569 429 b 383 615 569 546 508 615 b 199 478 258 615 206 526 l 199 251 b 383 65 199 135 260 65 "},"в":{"ha":719,"x_min":0,"x_max":0,"o":"m 133 0 b 110 26 117 0 110 7 l 110 689 b 133 714 110 707 117 714 l 431 714 b 619 528 551 714 619 643 b 536 374 619 460 597 406 b 644 197 613 342 644 282 b 447 0 644 75 569 0 l 133 0 m 419 407 b 529 521 485 407 529 447 b 414 633 529 593 488 633 l 204 633 l 204 407 m 431 81 b 549 206 506 81 549 128 b 428 331 549 285 506 331 l 204 331 l 204 81 "},"г":{"ha":567,"x_min":0,"x_max":0,"o":"m 132 0 b 110 25 117 0 110 7 l 110 689 b 132 714 110 708 115 714 l 506 714 b 529 689 524 714 529 708 l 529 653 b 506 626 529 633 524 626 l 204 626 l 204 25 b 182 0 204 7 199 0 l 132 0 "},"д":{"ha":801,"x_min":0,"x_max":0,"o":"m 64 -193 b 40 -168 46 -193 40 -186 l 40 61 b 64 88 40 81 46 88 l 101 88 b 188 474 144 128 188 194 l 188 689 b 213 714 188 708 194 714 l 643 714 b 668 689 663 714 668 708 l 668 88 l 733 88 b 757 61 751 88 757 81 l 757 -168 b 733 -193 757 -186 751 -193 l 690 -193 b 665 -168 672 -193 665 -186 l 665 0 l 132 0 l 132 -168 b 107 -193 132 -186 126 -193 l 64 -193 m 574 88 l 574 626 l 281 626 l 281 468 b 206 88 281 238 250 144 "},"е":{"ha":711,"x_min":0,"x_max":0,"o":"m 356 -19 b 83 263 168 -19 83 94 l 83 442 b 361 735 83 625 179 735 b 636 447 547 735 636 614 l 636 371 b 597 331 636 347 625 331 l 176 331 l 176 251 b 357 63 176 135 236 63 b 543 176 458 63 510 107 b 579 188 553 194 561 197 l 610 169 b 619 131 625 161 631 147 b 356 -19 576 43 496 -19 m 543 406 l 543 453 b 361 654 543 576 485 654 b 176 453 238 654 176 576 l 176 406 "},"ж":{"ha":1000,"x_min":0,"x_max":0,"o":"m 68 0 b 53 29 44 0 43 8 l 168 281 b 256 385 192 332 217 367 l 61 685 b 79 714 50 706 54 714 l 117 714 b 164 694 144 714 153 714 l 340 410 l 365 410 l 453 410 l 453 689 b 478 714 453 708 458 714 l 522 714 b 546 689 540 714 546 708 l 546 410 l 635 410 l 658 410 l 835 694 b 881 714 846 714 853 714 l 919 714 b 938 685 944 714 949 704 l 744 385 b 832 281 782 367 808 332 l 947 29 b 931 0 957 8 954 0 l 890 0 b 849 22 863 0 856 3 l 753 239 b 633 322 726 297 694 322 l 546 322 l 546 26 b 522 0 546 7 540 0 l 478 0 b 453 26 458 0 453 7 l 453 322 l 367 322 b 247 239 304 322 274 297 l 153 22 b 111 0 146 3 138 0 l 68 0 "},"з":{"ha":693,"x_min":0,"x_max":0,"o":"m 354 -19 b 64 171 154 -19 83 121 b 81 207 57 190 63 201 l 115 217 b 149 200 135 222 142 221 b 350 64 156 179 197 64 b 519 201 469 64 519 119 b 392 325 519 283 481 325 l 268 325 b 246 351 251 325 246 331 l 246 378 b 268 404 246 397 251 404 l 390 404 b 510 522 467 404 510 447 b 349 650 510 593 461 650 b 156 525 236 650 172 585 b 124 507 150 504 143 500 l 90 518 b 75 554 72 524 69 535 b 349 735 90 599 154 735 b 603 528 518 735 603 651 b 508 371 603 460 575 397 l 508 368 b 615 192 582 342 615 281 b 354 -19 615 58 533 -19 "},"и":{"ha":763,"x_min":0,"x_max":0,"o":"m 133 0 b 110 25 117 0 110 7 l 110 689 b 133 714 110 708 115 714 l 181 714 b 204 689 199 714 204 708 l 204 290 b 189 128 204 229 200 182 l 194 128 b 253 243 215 176 231 206 l 550 701 b 574 714 556 713 563 714 l 629 714 b 653 689 647 714 653 708 l 653 25 b 629 0 653 7 647 0 l 582 0 b 558 25 564 0 558 7 l 558 415 b 574 586 558 485 564 535 l 569 586 b 506 464 549 542 528 506 l 214 14 b 190 0 208 3 201 0 l 133 0 "},"й":{"ha":728,"x_min":0,"x_max":0,"o":"m 389 818 b 194 968 289 818 224 868 b 207 993 190 983 193 989 l 239 1006 b 265 994 253 1010 260 1007 b 389 889 285 924 325 889 b 514 994 454 889 494 924 b 536 1006 519 1007 525 1010 l 572 993 b 585 968 586 988 589 983 b 389 818 556 868 489 818 m 133 0 b 110 25 117 0 110 7 l 110 689 b 133 714 110 708 115 714 l 181 714 b 204 689 199 714 204 708 l 204 290 b 189 128 204 229 200 182 l 194 128 b 253 243 215 176 231 206 l 550 701 b 574 714 556 713 563 714 l 629 714 b 653 689 647 714 653 708 l 653 25 b 629 0 653 7 647 0 l 582 0 b 558 25 564 0 558 7 l 558 415 b 574 586 558 485 564 535 l 569 586 b 506 464 549 542 528 506 l 214 14 b 190 0 208 3 201 0 l 133 0 "},"к":{"ha":700,"x_min":0,"x_max":0,"o":"m 133 0 b 111 26 117 0 111 7 l 111 689 b 133 714 111 708 117 714 l 182 714 b 206 689 199 714 206 708 l 206 410 l 342 410 l 353 410 l 539 694 b 583 714 550 714 557 714 l 622 714 b 640 685 647 714 651 703 l 440 392 b 540 281 486 376 514 339 l 650 29 b 632 0 658 8 656 0 l 593 0 b 550 22 565 0 558 4 l 458 239 b 349 322 433 297 406 322 l 206 322 l 206 26 b 182 0 206 7 199 0 l 133 0 "},"л":{"ha":726,"x_min":0,"x_max":0,"o":"m 78 -18 b 49 -6 64 -24 56 -19 l 24 38 b 32 67 15 51 19 60 b 156 453 90 97 156 128 l 156 689 b 178 714 156 708 161 714 l 593 714 b 617 689 611 714 617 708 l 617 25 b 593 0 617 7 611 0 l 546 0 b 522 25 528 0 522 7 l 522 626 l 247 626 l 247 447 b 78 -18 247 90 164 28 "},"м":{"ha":882,"x_min":0,"x_max":0,"o":"m 133 0 b 110 26 114 0 110 6 l 110 686 b 136 714 110 707 115 714 l 185 714 b 219 693 204 714 211 710 l 443 242 l 663 692 b 693 714 669 708 675 714 l 746 714 b 772 686 767 714 772 707 l 772 26 b 747 0 772 6 765 0 l 707 0 b 681 26 686 0 681 6 l 681 403 b 694 578 681 454 683 517 l 690 578 b 626 440 665 521 647 483 l 485 163 b 454 143 478 147 472 143 l 431 143 b 400 163 414 143 407 147 l 261 436 b 192 578 238 482 218 521 l 188 578 b 200 394 196 514 200 449 l 200 26 b 175 0 200 6 194 0 l 133 0 "},"н":{"ha":754,"x_min":0,"x_max":0,"o":"m 133 0 b 110 25 117 0 110 7 l 110 689 b 133 714 110 708 115 714 l 181 714 b 204 689 199 714 204 708 l 204 410 l 550 410 l 550 689 b 572 714 550 708 556 714 l 621 714 b 644 689 638 714 644 708 l 644 25 b 621 0 644 7 638 0 l 572 0 b 550 25 556 0 550 7 l 550 322 l 204 322 l 204 25 b 181 0 204 7 199 0 l 133 0 "},"о":{"ha":729,"x_min":0,"x_max":0,"o":"m 364 -19 b 88 235 192 -19 88 76 l 88 479 b 364 735 88 638 192 735 b 643 479 539 735 643 638 l 643 235 b 364 -19 643 76 539 -19 m 364 65 b 549 235 476 65 549 129 l 549 479 b 364 649 549 585 476 649 b 182 479 254 649 182 585 l 182 235 b 364 65 182 129 254 65 "},"п":{"ha":747,"x_min":0,"x_max":0,"o":"m 133 0 b 110 25 117 0 110 7 l 110 689 b 133 714 110 708 115 714 l 614 714 b 638 689 632 714 638 708 l 638 25 b 614 0 638 7 632 0 l 567 0 b 543 25 550 0 543 7 l 543 626 l 204 626 l 204 25 b 181 0 204 7 199 0 l 133 0 "},"р":{"ha":729,"x_min":0,"x_max":0,"o":"m 131 -306 b 107 -281 113 -306 107 -299 l 107 617 b 156 693 107 661 115 674 b 367 735 200 714 274 735 b 642 451 556 735 642 636 l 642 251 b 390 -19 642 81 565 -19 b 201 25 306 -19 233 10 l 201 -281 b 178 -306 201 -299 196 -306 l 131 -306 m 379 67 b 547 254 497 67 547 133 l 547 449 b 364 649 547 582 492 649 b 224 621 307 649 254 635 b 201 586 204 611 201 606 l 201 113 b 379 67 232 97 300 67 "},"с":{"ha":696,"x_min":0,"x_max":0,"o":"m 356 -19 b 85 251 175 -19 85 81 l 85 463 b 363 735 85 632 176 735 b 624 547 515 735 592 661 b 608 511 631 526 625 517 l 572 499 b 539 517 553 493 544 497 b 360 650 513 607 464 650 b 179 464 239 650 179 581 l 179 251 b 358 64 179 135 240 64 b 538 203 460 64 508 110 b 571 219 544 222 551 225 l 611 208 b 626 172 629 203 635 192 b 356 -19 583 44 507 -19 "},"т":{"ha":597,"x_min":0,"x_max":0,"o":"m 276 0 b 251 25 258 0 251 7 l 251 626 l 61 626 b 38 653 43 626 38 633 l 38 689 b 61 714 38 708 43 714 l 538 714 b 560 689 554 714 560 708 l 560 653 b 538 626 560 633 554 626 l 346 626 l 346 25 b 324 0 346 7 340 0 l 276 0 "},"у":{"ha":746,"x_min":0,"x_max":0,"o":"m 367 -343 b 118 -194 233 -343 161 -285 b 128 -154 108 -176 110 -164 l 161 -137 b 197 -149 179 -128 188 -132 b 365 -258 228 -215 278 -258 b 542 -50 490 -258 542 -182 l 542 35 b 353 -1 503 21 446 -1 b 104 271 181 -1 104 100 l 104 689 b 126 714 104 708 110 714 l 175 714 b 199 689 192 714 199 708 l 199 274 b 365 85 199 150 247 85 b 542 122 449 85 507 107 l 542 689 b 564 714 542 708 547 714 l 613 714 b 636 689 629 714 636 708 l 636 -42 b 367 -343 636 -224 560 -343 "},"ф":{"ha":1003,"x_min":0,"x_max":0,"o":"m 479 -306 b 454 -281 460 -306 454 -299 l 454 -12 b 364 -19 425 -17 396 -19 b 83 268 214 -19 83 47 l 83 439 b 364 735 83 660 214 735 b 454 728 396 735 425 732 l 454 1001 b 479 1028 454 1021 460 1028 l 525 1028 b 549 1001 543 1028 549 1021 l 549 728 b 638 735 579 732 607 735 b 918 446 789 735 918 668 l 918 268 b 638 -19 918 47 789 -19 b 549 -12 607 -19 579 -17 l 549 -281 b 525 -306 549 -299 543 -306 l 479 -306 m 368 67 b 457 72 400 67 425 69 l 457 642 b 368 647 425 646 400 647 b 178 436 281 647 178 607 l 178 271 b 368 67 178 101 281 67 m 633 67 b 824 271 721 67 825 101 l 824 443 b 633 647 824 613 721 647 b 547 642 603 647 578 646 l 547 72 b 633 67 578 69 603 67 "},"х":{"ha":656,"x_min":0,"x_max":0,"o":"m 61 0 b 46 29 36 0 33 10 l 265 367 l 56 686 b 74 714 46 703 47 714 l 119 714 b 160 693 143 714 151 711 l 329 433 l 496 693 b 533 714 506 711 510 714 l 583 714 b 599 686 606 714 610 704 l 393 368 l 613 29 b 596 0 622 10 619 0 l 546 0 b 507 21 522 0 517 3 l 329 301 l 150 21 b 110 0 140 3 133 0 l 61 0 "},"ц":{"ha":769,"x_min":0,"x_max":0,"o":"m 658 -193 b 635 -168 642 -193 635 -186 l 635 0 l 133 0 b 110 25 115 0 110 7 l 110 689 b 133 714 110 708 117 714 l 181 714 b 204 689 199 714 204 708 l 204 88 l 546 88 l 546 689 b 568 714 546 708 551 714 l 617 714 b 640 689 633 714 640 708 l 640 88 l 701 88 b 726 61 721 88 726 81 l 726 -168 b 701 -193 726 -186 721 -193 l 658 -193 "},"ч":{"ha":688,"x_min":0,"x_max":0,"o":"m 507 0 b 483 25 489 0 483 7 l 483 286 b 310 258 460 281 397 258 b 65 514 140 258 65 344 l 65 689 b 89 714 65 708 71 714 l 136 714 b 160 689 154 714 160 708 l 160 517 b 326 346 160 396 206 346 b 483 375 401 346 469 369 l 483 689 b 507 714 483 708 489 714 l 554 714 b 578 689 572 714 578 708 l 578 25 b 554 0 578 7 572 0 l 507 0 "},"ш":{"ha":1039,"x_min":0,"x_max":0,"o":"m 133 0 b 110 25 115 0 110 7 l 110 689 b 133 714 110 708 117 714 l 181 714 b 204 689 199 714 204 708 l 204 88 l 472 88 l 472 689 b 497 714 472 708 478 714 l 543 714 b 567 689 561 714 567 708 l 567 88 l 835 88 l 835 689 b 860 714 835 708 840 714 l 906 714 b 929 689 924 714 929 708 l 929 25 b 906 0 929 7 924 0 l 133 0 "},"щ":{"ha":1069,"x_min":0,"x_max":0,"o":"m 957 -193 b 932 -168 939 -193 932 -186 l 932 0 l 133 0 b 110 25 117 0 110 7 l 110 689 b 133 714 110 708 117 714 l 181 714 b 204 689 199 714 204 708 l 204 88 l 476 88 l 476 689 b 500 714 476 708 482 714 l 546 714 b 571 689 565 714 571 708 l 571 88 l 843 88 l 843 689 b 867 714 843 708 849 714 l 913 714 b 938 689 932 714 938 708 l 938 88 l 1000 88 b 1024 61 1018 88 1024 81 l 1024 -168 b 1000 -193 1024 -186 1018 -193 l 957 -193 "},"ъ":{"ha":822,"x_min":0,"x_max":0,"o":"m 242 0 b 219 25 225 0 219 7 l 219 626 l 61 626 b 38 653 43 626 38 633 l 38 689 b 61 714 38 708 43 714 l 290 714 b 314 689 307 714 314 708 l 314 488 l 531 488 b 763 246 676 488 763 400 b 531 0 763 89 676 0 l 242 0 m 524 85 b 668 246 615 85 668 144 b 524 403 668 347 615 403 l 314 403 l 314 85 "},"ы":{"ha":958,"x_min":0,"x_max":0,"o":"m 133 0 b 110 25 115 0 110 7 l 110 689 b 133 714 110 708 115 714 l 181 714 b 204 689 199 714 204 708 l 204 488 l 418 488 b 647 246 561 488 647 400 b 418 0 647 89 561 0 l 133 0 m 778 0 b 754 25 760 0 754 7 l 754 689 b 778 714 754 708 760 714 l 826 714 b 849 689 843 714 849 708 l 849 25 b 826 0 849 7 843 0 l 778 0 m 411 85 b 553 246 501 85 553 144 b 411 403 553 347 501 403 l 204 403 l 204 85 "},"ь":{"ha":697,"x_min":0,"x_max":0,"o":"m 133 0 b 110 25 115 0 110 7 l 110 689 b 133 714 110 708 115 714 l 181 714 b 204 689 199 714 204 708 l 204 488 l 414 488 b 639 246 554 488 639 400 b 414 0 639 89 554 0 l 133 0 m 404 85 b 544 246 493 85 544 144 b 404 403 544 347 493 403 l 204 403 l 204 85 "},"э":{"ha":690,"x_min":0,"x_max":0,"o":"m 336 -19 b 67 176 188 -19 104 49 b 82 211 60 196 65 207 l 119 222 b 151 206 138 228 144 225 b 333 64 176 111 231 64 b 511 250 451 64 511 133 l 511 322 l 267 322 b 244 347 250 322 244 329 l 244 381 b 267 406 244 400 250 406 l 511 406 l 511 465 b 333 650 511 582 453 650 b 154 517 228 650 179 608 b 121 500 147 499 140 494 l 89 510 b 72 546 71 515 67 525 b 332 735 104 660 179 735 b 606 461 517 735 606 631 l 606 254 b 336 -19 606 83 517 -19 "},"ю":{"ha":1017,"x_min":0,"x_max":0,"o":"m 647 -19 b 369 233 476 -19 369 75 l 369 318 l 204 318 l 204 25 b 181 0 204 7 199 0 l 133 0 b 110 25 117 0 110 7 l 110 689 b 133 714 110 708 115 714 l 181 714 b 204 689 199 714 204 708 l 204 406 l 369 406 l 369 482 b 647 735 371 639 478 735 b 928 481 824 735 928 639 l 928 233 b 647 -19 928 75 824 -19 m 647 65 b 833 232 764 65 833 128 l 833 482 b 647 649 833 588 764 649 b 461 482 532 649 461 588 l 461 232 b 647 65 461 128 532 65 "},"я":{"ha":713,"x_min":0,"x_max":0,"o":"m 94 0 b 76 31 67 0 67 10 l 222 275 b 81 485 135 297 81 368 b 290 714 81 628 163 714 l 579 714 b 603 689 597 714 603 707 l 603 25 b 581 0 603 7 597 0 l 532 0 b 508 25 515 0 508 7 l 508 257 l 313 257 l 179 22 b 138 0 171 1 163 0 l 94 0 m 508 340 l 508 629 l 304 629 b 174 483 224 629 174 572 b 306 340 174 396 224 340 "}}}
